<mxfile host="app.diagrams.net" modified="2021-12-28T11:08:56.148Z" agent="5.0 (Windows NT 10.0; Win64; x64) AppleWebKit/537.36 (KHTML, like Gecko) Chrome/96.0.4664.110 Safari/537.36" etag="Oa9NWLxCJnfjw6SEc0cP" version="16.1.0" type="github" pages="11">
  <diagram id="j0XH334-E_OCAcwZl6di" name="Usecase">
    <mxGraphModel dx="868" dy="464" grid="1" gridSize="10" guides="1" tooltips="1" connect="1" arrows="1" fold="1" page="1" pageScale="1" pageWidth="827" pageHeight="1169" math="0" shadow="0">
      <root>
        <mxCell id="rBiiECS7z7tVnE24ZR0C-0" />
        <mxCell id="rBiiECS7z7tVnE24ZR0C-1" parent="rBiiECS7z7tVnE24ZR0C-0" />
        <mxCell id="rBiiECS7z7tVnE24ZR0C-6" value="&lt;font style=&quot;font-size: 8px&quot;&gt;Sistem Cafe17 Purwokerto&lt;/font&gt;" style="shape=umlFrame;whiteSpace=wrap;html=1;" parent="rBiiECS7z7tVnE24ZR0C-1" vertex="1">
          <mxGeometry x="250" y="200" width="320" height="680" as="geometry" />
        </mxCell>
        <mxCell id="rBiiECS7z7tVnE24ZR0C-2" value="Login" style="ellipse;whiteSpace=wrap;html=1;" parent="rBiiECS7z7tVnE24ZR0C-1" vertex="1">
          <mxGeometry x="690" y="425" width="90" height="45" as="geometry" />
        </mxCell>
        <mxCell id="rBiiECS7z7tVnE24ZR0C-3" value="Kasir" style="shape=umlActor;verticalLabelPosition=bottom;verticalAlign=top;html=1;" parent="rBiiECS7z7tVnE24ZR0C-1" vertex="1">
          <mxGeometry x="140" y="570" width="30" height="60" as="geometry" />
        </mxCell>
        <mxCell id="rBiiECS7z7tVnE24ZR0C-5" value="Pelanggan" style="shape=umlActor;verticalLabelPosition=bottom;verticalAlign=top;html=1;" parent="rBiiECS7z7tVnE24ZR0C-1" vertex="1">
          <mxGeometry x="150" y="392" width="30" height="60" as="geometry" />
        </mxCell>
        <mxCell id="rBiiECS7z7tVnE24ZR0C-9" value="Melihat Blog" style="ellipse;whiteSpace=wrap;html=1;" parent="rBiiECS7z7tVnE24ZR0C-1" vertex="1">
          <mxGeometry x="460" y="270" width="90" height="45" as="geometry" />
        </mxCell>
        <mxCell id="rBiiECS7z7tVnE24ZR0C-10" value="Memesan Produk" style="ellipse;whiteSpace=wrap;html=1;" parent="rBiiECS7z7tVnE24ZR0C-1" vertex="1">
          <mxGeometry x="420" y="320" width="100" height="50" as="geometry" />
        </mxCell>
        <mxCell id="rBiiECS7z7tVnE24ZR0C-11" value="Mengelola Keranjang" style="ellipse;whiteSpace=wrap;html=1;" parent="rBiiECS7z7tVnE24ZR0C-1" vertex="1">
          <mxGeometry x="370" y="370" width="90" height="45" as="geometry" />
        </mxCell>
        <mxCell id="rBiiECS7z7tVnE24ZR0C-12" value="Melihat Menu" style="ellipse;whiteSpace=wrap;html=1;" parent="rBiiECS7z7tVnE24ZR0C-1" vertex="1">
          <mxGeometry x="395" y="230" width="90" height="45" as="geometry" />
        </mxCell>
        <mxCell id="rBiiECS7z7tVnE24ZR0C-33" value="" style="endArrow=open;endSize=12;html=1;rounded=0;strokeColor=default;exitX=0.975;exitY=0.339;exitDx=0;exitDy=0;exitPerimeter=0;" parent="rBiiECS7z7tVnE24ZR0C-1" source="rBiiECS7z7tVnE24ZR0C-5" target="rBiiECS7z7tVnE24ZR0C-12" edge="1">
          <mxGeometry width="160" relative="1" as="geometry">
            <mxPoint x="180" y="410" as="sourcePoint" />
            <mxPoint x="339.9472882783115" y="313.7044434005435" as="targetPoint" />
          </mxGeometry>
        </mxCell>
        <mxCell id="rBiiECS7z7tVnE24ZR0C-34" value="" style="endArrow=open;endSize=12;html=1;rounded=0;strokeColor=default;exitX=1;exitY=0.3333333333333333;exitDx=0;exitDy=0;exitPerimeter=0;" parent="rBiiECS7z7tVnE24ZR0C-1" source="rBiiECS7z7tVnE24ZR0C-5" target="rBiiECS7z7tVnE24ZR0C-9" edge="1">
          <mxGeometry width="160" relative="1" as="geometry">
            <mxPoint x="189.25" y="422.34000000000003" as="sourcePoint" />
            <mxPoint x="310.1768747098163" y="385.1741140122077" as="targetPoint" />
          </mxGeometry>
        </mxCell>
        <mxCell id="rBiiECS7z7tVnE24ZR0C-35" value="" style="endArrow=open;endSize=12;html=1;rounded=0;strokeColor=default;dashed=1;entryX=0.097;entryY=0.149;entryDx=0;entryDy=0;entryPerimeter=0;exitX=0.98;exitY=0.631;exitDx=0;exitDy=0;exitPerimeter=0;" parent="rBiiECS7z7tVnE24ZR0C-1" source="rBiiECS7z7tVnE24ZR0C-10" target="rBiiECS7z7tVnE24ZR0C-2" edge="1">
          <mxGeometry width="160" relative="1" as="geometry">
            <mxPoint x="190" y="455" as="sourcePoint" />
            <mxPoint x="311.9292771430736" y="469.8394747452222" as="targetPoint" />
            <Array as="points" />
          </mxGeometry>
        </mxCell>
        <mxCell id="rBiiECS7z7tVnE24ZR0C-39" value="&amp;lt;&amp;lt;&lt;i&gt;Include&lt;/i&gt;&amp;gt;&amp;gt;" style="edgeLabel;html=1;align=center;verticalAlign=middle;resizable=0;points=[];" parent="rBiiECS7z7tVnE24ZR0C-35" vertex="1" connectable="0">
          <mxGeometry x="-0.1768" relative="1" as="geometry">
            <mxPoint as="offset" />
          </mxGeometry>
        </mxCell>
        <mxCell id="rBiiECS7z7tVnE24ZR0C-38" value="" style="endArrow=open;endSize=12;html=1;rounded=0;strokeColor=default;dashed=1;exitX=1;exitY=0.5;exitDx=0;exitDy=0;entryX=0.033;entryY=0.311;entryDx=0;entryDy=0;entryPerimeter=0;" parent="rBiiECS7z7tVnE24ZR0C-1" source="rBiiECS7z7tVnE24ZR0C-11" target="rBiiECS7z7tVnE24ZR0C-2" edge="1">
          <mxGeometry width="160" relative="1" as="geometry">
            <mxPoint x="501.5799999999999" y="517.6600000000001" as="sourcePoint" />
            <mxPoint x="440.1299999999999" y="551.04" as="targetPoint" />
            <Array as="points" />
          </mxGeometry>
        </mxCell>
        <mxCell id="rBiiECS7z7tVnE24ZR0C-40" value="&amp;lt;&amp;lt;&lt;i&gt;Include&lt;/i&gt;&amp;gt;&amp;gt;" style="edgeLabel;html=1;align=center;verticalAlign=middle;resizable=0;points=[];" parent="rBiiECS7z7tVnE24ZR0C-38" vertex="1" connectable="0">
          <mxGeometry x="0.1505" y="1" relative="1" as="geometry">
            <mxPoint as="offset" />
          </mxGeometry>
        </mxCell>
        <mxCell id="rBiiECS7z7tVnE24ZR0C-41" value="" style="endArrow=open;endSize=12;html=1;rounded=0;strokeColor=default;exitX=1;exitY=0.3333333333333333;exitDx=0;exitDy=0;exitPerimeter=0;" parent="rBiiECS7z7tVnE24ZR0C-1" source="rBiiECS7z7tVnE24ZR0C-5" target="rBiiECS7z7tVnE24ZR0C-10" edge="1">
          <mxGeometry width="160" relative="1" as="geometry">
            <mxPoint x="180" y="410" as="sourcePoint" />
            <mxPoint x="323.6804954207962" y="451.0879499927206" as="targetPoint" />
          </mxGeometry>
        </mxCell>
        <mxCell id="rBiiECS7z7tVnE24ZR0C-42" value="" style="endArrow=open;endSize=12;html=1;rounded=0;strokeColor=default;exitX=1;exitY=0.3333333333333333;exitDx=0;exitDy=0;exitPerimeter=0;entryX=0;entryY=0.5;entryDx=0;entryDy=0;" parent="rBiiECS7z7tVnE24ZR0C-1" source="rBiiECS7z7tVnE24ZR0C-5" target="rBiiECS7z7tVnE24ZR0C-11" edge="1">
          <mxGeometry width="160" relative="1" as="geometry">
            <mxPoint x="190" y="422" as="sourcePoint" />
            <mxPoint x="480.3029112988047" y="408.2525308060557" as="targetPoint" />
          </mxGeometry>
        </mxCell>
        <mxCell id="rBiiECS7z7tVnE24ZR0C-45" value="Membuat akun" style="ellipse;whiteSpace=wrap;html=1;" parent="rBiiECS7z7tVnE24ZR0C-1" vertex="1">
          <mxGeometry x="320" y="210" width="80" height="40" as="geometry" />
        </mxCell>
        <mxCell id="rBiiECS7z7tVnE24ZR0C-46" value="" style="endArrow=open;endSize=12;html=1;rounded=0;strokeColor=default;entryX=0.312;entryY=0.958;entryDx=0;entryDy=0;entryPerimeter=0;exitX=0.993;exitY=0.334;exitDx=0;exitDy=0;exitPerimeter=0;" parent="rBiiECS7z7tVnE24ZR0C-1" source="rBiiECS7z7tVnE24ZR0C-5" target="rBiiECS7z7tVnE24ZR0C-45" edge="1">
          <mxGeometry width="160" relative="1" as="geometry">
            <mxPoint x="180" y="410" as="sourcePoint" />
            <mxPoint x="437.315469391648" y="315.44017773017674" as="targetPoint" />
          </mxGeometry>
        </mxCell>
        <mxCell id="rBiiECS7z7tVnE24ZR0C-48" value="Mengonfirmasi via&amp;nbsp;&lt;i&gt;Whatsapp&lt;/i&gt;" style="ellipse;whiteSpace=wrap;html=1;" parent="rBiiECS7z7tVnE24ZR0C-1" vertex="1">
          <mxGeometry x="120" y="490" width="110" height="55" as="geometry" />
        </mxCell>
        <mxCell id="rBiiECS7z7tVnE24ZR0C-49" value="" style="endArrow=open;endSize=12;html=1;rounded=0;strokeColor=default;exitX=0.909;exitY=0.218;exitDx=0;exitDy=0;exitPerimeter=0;dashed=1;entryX=0;entryY=1;entryDx=0;entryDy=0;" parent="rBiiECS7z7tVnE24ZR0C-1" source="rBiiECS7z7tVnE24ZR0C-48" target="g7E0sXzwXidlEMDf1RpI-0" edge="1">
          <mxGeometry width="160" relative="1" as="geometry">
            <mxPoint x="509.95000000000005" y="448.9799999999999" as="sourcePoint" />
            <mxPoint x="497.9200000000001" y="513.9250000000001" as="targetPoint" />
          </mxGeometry>
        </mxCell>
        <mxCell id="rBiiECS7z7tVnE24ZR0C-73" value="&amp;lt;&amp;lt;&lt;i&gt;Include&lt;/i&gt;&amp;gt;&amp;gt;" style="edgeLabel;html=1;align=center;verticalAlign=middle;resizable=0;points=[];" parent="rBiiECS7z7tVnE24ZR0C-49" vertex="1" connectable="0">
          <mxGeometry x="0.133" y="-1" relative="1" as="geometry">
            <mxPoint as="offset" />
          </mxGeometry>
        </mxCell>
        <mxCell id="rBiiECS7z7tVnE24ZR0C-53" value="Mengelola Data Transaksi" style="ellipse;whiteSpace=wrap;html=1;" parent="rBiiECS7z7tVnE24ZR0C-1" vertex="1">
          <mxGeometry x="314" y="500" width="100" height="50" as="geometry" />
        </mxCell>
        <mxCell id="rBiiECS7z7tVnE24ZR0C-59" value="" style="endArrow=open;endSize=12;html=1;rounded=0;strokeColor=default;dashed=1;entryX=0;entryY=1;entryDx=0;entryDy=0;" parent="rBiiECS7z7tVnE24ZR0C-1" source="rBiiECS7z7tVnE24ZR0C-53" target="rBiiECS7z7tVnE24ZR0C-2" edge="1">
          <mxGeometry width="160" relative="1" as="geometry">
            <mxPoint x="420" y="497.5" as="sourcePoint" />
            <mxPoint x="603.96" y="446.56500000000005" as="targetPoint" />
            <Array as="points" />
          </mxGeometry>
        </mxCell>
        <mxCell id="rBiiECS7z7tVnE24ZR0C-60" value="&amp;lt;&amp;lt;&lt;i&gt;Include&lt;/i&gt;&amp;gt;&amp;gt;" style="edgeLabel;html=1;align=center;verticalAlign=middle;resizable=0;points=[];" parent="rBiiECS7z7tVnE24ZR0C-59" vertex="1" connectable="0">
          <mxGeometry x="0.1505" y="1" relative="1" as="geometry">
            <mxPoint as="offset" />
          </mxGeometry>
        </mxCell>
        <mxCell id="rBiiECS7z7tVnE24ZR0C-62" value="" style="endArrow=open;endSize=12;html=1;rounded=0;strokeColor=default;dashed=1;entryX=0.895;entryY=0.828;entryDx=0;entryDy=0;entryPerimeter=0;" parent="rBiiECS7z7tVnE24ZR0C-1" source="rBiiECS7z7tVnE24ZR0C-57" target="rBiiECS7z7tVnE24ZR0C-53" edge="1">
          <mxGeometry width="160" relative="1" as="geometry">
            <mxPoint x="190" y="422" as="sourcePoint" />
            <mxPoint x="322.76" y="480.44999999999993" as="targetPoint" />
          </mxGeometry>
        </mxCell>
        <mxCell id="rBiiECS7z7tVnE24ZR0C-70" value="&amp;lt;&amp;lt;&lt;i&gt;Include&lt;/i&gt;&amp;gt;&amp;gt;" style="edgeLabel;html=1;align=center;verticalAlign=middle;resizable=0;points=[];" parent="rBiiECS7z7tVnE24ZR0C-62" vertex="1" connectable="0">
          <mxGeometry x="-0.339" y="-1" relative="1" as="geometry">
            <mxPoint as="offset" />
          </mxGeometry>
        </mxCell>
        <mxCell id="rBiiECS7z7tVnE24ZR0C-65" value="Melihat Laporan" style="ellipse;whiteSpace=wrap;html=1;" parent="rBiiECS7z7tVnE24ZR0C-1" vertex="1">
          <mxGeometry x="380" y="560" width="100" height="50" as="geometry" />
        </mxCell>
        <mxCell id="rBiiECS7z7tVnE24ZR0C-66" value="" style="endArrow=open;endSize=12;html=1;rounded=0;strokeColor=default;exitX=1;exitY=0.3333333333333333;exitDx=0;exitDy=0;exitPerimeter=0;" parent="rBiiECS7z7tVnE24ZR0C-1" source="rBiiECS7z7tVnE24ZR0C-3" target="rBiiECS7z7tVnE24ZR0C-53" edge="1">
          <mxGeometry width="160" relative="1" as="geometry">
            <mxPoint x="600" y="580" as="sourcePoint" />
            <mxPoint x="432.2149863079119" y="637.3955231580179" as="targetPoint" />
          </mxGeometry>
        </mxCell>
        <mxCell id="rBiiECS7z7tVnE24ZR0C-67" value="" style="endArrow=open;endSize=12;html=1;rounded=0;strokeColor=default;dashed=1;entryX=0;entryY=1;entryDx=0;entryDy=0;exitX=0.954;exitY=0.301;exitDx=0;exitDy=0;exitPerimeter=0;" parent="rBiiECS7z7tVnE24ZR0C-1" source="rBiiECS7z7tVnE24ZR0C-65" target="rBiiECS7z7tVnE24ZR0C-2" edge="1">
          <mxGeometry width="160" relative="1" as="geometry">
            <mxPoint x="427.78999999999996" y="634.34" as="sourcePoint" />
            <mxPoint x="613.180194846603" y="455.40990257669864" as="targetPoint" />
            <Array as="points" />
          </mxGeometry>
        </mxCell>
        <mxCell id="rBiiECS7z7tVnE24ZR0C-68" value="&amp;lt;&amp;lt;&lt;i&gt;Include&lt;/i&gt;&amp;gt;&amp;gt;" style="edgeLabel;html=1;align=center;verticalAlign=middle;resizable=0;points=[];" parent="rBiiECS7z7tVnE24ZR0C-67" vertex="1" connectable="0">
          <mxGeometry x="0.1505" y="1" relative="1" as="geometry">
            <mxPoint as="offset" />
          </mxGeometry>
        </mxCell>
        <mxCell id="rBiiECS7z7tVnE24ZR0C-71" value="Admin" style="shape=umlActor;verticalLabelPosition=bottom;verticalAlign=top;html=1;" parent="rBiiECS7z7tVnE24ZR0C-1" vertex="1">
          <mxGeometry x="140" y="690" width="30" height="60" as="geometry" />
        </mxCell>
        <mxCell id="rBiiECS7z7tVnE24ZR0C-74" value="Mengelola Data Blog" style="ellipse;whiteSpace=wrap;html=1;" parent="rBiiECS7z7tVnE24ZR0C-1" vertex="1">
          <mxGeometry x="400" y="817" width="80" height="40" as="geometry" />
        </mxCell>
        <mxCell id="rBiiECS7z7tVnE24ZR0C-75" value="Mengelola Data Admin dan Kasir" style="ellipse;whiteSpace=wrap;html=1;" parent="rBiiECS7z7tVnE24ZR0C-1" vertex="1">
          <mxGeometry x="390" y="620" width="100" height="50" as="geometry" />
        </mxCell>
        <mxCell id="rBiiECS7z7tVnE24ZR0C-76" value="Mengelola Data Produk" style="ellipse;whiteSpace=wrap;html=1;" parent="rBiiECS7z7tVnE24ZR0C-1" vertex="1">
          <mxGeometry x="390" y="747" width="100" height="50" as="geometry" />
        </mxCell>
        <mxCell id="rBiiECS7z7tVnE24ZR0C-77" value="" style="endArrow=open;endSize=12;html=1;rounded=0;strokeColor=default;exitX=1;exitY=0.3333333333333333;exitDx=0;exitDy=0;exitPerimeter=0;entryX=0.34;entryY=1.01;entryDx=0;entryDy=0;entryPerimeter=0;" parent="rBiiECS7z7tVnE24ZR0C-1" source="rBiiECS7z7tVnE24ZR0C-71" target="rBiiECS7z7tVnE24ZR0C-53" edge="1">
          <mxGeometry width="160" relative="1" as="geometry">
            <mxPoint x="180" y="600" as="sourcePoint" />
            <mxPoint x="390" y="470" as="targetPoint" />
          </mxGeometry>
        </mxCell>
        <mxCell id="rBiiECS7z7tVnE24ZR0C-78" value="" style="endArrow=open;endSize=12;html=1;rounded=0;strokeColor=default;exitX=1;exitY=0.3333333333333333;exitDx=0;exitDy=0;exitPerimeter=0;entryX=0.059;entryY=0.749;entryDx=0;entryDy=0;entryPerimeter=0;" parent="rBiiECS7z7tVnE24ZR0C-1" source="rBiiECS7z7tVnE24ZR0C-71" target="rBiiECS7z7tVnE24ZR0C-65" edge="1">
          <mxGeometry width="160" relative="1" as="geometry">
            <mxPoint x="180" y="720" as="sourcePoint" />
            <mxPoint x="400" y="480" as="targetPoint" />
          </mxGeometry>
        </mxCell>
        <mxCell id="rBiiECS7z7tVnE24ZR0C-79" value="" style="endArrow=open;endSize=12;html=1;rounded=0;strokeColor=default;exitX=1;exitY=0.3333333333333333;exitDx=0;exitDy=0;exitPerimeter=0;entryX=0;entryY=0.5;entryDx=0;entryDy=0;" parent="rBiiECS7z7tVnE24ZR0C-1" source="rBiiECS7z7tVnE24ZR0C-71" target="rBiiECS7z7tVnE24ZR0C-75" edge="1">
          <mxGeometry width="160" relative="1" as="geometry">
            <mxPoint x="180" y="720" as="sourcePoint" />
            <mxPoint x="345.9" y="622.45" as="targetPoint" />
          </mxGeometry>
        </mxCell>
        <mxCell id="rBiiECS7z7tVnE24ZR0C-80" value="" style="endArrow=open;endSize=12;html=1;rounded=0;strokeColor=default;exitX=1;exitY=0.3333333333333333;exitDx=0;exitDy=0;exitPerimeter=0;entryX=0;entryY=0;entryDx=0;entryDy=0;" parent="rBiiECS7z7tVnE24ZR0C-1" source="rBiiECS7z7tVnE24ZR0C-71" target="rBiiECS7z7tVnE24ZR0C-74" edge="1">
          <mxGeometry width="160" relative="1" as="geometry">
            <mxPoint x="180" y="720" as="sourcePoint" />
            <mxPoint x="424" y="665" as="targetPoint" />
          </mxGeometry>
        </mxCell>
        <mxCell id="rBiiECS7z7tVnE24ZR0C-81" value="" style="endArrow=open;endSize=12;html=1;rounded=0;strokeColor=default;" parent="rBiiECS7z7tVnE24ZR0C-1" target="rBiiECS7z7tVnE24ZR0C-76" edge="1">
          <mxGeometry width="160" relative="1" as="geometry">
            <mxPoint x="170" y="710" as="sourcePoint" />
            <mxPoint x="404.47590326762156" y="712.4071139992029" as="targetPoint" />
          </mxGeometry>
        </mxCell>
        <mxCell id="rBiiECS7z7tVnE24ZR0C-57" value="Mencetak Bukti Transaksi" style="ellipse;whiteSpace=wrap;html=1;" parent="rBiiECS7z7tVnE24ZR0C-1" vertex="1">
          <mxGeometry x="470" y="494" width="94" height="47" as="geometry" />
        </mxCell>
        <mxCell id="rBiiECS7z7tVnE24ZR0C-83" value="" style="endArrow=open;endSize=12;html=1;rounded=0;strokeColor=default;exitX=1;exitY=0.3333333333333333;exitDx=0;exitDy=0;exitPerimeter=0;" parent="rBiiECS7z7tVnE24ZR0C-1" source="rBiiECS7z7tVnE24ZR0C-3" target="rBiiECS7z7tVnE24ZR0C-65" edge="1">
          <mxGeometry width="160" relative="1" as="geometry">
            <mxPoint x="180" y="600" as="sourcePoint" />
            <mxPoint x="316.66353813361184" y="523.6325005717862" as="targetPoint" />
          </mxGeometry>
        </mxCell>
        <mxCell id="rBiiECS7z7tVnE24ZR0C-84" value="" style="endArrow=open;endSize=12;html=1;rounded=0;strokeColor=default;dashed=1;entryX=0.281;entryY=0.926;entryDx=0;entryDy=0;exitX=1;exitY=0;exitDx=0;exitDy=0;entryPerimeter=0;" parent="rBiiECS7z7tVnE24ZR0C-1" source="rBiiECS7z7tVnE24ZR0C-75" target="rBiiECS7z7tVnE24ZR0C-2" edge="1">
          <mxGeometry width="160" relative="1" as="geometry">
            <mxPoint x="510.4000000000001" y="595.05" as="sourcePoint" />
            <mxPoint x="613.1801948466054" y="455.4099025766975" as="targetPoint" />
            <Array as="points" />
          </mxGeometry>
        </mxCell>
        <mxCell id="rBiiECS7z7tVnE24ZR0C-85" value="&amp;lt;&amp;lt;&lt;i&gt;Include&lt;/i&gt;&amp;gt;&amp;gt;" style="edgeLabel;html=1;align=center;verticalAlign=middle;resizable=0;points=[];" parent="rBiiECS7z7tVnE24ZR0C-84" vertex="1" connectable="0">
          <mxGeometry x="0.1505" y="1" relative="1" as="geometry">
            <mxPoint as="offset" />
          </mxGeometry>
        </mxCell>
        <mxCell id="rBiiECS7z7tVnE24ZR0C-86" value="" style="endArrow=open;endSize=12;html=1;rounded=0;strokeColor=default;dashed=1;entryX=0.675;entryY=1.038;entryDx=0;entryDy=0;exitX=1;exitY=0;exitDx=0;exitDy=0;entryPerimeter=0;" parent="rBiiECS7z7tVnE24ZR0C-1" source="rBiiECS7z7tVnE24ZR0C-74" target="rBiiECS7z7tVnE24ZR0C-2" edge="1">
          <mxGeometry width="160" relative="1" as="geometry">
            <mxPoint x="524" y="665" as="sourcePoint" />
            <mxPoint x="623.1801948466054" y="465.4099025766975" as="targetPoint" />
            <Array as="points" />
          </mxGeometry>
        </mxCell>
        <mxCell id="rBiiECS7z7tVnE24ZR0C-87" value="&amp;lt;&amp;lt;&lt;i&gt;Include&lt;/i&gt;&amp;gt;&amp;gt;" style="edgeLabel;html=1;align=center;verticalAlign=middle;resizable=0;points=[];" parent="rBiiECS7z7tVnE24ZR0C-86" vertex="1" connectable="0">
          <mxGeometry x="0.1505" y="1" relative="1" as="geometry">
            <mxPoint as="offset" />
          </mxGeometry>
        </mxCell>
        <mxCell id="rBiiECS7z7tVnE24ZR0C-88" value="" style="endArrow=open;endSize=12;html=1;rounded=0;strokeColor=default;dashed=1;entryX=0.5;entryY=1;entryDx=0;entryDy=0;exitX=1;exitY=0.5;exitDx=0;exitDy=0;" parent="rBiiECS7z7tVnE24ZR0C-1" source="rBiiECS7z7tVnE24ZR0C-76" target="rBiiECS7z7tVnE24ZR0C-2" edge="1">
          <mxGeometry width="160" relative="1" as="geometry">
            <mxPoint x="514.9999999999998" y="717.5" as="sourcePoint" />
            <mxPoint x="758.3199999999999" y="478.33500000000004" as="targetPoint" />
            <Array as="points" />
          </mxGeometry>
        </mxCell>
        <mxCell id="rBiiECS7z7tVnE24ZR0C-89" value="&amp;lt;&amp;lt;&lt;i&gt;Include&lt;/i&gt;&amp;gt;&amp;gt;" style="edgeLabel;html=1;align=center;verticalAlign=middle;resizable=0;points=[];" parent="rBiiECS7z7tVnE24ZR0C-88" vertex="1" connectable="0">
          <mxGeometry x="0.1505" y="1" relative="1" as="geometry">
            <mxPoint as="offset" />
          </mxGeometry>
        </mxCell>
        <mxCell id="rBiiECS7z7tVnE24ZR0C-90" value="Mengelola Data Pelanggan" style="ellipse;whiteSpace=wrap;html=1;" parent="rBiiECS7z7tVnE24ZR0C-1" vertex="1">
          <mxGeometry x="390" y="680" width="100" height="50" as="geometry" />
        </mxCell>
        <mxCell id="rBiiECS7z7tVnE24ZR0C-94" value="" style="endArrow=open;endSize=12;html=1;rounded=0;strokeColor=default;dashed=1;exitX=1;exitY=0.5;exitDx=0;exitDy=0;" parent="rBiiECS7z7tVnE24ZR0C-1" source="rBiiECS7z7tVnE24ZR0C-90" target="rBiiECS7z7tVnE24ZR0C-2" edge="1">
          <mxGeometry width="160" relative="1" as="geometry">
            <mxPoint x="510" y="765" as="sourcePoint" />
            <mxPoint x="762.73" y="478.42499999999995" as="targetPoint" />
            <Array as="points" />
          </mxGeometry>
        </mxCell>
        <mxCell id="rBiiECS7z7tVnE24ZR0C-95" value="&amp;lt;&amp;lt;&lt;i&gt;Include&lt;/i&gt;&amp;gt;&amp;gt;" style="edgeLabel;html=1;align=center;verticalAlign=middle;resizable=0;points=[];" parent="rBiiECS7z7tVnE24ZR0C-94" vertex="1" connectable="0">
          <mxGeometry x="0.1505" y="1" relative="1" as="geometry">
            <mxPoint as="offset" />
          </mxGeometry>
        </mxCell>
        <mxCell id="6-1zTbqOGNAhqkhPrihs-5" value="" style="endArrow=open;endSize=12;html=1;rounded=0;strokeColor=default;entryX=0;entryY=0.5;entryDx=0;entryDy=0;" parent="rBiiECS7z7tVnE24ZR0C-1" target="rBiiECS7z7tVnE24ZR0C-90" edge="1">
          <mxGeometry width="160" relative="1" as="geometry">
            <mxPoint x="170" y="710" as="sourcePoint" />
            <mxPoint x="400" y="655" as="targetPoint" />
          </mxGeometry>
        </mxCell>
        <mxCell id="g7E0sXzwXidlEMDf1RpI-0" value="Mengelola Data Pembayaran" style="ellipse;whiteSpace=wrap;html=1;" parent="rBiiECS7z7tVnE24ZR0C-1" vertex="1">
          <mxGeometry x="410" y="420" width="100" height="50" as="geometry" />
        </mxCell>
        <mxCell id="g7E0sXzwXidlEMDf1RpI-2" value="" style="endArrow=open;endSize=12;html=1;rounded=0;strokeColor=default;entryX=0;entryY=0.5;entryDx=0;entryDy=0;exitX=1;exitY=0.3333333333333333;exitDx=0;exitDy=0;exitPerimeter=0;" parent="rBiiECS7z7tVnE24ZR0C-1" source="rBiiECS7z7tVnE24ZR0C-5" target="g7E0sXzwXidlEMDf1RpI-0" edge="1">
          <mxGeometry width="160" relative="1" as="geometry">
            <mxPoint x="180" y="410" as="sourcePoint" />
            <mxPoint x="354.96000000000004" y="258.32000000000005" as="targetPoint" />
          </mxGeometry>
        </mxCell>
        <mxCell id="g7E0sXzwXidlEMDf1RpI-4" value="" style="endArrow=open;endSize=12;html=1;rounded=0;strokeColor=default;dashed=1;entryX=0;entryY=0.5;entryDx=0;entryDy=0;exitX=1;exitY=0.5;exitDx=0;exitDy=0;" parent="rBiiECS7z7tVnE24ZR0C-1" source="g7E0sXzwXidlEMDf1RpI-0" target="rBiiECS7z7tVnE24ZR0C-2" edge="1">
          <mxGeometry width="160" relative="1" as="geometry">
            <mxPoint x="550" y="319.99999999999994" as="sourcePoint" />
            <mxPoint x="730.73" y="400.15500000000003" as="targetPoint" />
            <Array as="points" />
          </mxGeometry>
        </mxCell>
        <mxCell id="g7E0sXzwXidlEMDf1RpI-5" value="&amp;lt;&amp;lt;&lt;i&gt;Include&lt;/i&gt;&amp;gt;&amp;gt;" style="edgeLabel;html=1;align=center;verticalAlign=middle;resizable=0;points=[];" parent="g7E0sXzwXidlEMDf1RpI-4" vertex="1" connectable="0">
          <mxGeometry x="-0.1768" relative="1" as="geometry">
            <mxPoint as="offset" />
          </mxGeometry>
        </mxCell>
      </root>
    </mxGraphModel>
  </diagram>
  <diagram id="v6UqELGrU9g84Zir3722" name="Melihat Laporan">
    <mxGraphModel dx="868" dy="472" grid="1" gridSize="10" guides="1" tooltips="1" connect="1" arrows="1" fold="1" page="1" pageScale="1" pageWidth="850" pageHeight="1100" math="0" shadow="0">
      <root>
        <mxCell id="un0A6GSOPfImpLD6TJl8-0" />
        <mxCell id="un0A6GSOPfImpLD6TJl8-1" parent="un0A6GSOPfImpLD6TJl8-0" />
        <mxCell id="un0A6GSOPfImpLD6TJl8-2" value="Melihat Laporan" style="swimlane;childLayout=stackLayout;resizeParent=1;resizeParentMax=0;startSize=20;fontSize=11;" parent="un0A6GSOPfImpLD6TJl8-1" vertex="1">
          <mxGeometry x="180" y="40" width="460" height="550" as="geometry" />
        </mxCell>
        <mxCell id="un0A6GSOPfImpLD6TJl8-3" value="Admin" style="swimlane;startSize=20;fontSize=11;" parent="un0A6GSOPfImpLD6TJl8-2" vertex="1">
          <mxGeometry y="20" width="170" height="530" as="geometry" />
        </mxCell>
        <mxCell id="lN7Rc28YmzoVXG30P-OV-11" style="edgeStyle=orthogonalEdgeStyle;rounded=0;orthogonalLoop=1;jettySize=auto;html=1;entryX=0.5;entryY=0;entryDx=0;entryDy=0;" parent="un0A6GSOPfImpLD6TJl8-3" source="un0A6GSOPfImpLD6TJl8-6" target="lN7Rc28YmzoVXG30P-OV-1" edge="1">
          <mxGeometry relative="1" as="geometry" />
        </mxCell>
        <mxCell id="un0A6GSOPfImpLD6TJl8-6" value="" style="ellipse;html=1;shape=endState;fillColor=#000000;strokeColor=#000000;strokeWidth=4;" parent="un0A6GSOPfImpLD6TJl8-3" vertex="1">
          <mxGeometry x="70" y="40" width="30" height="30" as="geometry" />
        </mxCell>
        <mxCell id="lN7Rc28YmzoVXG30P-OV-1" value="&lt;font style=&quot;font-size: 11px&quot;&gt;Masukan Username dan Password&lt;/font&gt;" style="rounded=1;whiteSpace=wrap;html=1;" parent="un0A6GSOPfImpLD6TJl8-3" vertex="1">
          <mxGeometry x="36.25" y="100" width="97.5" height="60" as="geometry" />
        </mxCell>
        <mxCell id="lN7Rc28YmzoVXG30P-OV-19" value="&lt;font style=&quot;font-size: 11px&quot;&gt;Masuk ke Menu Laporan&lt;/font&gt;" style="rounded=1;whiteSpace=wrap;html=1;" parent="un0A6GSOPfImpLD6TJl8-3" vertex="1">
          <mxGeometry x="40" y="210" width="110" height="40" as="geometry" />
        </mxCell>
        <mxCell id="BDmUkL3HyEbuv1y_MNyB-0" value="&lt;font style=&quot;font-size: 11px&quot;&gt;Mengisi Tanggal pada Form Laporan&lt;/font&gt;" style="rounded=1;whiteSpace=wrap;html=1;" parent="un0A6GSOPfImpLD6TJl8-3" vertex="1">
          <mxGeometry x="35" y="360" width="120" height="50" as="geometry" />
        </mxCell>
        <mxCell id="un0A6GSOPfImpLD6TJl8-4" value="Sistem" style="swimlane;startSize=20;fontSize=11;" parent="un0A6GSOPfImpLD6TJl8-2" vertex="1">
          <mxGeometry x="170" y="20" width="160" height="530" as="geometry" />
        </mxCell>
        <mxCell id="lN7Rc28YmzoVXG30P-OV-3" value="&lt;font style=&quot;font-size: 11px&quot;&gt;Memperoses Username dan Password&amp;nbsp;&amp;nbsp;&lt;/font&gt;" style="rounded=1;whiteSpace=wrap;html=1;" parent="un0A6GSOPfImpLD6TJl8-4" vertex="1">
          <mxGeometry x="30" y="110" width="110" height="40" as="geometry" />
        </mxCell>
        <mxCell id="lN7Rc28YmzoVXG30P-OV-0" value="&lt;font style=&quot;font-size: 11px&quot;&gt;Menampilkan Beranda&lt;/font&gt;" style="rounded=1;whiteSpace=wrap;html=1;" parent="un0A6GSOPfImpLD6TJl8-4" vertex="1">
          <mxGeometry x="30" y="215" width="100" height="30" as="geometry" />
        </mxCell>
        <mxCell id="lN7Rc28YmzoVXG30P-OV-21" value="&lt;font style=&quot;font-size: 11px&quot;&gt;Menampilkan Form Laporan&lt;/font&gt;" style="rounded=1;whiteSpace=wrap;html=1;" parent="un0A6GSOPfImpLD6TJl8-4" vertex="1">
          <mxGeometry x="20" y="270" width="120" height="50" as="geometry" />
        </mxCell>
        <mxCell id="BDmUkL3HyEbuv1y_MNyB-3" value="&lt;font style=&quot;font-size: 11px&quot;&gt;Menampilakan Tampilan Laporan Berdasarkan input Tanggal&lt;/font&gt;" style="rounded=1;whiteSpace=wrap;html=1;" parent="un0A6GSOPfImpLD6TJl8-4" vertex="1">
          <mxGeometry x="25" y="350" width="120" height="70" as="geometry" />
        </mxCell>
        <mxCell id="BDmUkL3HyEbuv1y_MNyB-9" value="" style="ellipse;html=1;shape=endState;fillColor=#000000;strokeColor=#000000;" parent="un0A6GSOPfImpLD6TJl8-4" vertex="1">
          <mxGeometry x="70" y="470" width="30" height="30" as="geometry" />
        </mxCell>
        <mxCell id="BDmUkL3HyEbuv1y_MNyB-10" style="edgeStyle=orthogonalEdgeStyle;rounded=0;orthogonalLoop=1;jettySize=auto;html=1;entryX=0.5;entryY=0;entryDx=0;entryDy=0;" parent="un0A6GSOPfImpLD6TJl8-4" source="BDmUkL3HyEbuv1y_MNyB-3" target="BDmUkL3HyEbuv1y_MNyB-9" edge="1">
          <mxGeometry relative="1" as="geometry">
            <mxPoint x="85" y="450" as="targetPoint" />
          </mxGeometry>
        </mxCell>
        <mxCell id="un0A6GSOPfImpLD6TJl8-5" value="Database" style="swimlane;startSize=20;fontSize=11;" parent="un0A6GSOPfImpLD6TJl8-2" vertex="1">
          <mxGeometry x="330" y="20" width="130" height="530" as="geometry" />
        </mxCell>
        <mxCell id="lN7Rc28YmzoVXG30P-OV-7" value="" style="rhombus;whiteSpace=wrap;html=1;" parent="un0A6GSOPfImpLD6TJl8-5" vertex="1">
          <mxGeometry x="37" y="160" width="56" height="50" as="geometry" />
        </mxCell>
        <mxCell id="lN7Rc28YmzoVXG30P-OV-15" value="&lt;font style=&quot;font-size: 10px&quot;&gt;Validasi&lt;/font&gt;" style="text;html=1;align=center;verticalAlign=middle;resizable=0;points=[];autosize=1;strokeColor=none;fillColor=none;" parent="un0A6GSOPfImpLD6TJl8-5" vertex="1">
          <mxGeometry x="75" y="190" width="50" height="20" as="geometry" />
        </mxCell>
        <mxCell id="lN7Rc28YmzoVXG30P-OV-8" style="edgeStyle=orthogonalEdgeStyle;rounded=0;orthogonalLoop=1;jettySize=auto;html=1;entryX=0.5;entryY=0;entryDx=0;entryDy=0;" parent="un0A6GSOPfImpLD6TJl8-2" source="lN7Rc28YmzoVXG30P-OV-3" target="lN7Rc28YmzoVXG30P-OV-7" edge="1">
          <mxGeometry relative="1" as="geometry" />
        </mxCell>
        <mxCell id="lN7Rc28YmzoVXG30P-OV-10" style="edgeStyle=orthogonalEdgeStyle;rounded=0;orthogonalLoop=1;jettySize=auto;html=1;entryX=0;entryY=0.5;entryDx=0;entryDy=0;" parent="un0A6GSOPfImpLD6TJl8-2" source="lN7Rc28YmzoVXG30P-OV-1" target="lN7Rc28YmzoVXG30P-OV-3" edge="1">
          <mxGeometry relative="1" as="geometry" />
        </mxCell>
        <mxCell id="lN7Rc28YmzoVXG30P-OV-13" style="edgeStyle=orthogonalEdgeStyle;rounded=0;orthogonalLoop=1;jettySize=auto;html=1;entryX=1;entryY=0.5;entryDx=0;entryDy=0;" parent="un0A6GSOPfImpLD6TJl8-2" source="lN7Rc28YmzoVXG30P-OV-7" target="lN7Rc28YmzoVXG30P-OV-0" edge="1">
          <mxGeometry relative="1" as="geometry">
            <Array as="points">
              <mxPoint x="395" y="250" />
            </Array>
          </mxGeometry>
        </mxCell>
        <mxCell id="lN7Rc28YmzoVXG30P-OV-14" value="Ya" style="edgeLabel;html=1;align=center;verticalAlign=middle;resizable=0;points=[];" parent="lN7Rc28YmzoVXG30P-OV-13" vertex="1" connectable="0">
          <mxGeometry x="-0.0545" y="1" relative="1" as="geometry">
            <mxPoint as="offset" />
          </mxGeometry>
        </mxCell>
        <mxCell id="lN7Rc28YmzoVXG30P-OV-16" style="edgeStyle=orthogonalEdgeStyle;rounded=0;orthogonalLoop=1;jettySize=auto;html=1;entryX=0.5;entryY=1;entryDx=0;entryDy=0;fontSize=10;" parent="un0A6GSOPfImpLD6TJl8-2" source="lN7Rc28YmzoVXG30P-OV-7" target="lN7Rc28YmzoVXG30P-OV-1" edge="1">
          <mxGeometry relative="1" as="geometry" />
        </mxCell>
        <mxCell id="lN7Rc28YmzoVXG30P-OV-17" value="Tidak" style="edgeLabel;html=1;align=center;verticalAlign=middle;resizable=0;points=[];fontSize=10;" parent="lN7Rc28YmzoVXG30P-OV-16" vertex="1" connectable="0">
          <mxGeometry x="-0.1857" y="-2" relative="1" as="geometry">
            <mxPoint as="offset" />
          </mxGeometry>
        </mxCell>
        <mxCell id="lN7Rc28YmzoVXG30P-OV-20" style="edgeStyle=orthogonalEdgeStyle;rounded=0;orthogonalLoop=1;jettySize=auto;html=1;fontSize=10;entryX=0;entryY=0.5;entryDx=0;entryDy=0;" parent="un0A6GSOPfImpLD6TJl8-2" source="lN7Rc28YmzoVXG30P-OV-19" target="lN7Rc28YmzoVXG30P-OV-21" edge="1">
          <mxGeometry relative="1" as="geometry">
            <mxPoint x="95" y="320" as="targetPoint" />
            <Array as="points">
              <mxPoint x="95" y="315" />
            </Array>
          </mxGeometry>
        </mxCell>
        <mxCell id="BDmUkL3HyEbuv1y_MNyB-2" style="edgeStyle=orthogonalEdgeStyle;rounded=0;orthogonalLoop=1;jettySize=auto;html=1;exitX=0.5;exitY=1;exitDx=0;exitDy=0;" parent="un0A6GSOPfImpLD6TJl8-2" source="lN7Rc28YmzoVXG30P-OV-21" target="BDmUkL3HyEbuv1y_MNyB-0" edge="1">
          <mxGeometry relative="1" as="geometry">
            <Array as="points">
              <mxPoint x="250" y="350" />
              <mxPoint x="95" y="350" />
            </Array>
          </mxGeometry>
        </mxCell>
        <mxCell id="BDmUkL3HyEbuv1y_MNyB-8" style="edgeStyle=orthogonalEdgeStyle;rounded=0;orthogonalLoop=1;jettySize=auto;html=1;entryX=0;entryY=0.5;entryDx=0;entryDy=0;" parent="un0A6GSOPfImpLD6TJl8-2" source="BDmUkL3HyEbuv1y_MNyB-0" target="BDmUkL3HyEbuv1y_MNyB-3" edge="1">
          <mxGeometry relative="1" as="geometry" />
        </mxCell>
        <mxCell id="BDmUkL3HyEbuv1y_MNyB-11" style="edgeStyle=orthogonalEdgeStyle;rounded=0;orthogonalLoop=1;jettySize=auto;html=1;entryX=1;entryY=0.5;entryDx=0;entryDy=0;" parent="un0A6GSOPfImpLD6TJl8-2" source="lN7Rc28YmzoVXG30P-OV-0" target="lN7Rc28YmzoVXG30P-OV-19" edge="1">
          <mxGeometry relative="1" as="geometry" />
        </mxCell>
      </root>
    </mxGraphModel>
  </diagram>
  <diagram id="6J_BcbCmLijFwanlzEG_" name="Mengelola Data Pelanggan">
    <mxGraphModel dx="868" dy="472" grid="1" gridSize="10" guides="1" tooltips="1" connect="1" arrows="1" fold="1" page="1" pageScale="1" pageWidth="850" pageHeight="1100" math="0" shadow="0">
      <root>
        <mxCell id="kbh4lL8MDkKRwIiwtFab-0" />
        <mxCell id="kbh4lL8MDkKRwIiwtFab-1" parent="kbh4lL8MDkKRwIiwtFab-0" />
        <mxCell id="kbh4lL8MDkKRwIiwtFab-2" value="Mengelola Data Pelanggan" style="swimlane;childLayout=stackLayout;resizeParent=1;resizeParentMax=0;startSize=20;fontSize=11;" parent="kbh4lL8MDkKRwIiwtFab-1" vertex="1">
          <mxGeometry x="220" y="100" width="460" height="480" as="geometry" />
        </mxCell>
        <mxCell id="kbh4lL8MDkKRwIiwtFab-3" value="Petugas" style="swimlane;startSize=20;fontSize=11;" parent="kbh4lL8MDkKRwIiwtFab-2" vertex="1">
          <mxGeometry y="20" width="150" height="460" as="geometry" />
        </mxCell>
        <mxCell id="kbh4lL8MDkKRwIiwtFab-12" style="edgeStyle=orthogonalEdgeStyle;rounded=0;orthogonalLoop=1;jettySize=auto;html=1;" parent="kbh4lL8MDkKRwIiwtFab-3" source="kbh4lL8MDkKRwIiwtFab-10" target="kbh4lL8MDkKRwIiwtFab-11" edge="1">
          <mxGeometry relative="1" as="geometry" />
        </mxCell>
        <mxCell id="kbh4lL8MDkKRwIiwtFab-10" value="" style="ellipse;html=1;shape=endState;fillColor=#000000;strokeColor=#000000;strokeWidth=4;" parent="kbh4lL8MDkKRwIiwtFab-3" vertex="1">
          <mxGeometry x="60" y="30" width="30" height="30" as="geometry" />
        </mxCell>
        <mxCell id="kbh4lL8MDkKRwIiwtFab-11" value="&lt;font style=&quot;font-size: 11px&quot;&gt;Masukan Username dan Password&lt;/font&gt;" style="rounded=1;whiteSpace=wrap;html=1;strokeColor=#000000;strokeWidth=1;" parent="kbh4lL8MDkKRwIiwtFab-3" vertex="1">
          <mxGeometry x="30" y="90" width="90" height="50" as="geometry" />
        </mxCell>
        <mxCell id="kbh4lL8MDkKRwIiwtFab-23" value="&lt;font style=&quot;font-size: 11px&quot;&gt;Masuk ke Menu Data Pelanggan&lt;/font&gt;" style="rounded=1;whiteSpace=wrap;html=1;strokeColor=#000000;strokeWidth=1;" parent="kbh4lL8MDkKRwIiwtFab-3" vertex="1">
          <mxGeometry x="30" y="180" width="90" height="50" as="geometry" />
        </mxCell>
        <mxCell id="kbh4lL8MDkKRwIiwtFab-4" value="Sistem" style="swimlane;startSize=20;fontSize=11;" parent="kbh4lL8MDkKRwIiwtFab-2" vertex="1">
          <mxGeometry x="150" y="20" width="170" height="460" as="geometry" />
        </mxCell>
        <mxCell id="kbh4lL8MDkKRwIiwtFab-13" value="&lt;font style=&quot;font-size: 11px&quot;&gt;Memperoses Username dan Password&lt;/font&gt;" style="rounded=1;whiteSpace=wrap;html=1;strokeColor=#000000;strokeWidth=1;" parent="kbh4lL8MDkKRwIiwtFab-4" vertex="1">
          <mxGeometry x="22.5" y="95" width="125" height="40" as="geometry" />
        </mxCell>
        <mxCell id="kbh4lL8MDkKRwIiwtFab-15" value="&lt;font style=&quot;font-size: 11px&quot;&gt;Memperoses Username dan Password&lt;/font&gt;" style="rounded=1;whiteSpace=wrap;html=1;strokeColor=#000000;strokeWidth=1;" parent="kbh4lL8MDkKRwIiwtFab-4" vertex="1">
          <mxGeometry x="17.5" y="185" width="125" height="40" as="geometry" />
        </mxCell>
        <mxCell id="kbh4lL8MDkKRwIiwtFab-28" value="" style="edgeStyle=orthogonalEdgeStyle;rounded=0;orthogonalLoop=1;jettySize=auto;html=1;fontSize=11;" parent="kbh4lL8MDkKRwIiwtFab-4" source="kbh4lL8MDkKRwIiwtFab-25" target="kbh4lL8MDkKRwIiwtFab-27" edge="1">
          <mxGeometry relative="1" as="geometry" />
        </mxCell>
        <mxCell id="kbh4lL8MDkKRwIiwtFab-25" value="&lt;font style=&quot;font-size: 11px&quot;&gt;Menampilkan Tabel Data Pelanggan&lt;/font&gt;" style="rounded=1;whiteSpace=wrap;html=1;strokeColor=#000000;strokeWidth=1;" parent="kbh4lL8MDkKRwIiwtFab-4" vertex="1">
          <mxGeometry x="32.5" y="260" width="115" height="40" as="geometry" />
        </mxCell>
        <mxCell id="kbh4lL8MDkKRwIiwtFab-27" value="" style="ellipse;html=1;shape=endState;fillColor=#000000;strokeColor=#000000;fontSize=11;" parent="kbh4lL8MDkKRwIiwtFab-4" vertex="1">
          <mxGeometry x="70" y="340" width="40" height="40" as="geometry" />
        </mxCell>
        <mxCell id="kbh4lL8MDkKRwIiwtFab-5" value="Database" style="swimlane;startSize=20;fontSize=11;" parent="kbh4lL8MDkKRwIiwtFab-2" vertex="1">
          <mxGeometry x="320" y="20" width="140" height="460" as="geometry" />
        </mxCell>
        <mxCell id="kbh4lL8MDkKRwIiwtFab-16" value="" style="rhombus;whiteSpace=wrap;html=1;fontSize=11;strokeColor=#000000;strokeWidth=1;" parent="kbh4lL8MDkKRwIiwtFab-5" vertex="1">
          <mxGeometry x="45" y="135" width="50" height="50" as="geometry" />
        </mxCell>
        <mxCell id="kbh4lL8MDkKRwIiwtFab-19" value="Validasi" style="text;html=1;strokeColor=none;fillColor=none;align=center;verticalAlign=middle;whiteSpace=wrap;rounded=0;fontSize=11;" parent="kbh4lL8MDkKRwIiwtFab-5" vertex="1">
          <mxGeometry x="70" y="170" width="60" height="30" as="geometry" />
        </mxCell>
        <mxCell id="kbh4lL8MDkKRwIiwtFab-14" style="edgeStyle=orthogonalEdgeStyle;rounded=0;orthogonalLoop=1;jettySize=auto;html=1;entryX=0;entryY=0.5;entryDx=0;entryDy=0;fontSize=11;" parent="kbh4lL8MDkKRwIiwtFab-2" source="kbh4lL8MDkKRwIiwtFab-11" target="kbh4lL8MDkKRwIiwtFab-13" edge="1">
          <mxGeometry relative="1" as="geometry" />
        </mxCell>
        <mxCell id="kbh4lL8MDkKRwIiwtFab-17" style="edgeStyle=orthogonalEdgeStyle;rounded=0;orthogonalLoop=1;jettySize=auto;html=1;entryX=0.5;entryY=0;entryDx=0;entryDy=0;fontSize=11;" parent="kbh4lL8MDkKRwIiwtFab-2" source="kbh4lL8MDkKRwIiwtFab-13" target="kbh4lL8MDkKRwIiwtFab-16" edge="1">
          <mxGeometry relative="1" as="geometry" />
        </mxCell>
        <mxCell id="kbh4lL8MDkKRwIiwtFab-18" style="edgeStyle=orthogonalEdgeStyle;rounded=0;orthogonalLoop=1;jettySize=auto;html=1;entryX=1;entryY=0.5;entryDx=0;entryDy=0;fontSize=11;" parent="kbh4lL8MDkKRwIiwtFab-2" source="kbh4lL8MDkKRwIiwtFab-16" target="kbh4lL8MDkKRwIiwtFab-15" edge="1">
          <mxGeometry relative="1" as="geometry">
            <Array as="points">
              <mxPoint x="390" y="225" />
            </Array>
          </mxGeometry>
        </mxCell>
        <mxCell id="kbh4lL8MDkKRwIiwtFab-22" value="Ya" style="edgeLabel;html=1;align=center;verticalAlign=middle;resizable=0;points=[];fontSize=11;" parent="kbh4lL8MDkKRwIiwtFab-18" vertex="1" connectable="0">
          <mxGeometry x="-0.0809" relative="1" as="geometry">
            <mxPoint as="offset" />
          </mxGeometry>
        </mxCell>
        <mxCell id="kbh4lL8MDkKRwIiwtFab-20" style="edgeStyle=orthogonalEdgeStyle;rounded=0;orthogonalLoop=1;jettySize=auto;html=1;entryX=0.5;entryY=1;entryDx=0;entryDy=0;fontSize=11;" parent="kbh4lL8MDkKRwIiwtFab-2" source="kbh4lL8MDkKRwIiwtFab-16" target="kbh4lL8MDkKRwIiwtFab-11" edge="1">
          <mxGeometry relative="1" as="geometry" />
        </mxCell>
        <mxCell id="kbh4lL8MDkKRwIiwtFab-21" value="Tidak" style="edgeLabel;html=1;align=center;verticalAlign=middle;resizable=0;points=[];fontSize=11;" parent="kbh4lL8MDkKRwIiwtFab-20" vertex="1" connectable="0">
          <mxGeometry x="-0.1806" y="1" relative="1" as="geometry">
            <mxPoint as="offset" />
          </mxGeometry>
        </mxCell>
        <mxCell id="kbh4lL8MDkKRwIiwtFab-24" style="edgeStyle=orthogonalEdgeStyle;rounded=0;orthogonalLoop=1;jettySize=auto;html=1;entryX=1;entryY=0.5;entryDx=0;entryDy=0;fontSize=11;" parent="kbh4lL8MDkKRwIiwtFab-2" source="kbh4lL8MDkKRwIiwtFab-15" target="kbh4lL8MDkKRwIiwtFab-23" edge="1">
          <mxGeometry relative="1" as="geometry" />
        </mxCell>
        <mxCell id="kbh4lL8MDkKRwIiwtFab-26" style="edgeStyle=orthogonalEdgeStyle;rounded=0;orthogonalLoop=1;jettySize=auto;html=1;entryX=0;entryY=0.5;entryDx=0;entryDy=0;fontSize=11;" parent="kbh4lL8MDkKRwIiwtFab-2" source="kbh4lL8MDkKRwIiwtFab-23" target="kbh4lL8MDkKRwIiwtFab-25" edge="1">
          <mxGeometry relative="1" as="geometry">
            <Array as="points">
              <mxPoint x="75" y="300" />
            </Array>
          </mxGeometry>
        </mxCell>
      </root>
    </mxGraphModel>
  </diagram>
  <diagram id="CveW0hIPM5FUPF7INF4G" name="Melihat Blog">
    <mxGraphModel dx="868" dy="415" grid="1" gridSize="10" guides="1" tooltips="1" connect="1" arrows="1" fold="1" page="1" pageScale="1" pageWidth="850" pageHeight="1100" math="0" shadow="0">
      <root>
        <mxCell id="ybzFKEfyzTHMz-8Tb-qH-0" />
        <mxCell id="ybzFKEfyzTHMz-8Tb-qH-1" parent="ybzFKEfyzTHMz-8Tb-qH-0" />
        <mxCell id="QkjvrTIzdinRKm5QO0Fi-0" value="Melihat Blog" style="swimlane;childLayout=stackLayout;resizeParent=1;resizeParentMax=0;startSize=20;" parent="ybzFKEfyzTHMz-8Tb-qH-1" vertex="1">
          <mxGeometry x="245" y="60" width="440" height="400" as="geometry" />
        </mxCell>
        <mxCell id="QkjvrTIzdinRKm5QO0Fi-1" value="User" style="swimlane;startSize=20;" parent="QkjvrTIzdinRKm5QO0Fi-0" vertex="1">
          <mxGeometry y="20" width="150" height="380" as="geometry" />
        </mxCell>
        <mxCell id="QkjvrTIzdinRKm5QO0Fi-6" value="Masuk Halaman Blog&amp;nbsp;" style="rounded=1;whiteSpace=wrap;html=1;strokeColor=#000000;strokeWidth=1;fillColor=#FFFFFF;" parent="QkjvrTIzdinRKm5QO0Fi-1" vertex="1">
          <mxGeometry x="27.5" y="100" width="95" height="60" as="geometry" />
        </mxCell>
        <mxCell id="mHUAtDY4It0_-p1ZBXzN-0" value="" style="ellipse;html=1;shape=startState;fillColor=#000000;strokeColor=#000000;fontSize=11;" parent="QkjvrTIzdinRKm5QO0Fi-1" vertex="1">
          <mxGeometry x="60" y="30" width="30" height="30" as="geometry" />
        </mxCell>
        <mxCell id="mHUAtDY4It0_-p1ZBXzN-1" value="" style="edgeStyle=orthogonalEdgeStyle;html=1;verticalAlign=bottom;endArrow=open;endSize=8;strokeColor=#000000;rounded=0;fontSize=11;entryX=0.5;entryY=0;entryDx=0;entryDy=0;" parent="QkjvrTIzdinRKm5QO0Fi-1" source="mHUAtDY4It0_-p1ZBXzN-0" target="QkjvrTIzdinRKm5QO0Fi-6" edge="1">
          <mxGeometry relative="1" as="geometry">
            <mxPoint x="75" y="80" as="targetPoint" />
          </mxGeometry>
        </mxCell>
        <mxCell id="KynfRX2chX9egcLLcpSg-0" value="Melihat Detail" style="rounded=1;whiteSpace=wrap;html=1;fontSize=11;strokeColor=#000000;" parent="QkjvrTIzdinRKm5QO0Fi-1" vertex="1">
          <mxGeometry x="25" y="210" width="100" height="60" as="geometry" />
        </mxCell>
        <mxCell id="QkjvrTIzdinRKm5QO0Fi-2" value="Sistem" style="swimlane;startSize=20;" parent="QkjvrTIzdinRKm5QO0Fi-0" vertex="1">
          <mxGeometry x="150" y="20" width="150" height="380" as="geometry" />
        </mxCell>
        <mxCell id="QkjvrTIzdinRKm5QO0Fi-9" value="Menampilkan Daftar Blog" style="rounded=1;whiteSpace=wrap;html=1;strokeColor=#000000;strokeWidth=1;fillColor=#FFFFFF;" parent="QkjvrTIzdinRKm5QO0Fi-2" vertex="1">
          <mxGeometry x="15" y="110" width="110" height="40" as="geometry" />
        </mxCell>
        <mxCell id="KynfRX2chX9egcLLcpSg-6" style="edgeStyle=orthogonalEdgeStyle;rounded=0;orthogonalLoop=1;jettySize=auto;html=1;entryX=0.5;entryY=0;entryDx=0;entryDy=0;fontSize=11;strokeColor=#000000;" parent="QkjvrTIzdinRKm5QO0Fi-2" source="KynfRX2chX9egcLLcpSg-3" target="KynfRX2chX9egcLLcpSg-5" edge="1">
          <mxGeometry relative="1" as="geometry" />
        </mxCell>
        <mxCell id="KynfRX2chX9egcLLcpSg-3" value="Menampilkan Halaman Blog yang Dituju" style="rounded=1;whiteSpace=wrap;html=1;fontSize=11;strokeColor=#000000;" parent="QkjvrTIzdinRKm5QO0Fi-2" vertex="1">
          <mxGeometry x="15" y="210" width="120" height="60" as="geometry" />
        </mxCell>
        <mxCell id="KynfRX2chX9egcLLcpSg-5" value="" style="ellipse;html=1;shape=endState;fillColor=#000000;strokeColor=#000000;fontSize=11;" parent="QkjvrTIzdinRKm5QO0Fi-2" vertex="1">
          <mxGeometry x="60" y="320" width="30" height="30" as="geometry" />
        </mxCell>
        <mxCell id="QkjvrTIzdinRKm5QO0Fi-3" value="Database" style="swimlane;startSize=20;" parent="QkjvrTIzdinRKm5QO0Fi-0" vertex="1">
          <mxGeometry x="300" y="20" width="140" height="380" as="geometry" />
        </mxCell>
        <mxCell id="QkjvrTIzdinRKm5QO0Fi-10" style="edgeStyle=orthogonalEdgeStyle;rounded=0;orthogonalLoop=1;jettySize=auto;html=1;entryX=0;entryY=0.5;entryDx=0;entryDy=0;" parent="QkjvrTIzdinRKm5QO0Fi-0" source="QkjvrTIzdinRKm5QO0Fi-6" target="QkjvrTIzdinRKm5QO0Fi-9" edge="1">
          <mxGeometry relative="1" as="geometry" />
        </mxCell>
        <mxCell id="KynfRX2chX9egcLLcpSg-1" style="edgeStyle=orthogonalEdgeStyle;rounded=0;orthogonalLoop=1;jettySize=auto;html=1;entryX=0.5;entryY=0;entryDx=0;entryDy=0;fontSize=11;strokeColor=#000000;" parent="QkjvrTIzdinRKm5QO0Fi-0" source="QkjvrTIzdinRKm5QO0Fi-9" target="KynfRX2chX9egcLLcpSg-0" edge="1">
          <mxGeometry relative="1" as="geometry">
            <Array as="points">
              <mxPoint x="215" y="200" />
              <mxPoint x="75" y="200" />
            </Array>
          </mxGeometry>
        </mxCell>
        <mxCell id="KynfRX2chX9egcLLcpSg-4" style="edgeStyle=orthogonalEdgeStyle;rounded=0;orthogonalLoop=1;jettySize=auto;html=1;entryX=0;entryY=0.5;entryDx=0;entryDy=0;fontSize=11;strokeColor=#000000;" parent="QkjvrTIzdinRKm5QO0Fi-0" source="KynfRX2chX9egcLLcpSg-0" target="KynfRX2chX9egcLLcpSg-3" edge="1">
          <mxGeometry relative="1" as="geometry" />
        </mxCell>
      </root>
    </mxGraphModel>
  </diagram>
  <diagram id="YeXSmtQHdbEVEMDz-6qU" name="Melihat Menu">
    <mxGraphModel dx="868" dy="415" grid="1" gridSize="10" guides="1" tooltips="1" connect="1" arrows="1" fold="1" page="1" pageScale="1" pageWidth="850" pageHeight="1100" math="0" shadow="0">
      <root>
        <mxCell id="_Z-dq50UPAS__K9nuZgC-0" />
        <mxCell id="_Z-dq50UPAS__K9nuZgC-1" parent="_Z-dq50UPAS__K9nuZgC-0" />
        <mxCell id="_Z-dq50UPAS__K9nuZgC-2" value="Melihat Menu " style="swimlane;childLayout=stackLayout;resizeParent=1;resizeParentMax=0;startSize=20;strokeColor=#000000;strokeWidth=1;fillColor=#FFFFFF;fontSize=11;" parent="_Z-dq50UPAS__K9nuZgC-1" vertex="1">
          <mxGeometry x="270" y="70" width="430" height="520" as="geometry" />
        </mxCell>
        <mxCell id="_Z-dq50UPAS__K9nuZgC-3" value="User" style="swimlane;startSize=20;strokeColor=#000000;strokeWidth=1;fillColor=#FFFFFF;fontSize=11;" parent="_Z-dq50UPAS__K9nuZgC-2" vertex="1">
          <mxGeometry y="20" width="130" height="500" as="geometry" />
        </mxCell>
        <mxCell id="_Z-dq50UPAS__K9nuZgC-7" value="Masuk Halaman Menu" style="rounded=1;whiteSpace=wrap;html=1;fontSize=11;strokeColor=#000000;strokeWidth=1;fillColor=#FFFFFF;" parent="_Z-dq50UPAS__K9nuZgC-3" vertex="1">
          <mxGeometry x="22.5" y="90" width="85" height="45" as="geometry" />
        </mxCell>
        <mxCell id="m51XgC9qumbYT7Heje86-2" value="" style="ellipse;html=1;shape=startState;fillColor=#000000;strokeColor=#000000;fontSize=11;" parent="_Z-dq50UPAS__K9nuZgC-3" vertex="1">
          <mxGeometry x="50" y="30" width="30" height="30" as="geometry" />
        </mxCell>
        <mxCell id="m51XgC9qumbYT7Heje86-3" value="" style="edgeStyle=orthogonalEdgeStyle;html=1;verticalAlign=bottom;endArrow=open;endSize=8;strokeColor=#000000;rounded=0;fontSize=11;" parent="_Z-dq50UPAS__K9nuZgC-3" source="m51XgC9qumbYT7Heje86-2" target="_Z-dq50UPAS__K9nuZgC-7" edge="1">
          <mxGeometry relative="1" as="geometry">
            <mxPoint x="65" y="100" as="targetPoint" />
          </mxGeometry>
        </mxCell>
        <mxCell id="Cd8nbXCQoIeIFVuV_BIQ-1" value="Mengakses Kategori" style="rounded=1;whiteSpace=wrap;html=1;fontSize=11;strokeColor=#000000;strokeWidth=1;fillColor=#FFFFFF;" parent="_Z-dq50UPAS__K9nuZgC-3" vertex="1">
          <mxGeometry x="22.5" y="180" width="85" height="45" as="geometry" />
        </mxCell>
        <mxCell id="Cd8nbXCQoIeIFVuV_BIQ-4" value="Melihat Detail" style="rounded=1;whiteSpace=wrap;html=1;fontSize=11;strokeColor=#000000;strokeWidth=1;fillColor=#FFFFFF;" parent="_Z-dq50UPAS__K9nuZgC-3" vertex="1">
          <mxGeometry x="22.5" y="280" width="85" height="45" as="geometry" />
        </mxCell>
        <mxCell id="_Z-dq50UPAS__K9nuZgC-4" value="Sistem" style="swimlane;startSize=20;strokeColor=#000000;strokeWidth=1;fillColor=#FFFFFF;fontSize=11;" parent="_Z-dq50UPAS__K9nuZgC-2" vertex="1">
          <mxGeometry x="130" y="20" width="160" height="500" as="geometry" />
        </mxCell>
        <mxCell id="_Z-dq50UPAS__K9nuZgC-9" value="Menampilkan Daftar Menu, Kategori Menu, dan Detail Menu" style="rounded=1;whiteSpace=wrap;html=1;fontSize=11;strokeColor=#000000;strokeWidth=1;fillColor=#FFFFFF;" parent="_Z-dq50UPAS__K9nuZgC-4" vertex="1">
          <mxGeometry x="18.75" y="92.5" width="122.5" height="40" as="geometry" />
        </mxCell>
        <mxCell id="Cd8nbXCQoIeIFVuV_BIQ-10" style="edgeStyle=orthogonalEdgeStyle;rounded=0;orthogonalLoop=1;jettySize=auto;html=1;entryX=0.5;entryY=0;entryDx=0;entryDy=0;fontSize=11;" parent="_Z-dq50UPAS__K9nuZgC-4" source="Cd8nbXCQoIeIFVuV_BIQ-0" target="Cd8nbXCQoIeIFVuV_BIQ-7" edge="1">
          <mxGeometry relative="1" as="geometry" />
        </mxCell>
        <mxCell id="Cd8nbXCQoIeIFVuV_BIQ-0" value="&lt;span style=&quot;font-size: 11px&quot;&gt;Mencari Menu Berdasarkan Kategori&lt;/span&gt;" style="rounded=1;whiteSpace=wrap;html=1;" parent="_Z-dq50UPAS__K9nuZgC-4" vertex="1">
          <mxGeometry x="21.25" y="182.5" width="120" height="40" as="geometry" />
        </mxCell>
        <mxCell id="Cd8nbXCQoIeIFVuV_BIQ-12" style="edgeStyle=orthogonalEdgeStyle;rounded=0;orthogonalLoop=1;jettySize=auto;html=1;entryX=0.5;entryY=0;entryDx=0;entryDy=0;fontSize=11;" parent="_Z-dq50UPAS__K9nuZgC-4" source="Cd8nbXCQoIeIFVuV_BIQ-6" target="Cd8nbXCQoIeIFVuV_BIQ-11" edge="1">
          <mxGeometry relative="1" as="geometry" />
        </mxCell>
        <mxCell id="Cd8nbXCQoIeIFVuV_BIQ-6" value="Menampilkan Halaman Detail Menu" style="rounded=1;whiteSpace=wrap;html=1;fontSize=11;strokeColor=#000000;strokeWidth=1;fillColor=#FFFFFF;" parent="_Z-dq50UPAS__K9nuZgC-4" vertex="1">
          <mxGeometry x="20" y="350" width="120" height="40" as="geometry" />
        </mxCell>
        <mxCell id="Cd8nbXCQoIeIFVuV_BIQ-7" value="Menampilkan Daftar Menu Makanan Berdasarkan Kategori yang Dipilih" style="rounded=1;whiteSpace=wrap;html=1;fontSize=11;strokeColor=#000000;strokeWidth=1;fillColor=#FFFFFF;" parent="_Z-dq50UPAS__K9nuZgC-4" vertex="1">
          <mxGeometry x="21.250000000000004" y="272.5" width="121.88" height="60" as="geometry" />
        </mxCell>
        <mxCell id="Cd8nbXCQoIeIFVuV_BIQ-11" value="" style="ellipse;html=1;shape=endState;fillColor=#000000;strokeColor=#000000;fontSize=11;" parent="_Z-dq50UPAS__K9nuZgC-4" vertex="1">
          <mxGeometry x="65" y="430" width="30" height="30" as="geometry" />
        </mxCell>
        <mxCell id="_Z-dq50UPAS__K9nuZgC-5" value="Database" style="swimlane;startSize=20;strokeColor=#000000;strokeWidth=1;fillColor=#FFFFFF;fontSize=11;" parent="_Z-dq50UPAS__K9nuZgC-2" vertex="1">
          <mxGeometry x="290" y="20" width="140" height="500" as="geometry" />
        </mxCell>
        <mxCell id="_Z-dq50UPAS__K9nuZgC-10" style="edgeStyle=orthogonalEdgeStyle;rounded=0;orthogonalLoop=1;jettySize=auto;html=1;entryX=0;entryY=0.5;entryDx=0;entryDy=0;fontSize=11;" parent="_Z-dq50UPAS__K9nuZgC-2" source="_Z-dq50UPAS__K9nuZgC-7" target="_Z-dq50UPAS__K9nuZgC-9" edge="1">
          <mxGeometry relative="1" as="geometry" />
        </mxCell>
        <mxCell id="Cd8nbXCQoIeIFVuV_BIQ-2" style="edgeStyle=orthogonalEdgeStyle;rounded=0;orthogonalLoop=1;jettySize=auto;html=1;entryX=0.5;entryY=0;entryDx=0;entryDy=0;" parent="_Z-dq50UPAS__K9nuZgC-2" source="_Z-dq50UPAS__K9nuZgC-9" target="Cd8nbXCQoIeIFVuV_BIQ-1" edge="1">
          <mxGeometry relative="1" as="geometry">
            <Array as="points">
              <mxPoint x="210" y="180" />
              <mxPoint x="65" y="180" />
            </Array>
          </mxGeometry>
        </mxCell>
        <mxCell id="Cd8nbXCQoIeIFVuV_BIQ-8" style="edgeStyle=orthogonalEdgeStyle;rounded=0;orthogonalLoop=1;jettySize=auto;html=1;entryX=0;entryY=0.5;entryDx=0;entryDy=0;fontSize=11;" parent="_Z-dq50UPAS__K9nuZgC-2" source="Cd8nbXCQoIeIFVuV_BIQ-4" target="Cd8nbXCQoIeIFVuV_BIQ-6" edge="1">
          <mxGeometry relative="1" as="geometry">
            <Array as="points">
              <mxPoint x="65" y="390" />
            </Array>
          </mxGeometry>
        </mxCell>
        <mxCell id="Cd8nbXCQoIeIFVuV_BIQ-9" style="edgeStyle=orthogonalEdgeStyle;rounded=0;orthogonalLoop=1;jettySize=auto;html=1;entryX=1;entryY=0.5;entryDx=0;entryDy=0;fontSize=11;" parent="_Z-dq50UPAS__K9nuZgC-2" source="Cd8nbXCQoIeIFVuV_BIQ-7" target="Cd8nbXCQoIeIFVuV_BIQ-4" edge="1">
          <mxGeometry relative="1" as="geometry" />
        </mxCell>
        <mxCell id="Cd8nbXCQoIeIFVuV_BIQ-13" style="edgeStyle=orthogonalEdgeStyle;rounded=0;orthogonalLoop=1;jettySize=auto;html=1;fontSize=11;" parent="_Z-dq50UPAS__K9nuZgC-1" source="Cd8nbXCQoIeIFVuV_BIQ-1" edge="1">
          <mxGeometry relative="1" as="geometry">
            <mxPoint x="420" y="292.5" as="targetPoint" />
          </mxGeometry>
        </mxCell>
      </root>
    </mxGraphModel>
  </diagram>
  <diagram id="n7389rtDpHVszxS6XE3j" name="Memesan Produk">
    <mxGraphModel dx="868" dy="415" grid="1" gridSize="10" guides="1" tooltips="1" connect="1" arrows="1" fold="1" page="1" pageScale="1" pageWidth="850" pageHeight="1100" math="0" shadow="0">
      <root>
        <mxCell id="26jg_S2nqkqIBc4-NJkR-0" />
        <mxCell id="26jg_S2nqkqIBc4-NJkR-1" parent="26jg_S2nqkqIBc4-NJkR-0" />
        <mxCell id="26jg_S2nqkqIBc4-NJkR-2" value="Memesan Produk" style="swimlane;childLayout=stackLayout;resizeParent=1;resizeParentMax=0;startSize=20;" parent="26jg_S2nqkqIBc4-NJkR-1" vertex="1">
          <mxGeometry x="220" y="120" width="460" height="710" as="geometry" />
        </mxCell>
        <mxCell id="26jg_S2nqkqIBc4-NJkR-3" value="User" style="swimlane;startSize=20;" parent="26jg_S2nqkqIBc4-NJkR-2" vertex="1">
          <mxGeometry y="20" width="140" height="690" as="geometry" />
        </mxCell>
        <mxCell id="26jg_S2nqkqIBc4-NJkR-11" style="edgeStyle=orthogonalEdgeStyle;rounded=0;orthogonalLoop=1;jettySize=auto;html=1;strokeColor=#000000;" parent="26jg_S2nqkqIBc4-NJkR-3" source="26jg_S2nqkqIBc4-NJkR-7" target="26jg_S2nqkqIBc4-NJkR-9" edge="1">
          <mxGeometry relative="1" as="geometry" />
        </mxCell>
        <mxCell id="26jg_S2nqkqIBc4-NJkR-7" value="" style="ellipse;html=1;shape=startState;fillColor=#000000;strokeColor=#000000;" parent="26jg_S2nqkqIBc4-NJkR-3" vertex="1">
          <mxGeometry x="55" y="40" width="30" height="30" as="geometry" />
        </mxCell>
        <mxCell id="26jg_S2nqkqIBc4-NJkR-9" value="&lt;font style=&quot;font-size: 11px&quot;&gt;Masukan Username dan Password&lt;/font&gt;" style="rounded=1;whiteSpace=wrap;html=1;strokeColor=#000000;" parent="26jg_S2nqkqIBc4-NJkR-3" vertex="1">
          <mxGeometry x="25" y="105" width="90" height="50" as="geometry" />
        </mxCell>
        <mxCell id="--pHEbb3oVKJT6yWa2ay-1" style="edgeStyle=orthogonalEdgeStyle;rounded=0;orthogonalLoop=1;jettySize=auto;html=1;entryX=0.5;entryY=0;entryDx=0;entryDy=0;fontSize=11;strokeColor=#000000;" parent="26jg_S2nqkqIBc4-NJkR-3" source="PmAem611dr3_3B4f9rE7-0" target="--pHEbb3oVKJT6yWa2ay-0" edge="1">
          <mxGeometry relative="1" as="geometry" />
        </mxCell>
        <mxCell id="PmAem611dr3_3B4f9rE7-0" value="Masuk ke Halaman Menu" style="rounded=1;whiteSpace=wrap;html=1;fontSize=11;strokeColor=#000000;" parent="26jg_S2nqkqIBc4-NJkR-3" vertex="1">
          <mxGeometry x="25" y="200" width="90" height="60" as="geometry" />
        </mxCell>
        <mxCell id="--pHEbb3oVKJT6yWa2ay-0" value="Melihat Detail" style="rounded=1;whiteSpace=wrap;html=1;fontSize=11;strokeColor=#000000;" parent="26jg_S2nqkqIBc4-NJkR-3" vertex="1">
          <mxGeometry x="25" y="290" width="90" height="50" as="geometry" />
        </mxCell>
        <mxCell id="mSxQjjt_VHwG2vtcq3XI-8" style="edgeStyle=orthogonalEdgeStyle;rounded=0;orthogonalLoop=1;jettySize=auto;html=1;fontSize=11;strokeColor=#000000;" parent="26jg_S2nqkqIBc4-NJkR-3" source="mSxQjjt_VHwG2vtcq3XI-5" target="mSxQjjt_VHwG2vtcq3XI-7" edge="1">
          <mxGeometry relative="1" as="geometry" />
        </mxCell>
        <mxCell id="mSxQjjt_VHwG2vtcq3XI-5" value="&lt;span&gt;Mengatur Jumlah Pesanan dan Mengisi Catatan&lt;/span&gt;" style="shape=parallelogram;perimeter=parallelogramPerimeter;whiteSpace=wrap;html=1;fixedSize=1;fontSize=11;strokeColor=#000000;" parent="26jg_S2nqkqIBc4-NJkR-3" vertex="1">
          <mxGeometry x="5" y="375" width="130" height="70" as="geometry" />
        </mxCell>
        <mxCell id="mSxQjjt_VHwG2vtcq3XI-7" value="Tambah ke Keranjang" style="rhombus;whiteSpace=wrap;html=1;fontSize=11;strokeColor=#000000;" parent="26jg_S2nqkqIBc4-NJkR-3" vertex="1">
          <mxGeometry x="25" y="470" width="90" height="80" as="geometry" />
        </mxCell>
        <mxCell id="26jg_S2nqkqIBc4-NJkR-4" value="Sistem" style="swimlane;startSize=20;" parent="26jg_S2nqkqIBc4-NJkR-2" vertex="1">
          <mxGeometry x="140" y="20" width="170" height="690" as="geometry" />
        </mxCell>
        <mxCell id="26jg_S2nqkqIBc4-NJkR-12" value="&lt;font style=&quot;font-size: 11px&quot;&gt;Memperoses&amp;nbsp; Username dan Password&lt;/font&gt;" style="rounded=1;whiteSpace=wrap;html=1;strokeColor=#000000;" parent="26jg_S2nqkqIBc4-NJkR-4" vertex="1">
          <mxGeometry x="22.5" y="110" width="125" height="40" as="geometry" />
        </mxCell>
        <mxCell id="xZ_1f7EAk2H-TeyT-QEI-4" value="Menampilkan Halaman Beranda" style="rounded=1;whiteSpace=wrap;html=1;strokeColor=#000000;" parent="26jg_S2nqkqIBc4-NJkR-4" vertex="1">
          <mxGeometry x="22.5" y="210" width="120" height="40" as="geometry" />
        </mxCell>
        <mxCell id="js6OBKk4Tpx6Aaw5WYnW-0" value="Menampilkan Halaman Detail Menu" style="rounded=1;whiteSpace=wrap;html=1;fontSize=11;strokeColor=#000000;" parent="26jg_S2nqkqIBc4-NJkR-4" vertex="1">
          <mxGeometry x="20" y="295" width="127.5" height="40" as="geometry" />
        </mxCell>
        <mxCell id="mSxQjjt_VHwG2vtcq3XI-4" value="Masuk ke Keranjang" style="rounded=1;whiteSpace=wrap;html=1;fontSize=11;strokeColor=#000000;" parent="26jg_S2nqkqIBc4-NJkR-4" vertex="1">
          <mxGeometry x="25" y="492.5" width="120" height="35" as="geometry" />
        </mxCell>
        <mxCell id="mSxQjjt_VHwG2vtcq3XI-18" style="edgeStyle=orthogonalEdgeStyle;rounded=0;orthogonalLoop=1;jettySize=auto;html=1;entryX=0.5;entryY=0;entryDx=0;entryDy=0;fontSize=11;strokeColor=#000000;" parent="26jg_S2nqkqIBc4-NJkR-4" source="mSxQjjt_VHwG2vtcq3XI-13" target="mSxQjjt_VHwG2vtcq3XI-17" edge="1">
          <mxGeometry relative="1" as="geometry" />
        </mxCell>
        <mxCell id="mSxQjjt_VHwG2vtcq3XI-13" value="Menampilkan Halaman Keranjang" style="rounded=1;whiteSpace=wrap;html=1;fontSize=11;strokeColor=#000000;" parent="26jg_S2nqkqIBc4-NJkR-4" vertex="1">
          <mxGeometry x="25" y="550" width="120" height="40" as="geometry" />
        </mxCell>
        <mxCell id="mSxQjjt_VHwG2vtcq3XI-17" value="" style="ellipse;html=1;shape=endState;fillColor=#000000;strokeColor=#000000;fontSize=11;" parent="26jg_S2nqkqIBc4-NJkR-4" vertex="1">
          <mxGeometry x="70" y="620" width="30" height="30" as="geometry" />
        </mxCell>
        <mxCell id="26jg_S2nqkqIBc4-NJkR-5" value="Database" style="swimlane;startSize=20;" parent="26jg_S2nqkqIBc4-NJkR-2" vertex="1">
          <mxGeometry x="310" y="20" width="150" height="690" as="geometry" />
        </mxCell>
        <mxCell id="xZ_1f7EAk2H-TeyT-QEI-0" value="" style="rhombus;whiteSpace=wrap;html=1;strokeColor=#000000;" parent="26jg_S2nqkqIBc4-NJkR-5" vertex="1">
          <mxGeometry x="55" y="160" width="40" height="40" as="geometry" />
        </mxCell>
        <mxCell id="xZ_1f7EAk2H-TeyT-QEI-7" value="&lt;font style=&quot;font-size: 11px&quot;&gt;Validasi&lt;/font&gt;" style="text;html=1;strokeColor=none;fillColor=none;align=center;verticalAlign=middle;whiteSpace=wrap;rounded=0;" parent="26jg_S2nqkqIBc4-NJkR-5" vertex="1">
          <mxGeometry x="80" y="190" width="60" height="30" as="geometry" />
        </mxCell>
        <mxCell id="mSxQjjt_VHwG2vtcq3XI-11" value="Simpan" style="shape=cylinder3;whiteSpace=wrap;html=1;boundedLbl=1;backgroundOutline=1;size=15;fontSize=11;strokeColor=#000000;" parent="26jg_S2nqkqIBc4-NJkR-5" vertex="1">
          <mxGeometry x="52.5" y="481.5" width="45" height="57" as="geometry" />
        </mxCell>
        <mxCell id="26jg_S2nqkqIBc4-NJkR-13" style="edgeStyle=orthogonalEdgeStyle;rounded=0;orthogonalLoop=1;jettySize=auto;html=1;entryX=0;entryY=0.5;entryDx=0;entryDy=0;strokeColor=#000000;" parent="26jg_S2nqkqIBc4-NJkR-2" source="26jg_S2nqkqIBc4-NJkR-9" target="26jg_S2nqkqIBc4-NJkR-12" edge="1">
          <mxGeometry relative="1" as="geometry" />
        </mxCell>
        <mxCell id="xZ_1f7EAk2H-TeyT-QEI-1" style="edgeStyle=orthogonalEdgeStyle;rounded=0;orthogonalLoop=1;jettySize=auto;html=1;entryX=0.5;entryY=0;entryDx=0;entryDy=0;strokeColor=#000000;" parent="26jg_S2nqkqIBc4-NJkR-2" source="26jg_S2nqkqIBc4-NJkR-12" target="xZ_1f7EAk2H-TeyT-QEI-0" edge="1">
          <mxGeometry relative="1" as="geometry" />
        </mxCell>
        <mxCell id="xZ_1f7EAk2H-TeyT-QEI-2" style="edgeStyle=orthogonalEdgeStyle;rounded=0;orthogonalLoop=1;jettySize=auto;html=1;entryX=0.5;entryY=1;entryDx=0;entryDy=0;strokeColor=#000000;" parent="26jg_S2nqkqIBc4-NJkR-2" source="xZ_1f7EAk2H-TeyT-QEI-0" target="26jg_S2nqkqIBc4-NJkR-9" edge="1">
          <mxGeometry relative="1" as="geometry" />
        </mxCell>
        <mxCell id="xZ_1f7EAk2H-TeyT-QEI-3" value="Tidak" style="edgeLabel;html=1;align=center;verticalAlign=middle;resizable=0;points=[];" parent="xZ_1f7EAk2H-TeyT-QEI-2" vertex="1" connectable="0">
          <mxGeometry x="-0.1238" y="-1" relative="1" as="geometry">
            <mxPoint as="offset" />
          </mxGeometry>
        </mxCell>
        <mxCell id="xZ_1f7EAk2H-TeyT-QEI-5" style="edgeStyle=orthogonalEdgeStyle;rounded=0;orthogonalLoop=1;jettySize=auto;html=1;entryX=1;entryY=0.5;entryDx=0;entryDy=0;strokeColor=#000000;" parent="26jg_S2nqkqIBc4-NJkR-2" source="xZ_1f7EAk2H-TeyT-QEI-0" target="xZ_1f7EAk2H-TeyT-QEI-4" edge="1">
          <mxGeometry relative="1" as="geometry">
            <Array as="points">
              <mxPoint x="385" y="250" />
            </Array>
          </mxGeometry>
        </mxCell>
        <mxCell id="xZ_1f7EAk2H-TeyT-QEI-6" value="Ya" style="edgeLabel;html=1;align=center;verticalAlign=middle;resizable=0;points=[];" parent="xZ_1f7EAk2H-TeyT-QEI-5" vertex="1" connectable="0">
          <mxGeometry x="-0.034" relative="1" as="geometry">
            <mxPoint as="offset" />
          </mxGeometry>
        </mxCell>
        <mxCell id="PmAem611dr3_3B4f9rE7-1" style="edgeStyle=orthogonalEdgeStyle;rounded=0;orthogonalLoop=1;jettySize=auto;html=1;entryX=1;entryY=0.5;entryDx=0;entryDy=0;fontSize=11;strokeColor=#000000;" parent="26jg_S2nqkqIBc4-NJkR-2" source="xZ_1f7EAk2H-TeyT-QEI-4" target="PmAem611dr3_3B4f9rE7-0" edge="1">
          <mxGeometry relative="1" as="geometry" />
        </mxCell>
        <mxCell id="mSxQjjt_VHwG2vtcq3XI-0" style="edgeStyle=orthogonalEdgeStyle;rounded=0;orthogonalLoop=1;jettySize=auto;html=1;entryX=0;entryY=0.5;entryDx=0;entryDy=0;fontSize=11;strokeColor=#000000;" parent="26jg_S2nqkqIBc4-NJkR-2" source="--pHEbb3oVKJT6yWa2ay-0" target="js6OBKk4Tpx6Aaw5WYnW-0" edge="1">
          <mxGeometry relative="1" as="geometry" />
        </mxCell>
        <mxCell id="mSxQjjt_VHwG2vtcq3XI-2" style="edgeStyle=orthogonalEdgeStyle;rounded=0;orthogonalLoop=1;jettySize=auto;html=1;fontSize=11;strokeColor=#000000;entryX=0.5;entryY=0;entryDx=0;entryDy=0;" parent="26jg_S2nqkqIBc4-NJkR-2" source="js6OBKk4Tpx6Aaw5WYnW-0" target="mSxQjjt_VHwG2vtcq3XI-5" edge="1">
          <mxGeometry relative="1" as="geometry">
            <mxPoint x="70" y="390" as="targetPoint" />
            <Array as="points">
              <mxPoint x="224" y="370" />
              <mxPoint x="70" y="370" />
            </Array>
          </mxGeometry>
        </mxCell>
        <mxCell id="mSxQjjt_VHwG2vtcq3XI-9" style="edgeStyle=orthogonalEdgeStyle;rounded=0;orthogonalLoop=1;jettySize=auto;html=1;entryX=0;entryY=0.5;entryDx=0;entryDy=0;fontSize=11;strokeColor=#000000;" parent="26jg_S2nqkqIBc4-NJkR-2" source="mSxQjjt_VHwG2vtcq3XI-7" target="mSxQjjt_VHwG2vtcq3XI-4" edge="1">
          <mxGeometry relative="1" as="geometry" />
        </mxCell>
        <mxCell id="mSxQjjt_VHwG2vtcq3XI-12" style="edgeStyle=orthogonalEdgeStyle;rounded=0;orthogonalLoop=1;jettySize=auto;html=1;entryX=0;entryY=0.5;entryDx=0;entryDy=0;entryPerimeter=0;fontSize=11;strokeColor=#000000;" parent="26jg_S2nqkqIBc4-NJkR-2" source="mSxQjjt_VHwG2vtcq3XI-4" target="mSxQjjt_VHwG2vtcq3XI-11" edge="1">
          <mxGeometry relative="1" as="geometry" />
        </mxCell>
        <mxCell id="mSxQjjt_VHwG2vtcq3XI-14" style="edgeStyle=orthogonalEdgeStyle;rounded=0;orthogonalLoop=1;jettySize=auto;html=1;entryX=1;entryY=0.5;entryDx=0;entryDy=0;fontSize=11;strokeColor=#000000;" parent="26jg_S2nqkqIBc4-NJkR-2" source="mSxQjjt_VHwG2vtcq3XI-11" target="mSxQjjt_VHwG2vtcq3XI-13" edge="1">
          <mxGeometry relative="1" as="geometry">
            <Array as="points">
              <mxPoint x="385" y="590" />
            </Array>
          </mxGeometry>
        </mxCell>
      </root>
    </mxGraphModel>
  </diagram>
  <diagram id="ec1kBvlYkicoQWwkhEox" name="Mengelola Keranjang">
    <mxGraphModel dx="868" dy="415" grid="1" gridSize="10" guides="1" tooltips="1" connect="1" arrows="1" fold="1" page="1" pageScale="1" pageWidth="850" pageHeight="1100" math="0" shadow="0">
      <root>
        <mxCell id="6zY4pWlyGY8jc2xjmWDv-0" />
        <mxCell id="6zY4pWlyGY8jc2xjmWDv-1" parent="6zY4pWlyGY8jc2xjmWDv-0" />
        <mxCell id="6zY4pWlyGY8jc2xjmWDv-2" value="Mengelola Keranjang" style="swimlane;childLayout=stackLayout;resizeParent=1;resizeParentMax=0;startSize=20;fontSize=11;strokeColor=#000000;" parent="6zY4pWlyGY8jc2xjmWDv-1" vertex="1">
          <mxGeometry x="120" y="50" width="550" height="1080" as="geometry" />
        </mxCell>
        <mxCell id="6zY4pWlyGY8jc2xjmWDv-3" value="User" style="swimlane;startSize=20;fontSize=11;strokeColor=#000000;" parent="6zY4pWlyGY8jc2xjmWDv-2" vertex="1">
          <mxGeometry y="20" width="200" height="1060" as="geometry" />
        </mxCell>
        <mxCell id="mc5RtVrg6BQacL5lJhb9-5" style="edgeStyle=orthogonalEdgeStyle;rounded=0;orthogonalLoop=1;jettySize=auto;html=1;fontSize=11;strokeColor=#000000;" parent="6zY4pWlyGY8jc2xjmWDv-3" source="mc5RtVrg6BQacL5lJhb9-0" target="mc5RtVrg6BQacL5lJhb9-2" edge="1">
          <mxGeometry relative="1" as="geometry" />
        </mxCell>
        <mxCell id="mc5RtVrg6BQacL5lJhb9-0" value="" style="ellipse;html=1;shape=startState;fillColor=#000000;strokeColor=#000000;fontSize=11;" parent="6zY4pWlyGY8jc2xjmWDv-3" vertex="1">
          <mxGeometry x="85" y="30" width="30" height="30" as="geometry" />
        </mxCell>
        <mxCell id="mc5RtVrg6BQacL5lJhb9-2" value="Masukan Username dan Password&amp;nbsp;" style="rounded=1;whiteSpace=wrap;html=1;fontSize=11;strokeColor=#000000;" parent="6zY4pWlyGY8jc2xjmWDv-3" vertex="1">
          <mxGeometry x="50" y="90" width="100" height="50" as="geometry" />
        </mxCell>
        <mxCell id="NkEJq934MVSyorXKWJMg-0" value="Masuk ke Halaman Keranjang" style="rounded=1;whiteSpace=wrap;html=1;fontSize=11;strokeColor=#000000;" parent="6zY4pWlyGY8jc2xjmWDv-3" vertex="1">
          <mxGeometry x="50" y="195" width="100" height="70" as="geometry" />
        </mxCell>
        <mxCell id="NkEJq934MVSyorXKWJMg-26" style="edgeStyle=orthogonalEdgeStyle;rounded=0;orthogonalLoop=1;jettySize=auto;html=1;entryX=0.5;entryY=0;entryDx=0;entryDy=0;fontSize=11;strokeColor=#000000;" parent="6zY4pWlyGY8jc2xjmWDv-3" source="NkEJq934MVSyorXKWJMg-19" target="NkEJq934MVSyorXKWJMg-25" edge="1">
          <mxGeometry relative="1" as="geometry" />
        </mxCell>
        <mxCell id="NkEJq934MVSyorXKWJMg-19" value="Melakukan Edit / Menghapus Data Pesanan / Melakukan Konfirmasi" style="rounded=1;whiteSpace=wrap;html=1;fontSize=11;strokeColor=#000000;" parent="6zY4pWlyGY8jc2xjmWDv-3" vertex="1">
          <mxGeometry x="45" y="385" width="110" height="60" as="geometry" />
        </mxCell>
        <mxCell id="NkEJq934MVSyorXKWJMg-35" value="Tidak" style="edgeStyle=orthogonalEdgeStyle;rounded=0;orthogonalLoop=1;jettySize=auto;html=1;entryX=0.5;entryY=0;entryDx=0;entryDy=0;fontSize=11;strokeColor=#000000;" parent="6zY4pWlyGY8jc2xjmWDv-3" source="NkEJq934MVSyorXKWJMg-25" target="NkEJq934MVSyorXKWJMg-34" edge="1">
          <mxGeometry relative="1" as="geometry" />
        </mxCell>
        <mxCell id="NkEJq934MVSyorXKWJMg-25" value="Edit?" style="rhombus;whiteSpace=wrap;html=1;fontSize=11;strokeColor=#000000;" parent="6zY4pWlyGY8jc2xjmWDv-3" vertex="1">
          <mxGeometry x="70" y="470" width="60" height="60" as="geometry" />
        </mxCell>
        <mxCell id="NkEJq934MVSyorXKWJMg-59" style="edgeStyle=orthogonalEdgeStyle;rounded=0;orthogonalLoop=1;jettySize=auto;html=1;entryX=0.5;entryY=0;entryDx=0;entryDy=0;fontSize=11;strokeColor=#000000;" parent="6zY4pWlyGY8jc2xjmWDv-3" source="NkEJq934MVSyorXKWJMg-34" target="NkEJq934MVSyorXKWJMg-58" edge="1">
          <mxGeometry relative="1" as="geometry" />
        </mxCell>
        <mxCell id="NkEJq934MVSyorXKWJMg-34" value="Menghapus Data?" style="rhombus;whiteSpace=wrap;html=1;fontSize=11;strokeColor=#000000;" parent="6zY4pWlyGY8jc2xjmWDv-3" vertex="1">
          <mxGeometry x="60" y="580" width="80" height="80" as="geometry" />
        </mxCell>
        <mxCell id="NkEJq934MVSyorXKWJMg-58" value="Melakukan Konfirmasi" style="rhombus;whiteSpace=wrap;html=1;fontSize=11;strokeColor=#000000;" parent="6zY4pWlyGY8jc2xjmWDv-3" vertex="1">
          <mxGeometry x="60" y="720" width="80" height="80" as="geometry" />
        </mxCell>
        <mxCell id="6zY4pWlyGY8jc2xjmWDv-4" value="Sistem" style="swimlane;startSize=20;fontSize=11;strokeColor=#000000;" parent="6zY4pWlyGY8jc2xjmWDv-2" vertex="1">
          <mxGeometry x="200" y="20" width="200" height="1060" as="geometry" />
        </mxCell>
        <mxCell id="mc5RtVrg6BQacL5lJhb9-6" value="Memperoses Username dan Password" style="rounded=1;whiteSpace=wrap;html=1;fontSize=11;strokeColor=#000000;" parent="6zY4pWlyGY8jc2xjmWDv-4" vertex="1">
          <mxGeometry x="35" y="95" width="130" height="40" as="geometry" />
        </mxCell>
        <mxCell id="b4FFqZhvClWxp8VFo08H-0" value="Beranda" style="rounded=1;whiteSpace=wrap;html=1;fontSize=11;strokeColor=#000000;" parent="6zY4pWlyGY8jc2xjmWDv-4" vertex="1">
          <mxGeometry x="45" y="215" width="110" height="30" as="geometry" />
        </mxCell>
        <mxCell id="NkEJq934MVSyorXKWJMg-3" value="Menampilkan Halaman Keranjang" style="rounded=1;whiteSpace=wrap;html=1;fontSize=11;strokeColor=#000000;" parent="6zY4pWlyGY8jc2xjmWDv-4" vertex="1">
          <mxGeometry x="36.25" y="270" width="127.5" height="30" as="geometry" />
        </mxCell>
        <mxCell id="NkEJq934MVSyorXKWJMg-2" value="Menampilkan Keterangan Pesanan Belum Masuk ke Keranjang" style="rounded=1;whiteSpace=wrap;html=1;fontSize=11;strokeColor=#000000;" parent="6zY4pWlyGY8jc2xjmWDv-4" vertex="1">
          <mxGeometry x="38.75" y="320" width="122.5" height="60" as="geometry" />
        </mxCell>
        <mxCell id="NkEJq934MVSyorXKWJMg-15" value="Menampilkan Daftar Pesanan" style="rounded=1;whiteSpace=wrap;html=1;fontSize=11;strokeColor=#000000;" parent="6zY4pWlyGY8jc2xjmWDv-4" vertex="1">
          <mxGeometry x="37.5" y="400" width="125" height="30" as="geometry" />
        </mxCell>
        <mxCell id="NkEJq934MVSyorXKWJMg-27" value="Memperoses Data yang Akan Diubah" style="rounded=1;whiteSpace=wrap;html=1;fontSize=11;strokeColor=#000000;" parent="6zY4pWlyGY8jc2xjmWDv-4" vertex="1">
          <mxGeometry x="42.5" y="480" width="115" height="40" as="geometry" />
        </mxCell>
        <mxCell id="NkEJq934MVSyorXKWJMg-31" value="Menampilkan Perubahan Data" style="rounded=1;whiteSpace=wrap;html=1;fontSize=11;strokeColor=#000000;" parent="6zY4pWlyGY8jc2xjmWDv-4" vertex="1">
          <mxGeometry x="42.5" y="550" width="115" height="30" as="geometry" />
        </mxCell>
        <mxCell id="NkEJq934MVSyorXKWJMg-36" value="Memperoses Data yang akan Dihapus" style="rounded=1;whiteSpace=wrap;html=1;fontSize=11;strokeColor=#000000;" parent="6zY4pWlyGY8jc2xjmWDv-4" vertex="1">
          <mxGeometry x="42.5" y="600" width="115" height="40" as="geometry" />
        </mxCell>
        <mxCell id="NkEJq934MVSyorXKWJMg-76" style="edgeStyle=orthogonalEdgeStyle;rounded=0;orthogonalLoop=1;jettySize=auto;html=1;entryX=0.75;entryY=0.5;entryDx=0;entryDy=0;entryPerimeter=0;fontSize=11;strokeColor=#000000;exitX=0;exitY=0.5;exitDx=0;exitDy=0;" parent="6zY4pWlyGY8jc2xjmWDv-4" source="NkEJq934MVSyorXKWJMg-31" target="NkEJq934MVSyorXKWJMg-72" edge="1">
          <mxGeometry relative="1" as="geometry">
            <Array as="points">
              <mxPoint x="-20" y="565" />
              <mxPoint x="-20" y="940" />
              <mxPoint x="126" y="940" />
            </Array>
          </mxGeometry>
        </mxCell>
        <mxCell id="NkEJq934MVSyorXKWJMg-46" value="Menampilkan Perubahan Data" style="rounded=1;whiteSpace=wrap;html=1;fontSize=11;strokeColor=#000000;" parent="6zY4pWlyGY8jc2xjmWDv-4" vertex="1">
          <mxGeometry x="42.5" y="780" width="115" height="30" as="geometry" />
        </mxCell>
        <mxCell id="NkEJq934MVSyorXKWJMg-81" style="edgeStyle=orthogonalEdgeStyle;rounded=0;orthogonalLoop=1;jettySize=auto;html=1;entryX=0.25;entryY=0.5;entryDx=0;entryDy=0;entryPerimeter=0;fontSize=11;strokeColor=#000000;exitX=0;exitY=0.5;exitDx=0;exitDy=0;" parent="6zY4pWlyGY8jc2xjmWDv-4" source="NkEJq934MVSyorXKWJMg-46" target="NkEJq934MVSyorXKWJMg-72" edge="1">
          <mxGeometry relative="1" as="geometry">
            <Array as="points">
              <mxPoint x="10" y="795" />
              <mxPoint x="10" y="950" />
              <mxPoint x="66" y="950" />
            </Array>
          </mxGeometry>
        </mxCell>
        <mxCell id="NkEJq934MVSyorXKWJMg-47" value="Menampilkan Keterangan Pesanan Belum Masuk ke Keranjang" style="rounded=1;whiteSpace=wrap;html=1;fontSize=11;strokeColor=#000000;" parent="6zY4pWlyGY8jc2xjmWDv-4" vertex="1">
          <mxGeometry x="45" y="695" width="110" height="60" as="geometry" />
        </mxCell>
        <mxCell id="NkEJq934MVSyorXKWJMg-60" value="Memperoses Data yang akan Dikonfirmasi" style="rounded=1;whiteSpace=wrap;html=1;fontSize=11;strokeColor=#000000;" parent="6zY4pWlyGY8jc2xjmWDv-4" vertex="1">
          <mxGeometry x="37.5" y="840" width="125" height="30" as="geometry" />
        </mxCell>
        <mxCell id="NkEJq934MVSyorXKWJMg-75" style="edgeStyle=orthogonalEdgeStyle;rounded=0;orthogonalLoop=1;jettySize=auto;html=1;entryX=0.533;entryY=0.6;entryDx=0;entryDy=0;entryPerimeter=0;fontSize=11;strokeColor=#000000;" parent="6zY4pWlyGY8jc2xjmWDv-4" source="NkEJq934MVSyorXKWJMg-65" target="NkEJq934MVSyorXKWJMg-72" edge="1">
          <mxGeometry relative="1" as="geometry" />
        </mxCell>
        <mxCell id="NkEJq934MVSyorXKWJMg-65" value="Menampilkan Halaman Pembayaran" style="rounded=1;whiteSpace=wrap;html=1;fontSize=11;strokeColor=#000000;" parent="6zY4pWlyGY8jc2xjmWDv-4" vertex="1">
          <mxGeometry x="37.5" y="890" width="125" height="40" as="geometry" />
        </mxCell>
        <mxCell id="5LrLkJB3vjfuF_GCl6k7-0" style="edgeStyle=orthogonalEdgeStyle;rounded=0;orthogonalLoop=1;jettySize=auto;html=1;entryX=0.5;entryY=0;entryDx=0;entryDy=0;" parent="6zY4pWlyGY8jc2xjmWDv-4" source="NkEJq934MVSyorXKWJMg-72" target="NkEJq934MVSyorXKWJMg-74" edge="1">
          <mxGeometry relative="1" as="geometry" />
        </mxCell>
        <mxCell id="NkEJq934MVSyorXKWJMg-72" value="" style="shape=line;html=1;strokeWidth=6;strokeColor=#000000;fontSize=11;" parent="6zY4pWlyGY8jc2xjmWDv-4" vertex="1">
          <mxGeometry x="36.25" y="970" width="120" height="10" as="geometry" />
        </mxCell>
        <mxCell id="NkEJq934MVSyorXKWJMg-74" value="" style="ellipse;html=1;shape=endState;fillColor=#000000;strokeColor=#000000;fontSize=11;" parent="6zY4pWlyGY8jc2xjmWDv-4" vertex="1">
          <mxGeometry x="81.25" y="1010" width="30" height="30" as="geometry" />
        </mxCell>
        <mxCell id="6zY4pWlyGY8jc2xjmWDv-5" value="Database" style="swimlane;startSize=20;fontSize=11;strokeColor=#000000;" parent="6zY4pWlyGY8jc2xjmWDv-2" vertex="1">
          <mxGeometry x="400" y="20" width="150" height="1060" as="geometry" />
        </mxCell>
        <mxCell id="l8GIG7hhgauJvcNamH0--0" value="" style="rhombus;whiteSpace=wrap;html=1;fontSize=11;strokeColor=#000000;" parent="6zY4pWlyGY8jc2xjmWDv-5" vertex="1">
          <mxGeometry x="45" y="150" width="40" height="40" as="geometry" />
        </mxCell>
        <mxCell id="b4FFqZhvClWxp8VFo08H-3" value="Validasi" style="text;html=1;strokeColor=none;fillColor=none;align=center;verticalAlign=middle;whiteSpace=wrap;rounded=0;fontSize=11;" parent="6zY4pWlyGY8jc2xjmWDv-5" vertex="1">
          <mxGeometry x="60" y="180" width="60" height="30" as="geometry" />
        </mxCell>
        <mxCell id="NkEJq934MVSyorXKWJMg-4" value="" style="rhombus;whiteSpace=wrap;html=1;fontSize=11;strokeColor=#000000;" parent="6zY4pWlyGY8jc2xjmWDv-5" vertex="1">
          <mxGeometry x="45" y="265" width="40" height="40" as="geometry" />
        </mxCell>
        <mxCell id="NkEJq934MVSyorXKWJMg-9" value="Validasi" style="text;html=1;strokeColor=none;fillColor=none;align=center;verticalAlign=middle;whiteSpace=wrap;rounded=0;fontSize=11;" parent="6zY4pWlyGY8jc2xjmWDv-5" vertex="1">
          <mxGeometry x="70" y="290" width="60" height="30" as="geometry" />
        </mxCell>
        <mxCell id="NkEJq934MVSyorXKWJMg-38" value="Berhasil Diubah" style="shape=cylinder3;whiteSpace=wrap;html=1;boundedLbl=1;backgroundOutline=1;size=15;fontSize=11;strokeColor=#000000;" parent="6zY4pWlyGY8jc2xjmWDv-5" vertex="1">
          <mxGeometry x="37.5" y="465" width="55" height="70" as="geometry" />
        </mxCell>
        <mxCell id="NkEJq934MVSyorXKWJMg-49" style="edgeStyle=orthogonalEdgeStyle;rounded=0;orthogonalLoop=1;jettySize=auto;html=1;entryX=0.5;entryY=0;entryDx=0;entryDy=0;fontSize=11;strokeColor=#000000;" parent="6zY4pWlyGY8jc2xjmWDv-5" source="NkEJq934MVSyorXKWJMg-41" target="NkEJq934MVSyorXKWJMg-43" edge="1">
          <mxGeometry relative="1" as="geometry" />
        </mxCell>
        <mxCell id="NkEJq934MVSyorXKWJMg-41" value="Berhasil Dihapus" style="shape=cylinder3;whiteSpace=wrap;html=1;boundedLbl=1;backgroundOutline=1;size=15;fontSize=11;strokeColor=#000000;" parent="6zY4pWlyGY8jc2xjmWDv-5" vertex="1">
          <mxGeometry x="37.5" y="585" width="55" height="70" as="geometry" />
        </mxCell>
        <mxCell id="NkEJq934MVSyorXKWJMg-45" value="Validasi" style="text;html=1;strokeColor=none;fillColor=none;align=center;verticalAlign=middle;whiteSpace=wrap;rounded=0;fontSize=11;" parent="6zY4pWlyGY8jc2xjmWDv-5" vertex="1">
          <mxGeometry x="70" y="750" width="60" height="30" as="geometry" />
        </mxCell>
        <mxCell id="NkEJq934MVSyorXKWJMg-43" value="Mengecek Data yang Tersimpan" style="rhombus;whiteSpace=wrap;html=1;fontSize=11;strokeColor=#000000;" parent="6zY4pWlyGY8jc2xjmWDv-5" vertex="1">
          <mxGeometry x="14.38" y="680" width="101.25" height="90" as="geometry" />
        </mxCell>
        <mxCell id="NkEJq934MVSyorXKWJMg-63" value="Berhasil Diubah" style="shape=cylinder3;whiteSpace=wrap;html=1;boundedLbl=1;backgroundOutline=1;size=15;fontSize=11;strokeColor=#000000;" parent="6zY4pWlyGY8jc2xjmWDv-5" vertex="1">
          <mxGeometry x="40.01" y="820" width="50" height="70" as="geometry" />
        </mxCell>
        <mxCell id="mc5RtVrg6BQacL5lJhb9-7" style="edgeStyle=orthogonalEdgeStyle;rounded=0;orthogonalLoop=1;jettySize=auto;html=1;entryX=0;entryY=0.5;entryDx=0;entryDy=0;fontSize=11;strokeColor=#000000;" parent="6zY4pWlyGY8jc2xjmWDv-2" source="mc5RtVrg6BQacL5lJhb9-2" target="mc5RtVrg6BQacL5lJhb9-6" edge="1">
          <mxGeometry relative="1" as="geometry" />
        </mxCell>
        <mxCell id="l8GIG7hhgauJvcNamH0--1" style="edgeStyle=orthogonalEdgeStyle;rounded=0;orthogonalLoop=1;jettySize=auto;html=1;entryX=0.5;entryY=0;entryDx=0;entryDy=0;fontSize=11;strokeColor=#000000;" parent="6zY4pWlyGY8jc2xjmWDv-2" source="mc5RtVrg6BQacL5lJhb9-6" target="l8GIG7hhgauJvcNamH0--0" edge="1">
          <mxGeometry relative="1" as="geometry" />
        </mxCell>
        <mxCell id="l8GIG7hhgauJvcNamH0--2" style="edgeStyle=orthogonalEdgeStyle;rounded=0;orthogonalLoop=1;jettySize=auto;html=1;entryX=0.5;entryY=1;entryDx=0;entryDy=0;fontSize=11;strokeColor=#000000;" parent="6zY4pWlyGY8jc2xjmWDv-2" source="l8GIG7hhgauJvcNamH0--0" target="mc5RtVrg6BQacL5lJhb9-2" edge="1">
          <mxGeometry relative="1" as="geometry" />
        </mxCell>
        <mxCell id="l8GIG7hhgauJvcNamH0--3" value="Tidak" style="edgeLabel;html=1;align=center;verticalAlign=middle;resizable=0;points=[];fontSize=11;" parent="l8GIG7hhgauJvcNamH0--2" vertex="1" connectable="0">
          <mxGeometry x="-0.2194" relative="1" as="geometry">
            <mxPoint as="offset" />
          </mxGeometry>
        </mxCell>
        <mxCell id="b4FFqZhvClWxp8VFo08H-1" style="edgeStyle=orthogonalEdgeStyle;rounded=0;orthogonalLoop=1;jettySize=auto;html=1;entryX=1;entryY=0.5;entryDx=0;entryDy=0;fontSize=11;strokeColor=#000000;" parent="6zY4pWlyGY8jc2xjmWDv-2" source="l8GIG7hhgauJvcNamH0--0" target="b4FFqZhvClWxp8VFo08H-0" edge="1">
          <mxGeometry relative="1" as="geometry">
            <Array as="points">
              <mxPoint x="535" y="250" />
            </Array>
          </mxGeometry>
        </mxCell>
        <mxCell id="b4FFqZhvClWxp8VFo08H-2" value="Ya" style="edgeLabel;html=1;align=center;verticalAlign=middle;resizable=0;points=[];fontSize=11;" parent="b4FFqZhvClWxp8VFo08H-1" vertex="1" connectable="0">
          <mxGeometry x="0.04" relative="1" as="geometry">
            <mxPoint as="offset" />
          </mxGeometry>
        </mxCell>
        <mxCell id="NkEJq934MVSyorXKWJMg-1" style="edgeStyle=orthogonalEdgeStyle;rounded=0;orthogonalLoop=1;jettySize=auto;html=1;entryX=1;entryY=0.5;entryDx=0;entryDy=0;fontSize=11;strokeColor=#000000;" parent="6zY4pWlyGY8jc2xjmWDv-2" source="b4FFqZhvClWxp8VFo08H-0" target="NkEJq934MVSyorXKWJMg-0" edge="1">
          <mxGeometry relative="1" as="geometry" />
        </mxCell>
        <mxCell id="NkEJq934MVSyorXKWJMg-6" style="edgeStyle=orthogonalEdgeStyle;rounded=0;orthogonalLoop=1;jettySize=auto;html=1;entryX=0;entryY=0.5;entryDx=0;entryDy=0;fontSize=11;strokeColor=#000000;" parent="6zY4pWlyGY8jc2xjmWDv-2" source="NkEJq934MVSyorXKWJMg-0" target="NkEJq934MVSyorXKWJMg-3" edge="1">
          <mxGeometry relative="1" as="geometry">
            <Array as="points">
              <mxPoint x="100" y="305" />
            </Array>
          </mxGeometry>
        </mxCell>
        <mxCell id="NkEJq934MVSyorXKWJMg-7" style="edgeStyle=orthogonalEdgeStyle;rounded=0;orthogonalLoop=1;jettySize=auto;html=1;entryX=0;entryY=0.5;entryDx=0;entryDy=0;fontSize=11;strokeColor=#000000;" parent="6zY4pWlyGY8jc2xjmWDv-2" source="NkEJq934MVSyorXKWJMg-3" target="NkEJq934MVSyorXKWJMg-4" edge="1">
          <mxGeometry relative="1" as="geometry" />
        </mxCell>
        <mxCell id="NkEJq934MVSyorXKWJMg-12" value="Tidak" style="edgeStyle=orthogonalEdgeStyle;rounded=0;orthogonalLoop=1;jettySize=auto;html=1;entryX=1;entryY=0.5;entryDx=0;entryDy=0;fontSize=11;strokeColor=#000000;" parent="6zY4pWlyGY8jc2xjmWDv-2" source="NkEJq934MVSyorXKWJMg-4" target="NkEJq934MVSyorXKWJMg-2" edge="1">
          <mxGeometry relative="1" as="geometry">
            <Array as="points">
              <mxPoint x="535" y="370" />
            </Array>
          </mxGeometry>
        </mxCell>
        <mxCell id="NkEJq934MVSyorXKWJMg-17" style="edgeStyle=orthogonalEdgeStyle;rounded=0;orthogonalLoop=1;jettySize=auto;html=1;entryX=1;entryY=0.5;entryDx=0;entryDy=0;fontSize=11;strokeColor=#000000;" parent="6zY4pWlyGY8jc2xjmWDv-2" source="NkEJq934MVSyorXKWJMg-4" target="NkEJq934MVSyorXKWJMg-15" edge="1">
          <mxGeometry relative="1" as="geometry">
            <Array as="points">
              <mxPoint x="535" y="435" />
            </Array>
          </mxGeometry>
        </mxCell>
        <mxCell id="NkEJq934MVSyorXKWJMg-18" value="Ya" style="edgeLabel;html=1;align=center;verticalAlign=middle;resizable=0;points=[];fontSize=11;" parent="NkEJq934MVSyorXKWJMg-17" vertex="1" connectable="0">
          <mxGeometry x="0.4" relative="1" as="geometry">
            <mxPoint as="offset" />
          </mxGeometry>
        </mxCell>
        <mxCell id="NkEJq934MVSyorXKWJMg-22" style="edgeStyle=orthogonalEdgeStyle;rounded=0;orthogonalLoop=1;jettySize=auto;html=1;entryX=1;entryY=0.5;entryDx=0;entryDy=0;fontSize=11;strokeColor=#000000;" parent="6zY4pWlyGY8jc2xjmWDv-2" source="NkEJq934MVSyorXKWJMg-15" target="NkEJq934MVSyorXKWJMg-19" edge="1">
          <mxGeometry relative="1" as="geometry" />
        </mxCell>
        <mxCell id="NkEJq934MVSyorXKWJMg-28" value="Ya" style="edgeStyle=orthogonalEdgeStyle;rounded=0;orthogonalLoop=1;jettySize=auto;html=1;entryX=0;entryY=0.5;entryDx=0;entryDy=0;fontSize=11;strokeColor=#000000;" parent="6zY4pWlyGY8jc2xjmWDv-2" source="NkEJq934MVSyorXKWJMg-25" target="NkEJq934MVSyorXKWJMg-27" edge="1">
          <mxGeometry relative="1" as="geometry" />
        </mxCell>
        <mxCell id="NkEJq934MVSyorXKWJMg-37" style="edgeStyle=orthogonalEdgeStyle;rounded=0;orthogonalLoop=1;jettySize=auto;html=1;fontSize=11;strokeColor=#000000;entryX=0;entryY=0.5;entryDx=0;entryDy=0;" parent="6zY4pWlyGY8jc2xjmWDv-2" source="NkEJq934MVSyorXKWJMg-34" target="NkEJq934MVSyorXKWJMg-36" edge="1">
          <mxGeometry relative="1" as="geometry">
            <mxPoint x="140" y="630" as="targetPoint" />
          </mxGeometry>
        </mxCell>
        <mxCell id="NkEJq934MVSyorXKWJMg-39" style="edgeStyle=orthogonalEdgeStyle;rounded=0;orthogonalLoop=1;jettySize=auto;html=1;entryX=0;entryY=0.5;entryDx=0;entryDy=0;entryPerimeter=0;fontSize=11;strokeColor=#000000;" parent="6zY4pWlyGY8jc2xjmWDv-2" source="NkEJq934MVSyorXKWJMg-27" target="NkEJq934MVSyorXKWJMg-38" edge="1">
          <mxGeometry relative="1" as="geometry" />
        </mxCell>
        <mxCell id="NkEJq934MVSyorXKWJMg-40" style="edgeStyle=orthogonalEdgeStyle;rounded=0;orthogonalLoop=1;jettySize=auto;html=1;entryX=1;entryY=0.5;entryDx=0;entryDy=0;fontSize=11;strokeColor=#000000;" parent="6zY4pWlyGY8jc2xjmWDv-2" source="NkEJq934MVSyorXKWJMg-38" target="NkEJq934MVSyorXKWJMg-31" edge="1">
          <mxGeometry relative="1" as="geometry">
            <Array as="points">
              <mxPoint x="530" y="585" />
            </Array>
          </mxGeometry>
        </mxCell>
        <mxCell id="NkEJq934MVSyorXKWJMg-42" style="edgeStyle=orthogonalEdgeStyle;rounded=0;orthogonalLoop=1;jettySize=auto;html=1;entryX=0;entryY=0.5;entryDx=0;entryDy=0;entryPerimeter=0;fontSize=11;strokeColor=#000000;" parent="6zY4pWlyGY8jc2xjmWDv-2" source="NkEJq934MVSyorXKWJMg-36" target="NkEJq934MVSyorXKWJMg-41" edge="1">
          <mxGeometry relative="1" as="geometry" />
        </mxCell>
        <mxCell id="NkEJq934MVSyorXKWJMg-53" value="Tidak" style="edgeStyle=orthogonalEdgeStyle;rounded=0;orthogonalLoop=1;jettySize=auto;html=1;entryX=1;entryY=0.5;entryDx=0;entryDy=0;fontSize=11;strokeColor=#000000;" parent="6zY4pWlyGY8jc2xjmWDv-2" source="NkEJq934MVSyorXKWJMg-43" target="NkEJq934MVSyorXKWJMg-47" edge="1">
          <mxGeometry relative="1" as="geometry" />
        </mxCell>
        <mxCell id="NkEJq934MVSyorXKWJMg-55" value="Ya" style="edgeStyle=orthogonalEdgeStyle;rounded=0;orthogonalLoop=1;jettySize=auto;html=1;entryX=1;entryY=0.5;entryDx=0;entryDy=0;fontSize=11;strokeColor=#000000;" parent="6zY4pWlyGY8jc2xjmWDv-2" source="NkEJq934MVSyorXKWJMg-43" target="NkEJq934MVSyorXKWJMg-46" edge="1">
          <mxGeometry relative="1" as="geometry">
            <Array as="points">
              <mxPoint x="535" y="815" />
            </Array>
          </mxGeometry>
        </mxCell>
        <mxCell id="NkEJq934MVSyorXKWJMg-62" style="edgeStyle=orthogonalEdgeStyle;rounded=0;orthogonalLoop=1;jettySize=auto;html=1;entryX=0;entryY=0.5;entryDx=0;entryDy=0;fontSize=11;strokeColor=#000000;" parent="6zY4pWlyGY8jc2xjmWDv-2" source="NkEJq934MVSyorXKWJMg-58" target="NkEJq934MVSyorXKWJMg-60" edge="1">
          <mxGeometry relative="1" as="geometry">
            <Array as="points">
              <mxPoint x="100" y="875" />
            </Array>
          </mxGeometry>
        </mxCell>
        <mxCell id="NkEJq934MVSyorXKWJMg-64" style="edgeStyle=orthogonalEdgeStyle;rounded=0;orthogonalLoop=1;jettySize=auto;html=1;entryX=0;entryY=0.5;entryDx=0;entryDy=0;entryPerimeter=0;fontSize=11;strokeColor=#000000;" parent="6zY4pWlyGY8jc2xjmWDv-2" source="NkEJq934MVSyorXKWJMg-60" target="NkEJq934MVSyorXKWJMg-63" edge="1">
          <mxGeometry relative="1" as="geometry" />
        </mxCell>
        <mxCell id="NkEJq934MVSyorXKWJMg-77" style="edgeStyle=orthogonalEdgeStyle;rounded=0;orthogonalLoop=1;jettySize=auto;html=1;entryX=1;entryY=0.5;entryDx=0;entryDy=0;fontSize=11;strokeColor=#000000;" parent="6zY4pWlyGY8jc2xjmWDv-2" source="NkEJq934MVSyorXKWJMg-63" target="NkEJq934MVSyorXKWJMg-65" edge="1">
          <mxGeometry relative="1" as="geometry">
            <Array as="points">
              <mxPoint x="535" y="930" />
            </Array>
          </mxGeometry>
        </mxCell>
      </root>
    </mxGraphModel>
  </diagram>
  <diagram id="1ISlfz5LElX5Jxrm4UDL" name="Mengelola Data Transaksi">
    <mxGraphModel dx="868" dy="464" grid="1" gridSize="10" guides="1" tooltips="1" connect="1" arrows="1" fold="1" page="1" pageScale="1" pageWidth="850" pageHeight="1100" math="0" shadow="0">
      <root>
        <mxCell id="EXWoMr9KiN9DjRHXih8C-0" />
        <mxCell id="EXWoMr9KiN9DjRHXih8C-1" parent="EXWoMr9KiN9DjRHXih8C-0" />
        <mxCell id="EXWoMr9KiN9DjRHXih8C-2" value=" Mengelola Data Pembayaran" style="swimlane;childLayout=stackLayout;resizeParent=1;resizeParentMax=0;startSize=20;fontSize=11;strokeColor=#000000;" parent="EXWoMr9KiN9DjRHXih8C-1" vertex="1">
          <mxGeometry x="80" y="10" width="750" height="1380" as="geometry" />
        </mxCell>
        <mxCell id="EXWoMr9KiN9DjRHXih8C-3" value="Admin" style="swimlane;startSize=20;fontSize=11;strokeColor=#000000;" parent="EXWoMr9KiN9DjRHXih8C-2" vertex="1">
          <mxGeometry y="20" width="170" height="1360" as="geometry" />
        </mxCell>
        <mxCell id="P4KKkxH5-u9M_dibEl00-5" style="edgeStyle=orthogonalEdgeStyle;rounded=0;orthogonalLoop=1;jettySize=auto;html=1;entryX=0.5;entryY=0;entryDx=0;entryDy=0;strokeColor=#000000;" parent="EXWoMr9KiN9DjRHXih8C-3" source="P4KKkxH5-u9M_dibEl00-1" target="P4KKkxH5-u9M_dibEl00-3" edge="1">
          <mxGeometry relative="1" as="geometry" />
        </mxCell>
        <mxCell id="P4KKkxH5-u9M_dibEl00-1" value="" style="ellipse;html=1;shape=startState;fillColor=#000000;strokeColor=#000000;" parent="EXWoMr9KiN9DjRHXih8C-3" vertex="1">
          <mxGeometry x="70" y="30" width="30" height="30" as="geometry" />
        </mxCell>
        <mxCell id="P4KKkxH5-u9M_dibEl00-3" value="&lt;font style=&quot;font-size: 11px&quot;&gt;Masukan Username dan Password&lt;/font&gt;" style="rounded=1;whiteSpace=wrap;html=1;strokeColor=#000000;" parent="EXWoMr9KiN9DjRHXih8C-3" vertex="1">
          <mxGeometry x="37.5" y="90" width="95" height="60" as="geometry" />
        </mxCell>
        <mxCell id="FXZAJ75Ykx2xiYGQCE90-0" value="Masuk ke Halaman Pembayaran" style="rounded=1;whiteSpace=wrap;html=1;fontSize=11;strokeColor=#000000;" parent="EXWoMr9KiN9DjRHXih8C-3" vertex="1">
          <mxGeometry x="37.5" y="190" width="95" height="50" as="geometry" />
        </mxCell>
        <mxCell id="pnuy8ImQWD0uZxnPEW-i-4" value="Masuk ke Halaman Detail" style="rounded=1;whiteSpace=wrap;html=1;fontSize=11;strokeColor=#000000;" parent="EXWoMr9KiN9DjRHXih8C-3" vertex="1">
          <mxGeometry x="43.13" y="350" width="83.75" height="50" as="geometry" />
        </mxCell>
        <mxCell id="5G7QdfXK9Cna7A7m_lo9-14" value="Melakukan Konfirmasi Via Whatsapp" style="rounded=1;whiteSpace=wrap;html=1;fontSize=11;strokeColor=#000000;" parent="EXWoMr9KiN9DjRHXih8C-3" vertex="1">
          <mxGeometry x="41.89" y="480" width="84.99" height="50" as="geometry" />
        </mxCell>
        <mxCell id="tKDd-3-gbRGNy4EzDF-O-5" value="Melakukan Pembayaran" style="rounded=1;whiteSpace=wrap;html=1;fontSize=11;strokeColor=#000000;" parent="EXWoMr9KiN9DjRHXih8C-3" vertex="1">
          <mxGeometry x="36.88" y="610" width="95" height="50" as="geometry" />
        </mxCell>
        <mxCell id="tKDd-3-gbRGNy4EzDF-O-26" style="edgeStyle=orthogonalEdgeStyle;rounded=0;orthogonalLoop=1;jettySize=auto;html=1;entryX=0.5;entryY=0;entryDx=0;entryDy=0;fontSize=11;strokeColor=#000000;" parent="EXWoMr9KiN9DjRHXih8C-3" source="tKDd-3-gbRGNy4EzDF-O-8" target="tKDd-3-gbRGNy4EzDF-O-16" edge="1">
          <mxGeometry relative="1" as="geometry" />
        </mxCell>
        <mxCell id="tKDd-3-gbRGNy4EzDF-O-8" value="Bayar di Tempat" style="rhombus;whiteSpace=wrap;html=1;fontSize=11;strokeColor=#000000;" parent="EXWoMr9KiN9DjRHXih8C-3" vertex="1">
          <mxGeometry x="50" y="750" width="70" height="70" as="geometry" />
        </mxCell>
        <mxCell id="tKDd-3-gbRGNy4EzDF-O-16" value="Dompet Digital" style="rhombus;whiteSpace=wrap;html=1;fontSize=11;strokeColor=#000000;" parent="EXWoMr9KiN9DjRHXih8C-3" vertex="1">
          <mxGeometry x="49.07" y="840" width="70.62" height="60" as="geometry" />
        </mxCell>
        <mxCell id="tKDd-3-gbRGNy4EzDF-O-30" value="Melakukan Pemindaian Kode QRIS dan Unggah Bukti Pembayaran" style="rounded=1;whiteSpace=wrap;html=1;fontSize=11;strokeColor=#000000;" parent="EXWoMr9KiN9DjRHXih8C-3" vertex="1">
          <mxGeometry x="31.099999999999998" y="930" width="106.56" height="60" as="geometry" />
        </mxCell>
        <mxCell id="VkwbQJK3LwRZWHqQB9YU-8" value="Melihat Struk Pembayaran &quot;Belum Bayar&quot;" style="rounded=1;whiteSpace=wrap;html=1;strokeColor=#000000;" parent="EXWoMr9KiN9DjRHXih8C-3" vertex="1">
          <mxGeometry x="35.010000000000005" y="1050" width="100" height="50" as="geometry" />
        </mxCell>
        <mxCell id="VkwbQJK3LwRZWHqQB9YU-19" value="Melihat Struk Pembayaran &quot;Lunas&quot;" style="rounded=1;whiteSpace=wrap;html=1;strokeColor=#000000;" parent="EXWoMr9KiN9DjRHXih8C-3" vertex="1">
          <mxGeometry x="31.889999999999997" y="1160" width="104.99" height="50" as="geometry" />
        </mxCell>
        <mxCell id="EXWoMr9KiN9DjRHXih8C-4" value="Sistem" style="swimlane;startSize=20;fontSize=11;strokeColor=#000000;" parent="EXWoMr9KiN9DjRHXih8C-2" vertex="1">
          <mxGeometry x="170" y="20" width="210" height="1360" as="geometry" />
        </mxCell>
        <mxCell id="P4KKkxH5-u9M_dibEl00-6" value="&lt;font style=&quot;font-size: 11px&quot;&gt;Memperoses Username dan Password&lt;/font&gt;" style="rounded=1;whiteSpace=wrap;html=1;strokeColor=#000000;" parent="EXWoMr9KiN9DjRHXih8C-4" vertex="1">
          <mxGeometry x="32.5" y="102.5" width="145" height="35" as="geometry" />
        </mxCell>
        <mxCell id="u4R8OtxpRk-b3mTKbMX5-6" value="Beranda" style="rounded=1;whiteSpace=wrap;html=1;fontSize=11;strokeColor=#000000;" parent="EXWoMr9KiN9DjRHXih8C-4" vertex="1">
          <mxGeometry x="37.5" y="200" width="132.5" height="30" as="geometry" />
        </mxCell>
        <mxCell id="0Eu8dxGTT5jKANFuTydh-0" value="Menampilkan Daftar Transaksi" style="rounded=1;whiteSpace=wrap;html=1;fontSize=11;strokeColor=#000000;" parent="EXWoMr9KiN9DjRHXih8C-4" vertex="1">
          <mxGeometry x="40" y="250" width="130" height="40" as="geometry" />
        </mxCell>
        <mxCell id="MJ-t_UudhF-pEOWF6ePs-2" value="Data Tidak Ada" style="rounded=1;whiteSpace=wrap;html=1;fontSize=11;strokeColor=#000000;" parent="EXWoMr9KiN9DjRHXih8C-4" vertex="1">
          <mxGeometry x="45" y="310" width="120" height="30" as="geometry" />
        </mxCell>
        <mxCell id="pnuy8ImQWD0uZxnPEW-i-1" value="Menampilkan Data Pembayaran" style="rounded=1;whiteSpace=wrap;html=1;fontSize=11;strokeColor=#000000;" parent="EXWoMr9KiN9DjRHXih8C-4" vertex="1">
          <mxGeometry x="42.5" y="360" width="125" height="30" as="geometry" />
        </mxCell>
        <mxCell id="5G7QdfXK9Cna7A7m_lo9-1" style="edgeStyle=orthogonalEdgeStyle;rounded=0;orthogonalLoop=1;jettySize=auto;html=1;entryX=0.5;entryY=0;entryDx=0;entryDy=0;fontSize=11;strokeColor=#000000;" parent="EXWoMr9KiN9DjRHXih8C-4" source="pnuy8ImQWD0uZxnPEW-i-6" target="pnuy8ImQWD0uZxnPEW-i-7" edge="1">
          <mxGeometry relative="1" as="geometry" />
        </mxCell>
        <mxCell id="pnuy8ImQWD0uZxnPEW-i-6" value="Menampilkan Detail Pembayaran" style="rounded=1;whiteSpace=wrap;html=1;fontSize=11;strokeColor=#000000;" parent="EXWoMr9KiN9DjRHXih8C-4" vertex="1">
          <mxGeometry x="45" y="410" width="120" height="40" as="geometry" />
        </mxCell>
        <mxCell id="tKDd-3-gbRGNy4EzDF-O-4" style="edgeStyle=orthogonalEdgeStyle;rounded=0;orthogonalLoop=1;jettySize=auto;html=1;entryX=0.5;entryY=0;entryDx=0;entryDy=0;fontSize=11;strokeColor=#000000;" parent="EXWoMr9KiN9DjRHXih8C-4" source="pnuy8ImQWD0uZxnPEW-i-7" target="tKDd-3-gbRGNy4EzDF-O-3" edge="1">
          <mxGeometry relative="1" as="geometry" />
        </mxCell>
        <mxCell id="pnuy8ImQWD0uZxnPEW-i-7" value="Menunggu Konfirmasi" style="rhombus;whiteSpace=wrap;html=1;fontSize=11;strokeColor=#000000;" parent="EXWoMr9KiN9DjRHXih8C-4" vertex="1">
          <mxGeometry x="9.999999999999993" y="470" width="75.63" height="70" as="geometry" />
        </mxCell>
        <mxCell id="5G7QdfXK9Cna7A7m_lo9-0" value="Mengakses Whatsapp dengan membawa pesan Kode &lt;i&gt;Invoice&lt;/i&gt;" style="rounded=1;whiteSpace=wrap;html=1;fontSize=11;strokeColor=#000000;" parent="EXWoMr9KiN9DjRHXih8C-4" vertex="1">
          <mxGeometry x="80" y="560" width="125" height="40" as="geometry" />
        </mxCell>
        <mxCell id="VkwbQJK3LwRZWHqQB9YU-7" style="edgeStyle=orthogonalEdgeStyle;rounded=0;orthogonalLoop=1;jettySize=auto;html=1;entryX=0.5;entryY=0;entryDx=0;entryDy=0;strokeColor=#000000;" parent="EXWoMr9KiN9DjRHXih8C-4" source="tKDd-3-gbRGNy4EzDF-O-3" target="VkwbQJK3LwRZWHqQB9YU-5" edge="1">
          <mxGeometry relative="1" as="geometry" />
        </mxCell>
        <mxCell id="tKDd-3-gbRGNy4EzDF-O-3" value="Menunggu Pembayaran" style="rhombus;whiteSpace=wrap;html=1;fontSize=11;strokeColor=#000000;" parent="EXWoMr9KiN9DjRHXih8C-4" vertex="1">
          <mxGeometry x="6.310000000000002" y="600" width="83" height="70" as="geometry" />
        </mxCell>
        <mxCell id="tKDd-3-gbRGNy4EzDF-O-7" value="Menampilkan Fitur Metode Pembayaran" style="rounded=1;whiteSpace=wrap;html=1;fontSize=11;strokeColor=#000000;" parent="EXWoMr9KiN9DjRHXih8C-4" vertex="1">
          <mxGeometry x="80" y="690" width="120" height="30" as="geometry" />
        </mxCell>
        <mxCell id="tKDd-3-gbRGNy4EzDF-O-11" value="Memperoses Pesanan" style="rounded=1;whiteSpace=wrap;html=1;fontSize=11;strokeColor=#000000;" parent="EXWoMr9KiN9DjRHXih8C-4" vertex="1">
          <mxGeometry x="80" y="770" width="120" height="30" as="geometry" />
        </mxCell>
        <mxCell id="tKDd-3-gbRGNy4EzDF-O-27" value="Menampilkan Kode QRIS" style="rounded=1;whiteSpace=wrap;html=1;fontSize=11;strokeColor=#000000;" parent="EXWoMr9KiN9DjRHXih8C-4" vertex="1">
          <mxGeometry x="80" y="850" width="120" height="40" as="geometry" />
        </mxCell>
        <mxCell id="tKDd-3-gbRGNy4EzDF-O-32" value="Memperoses Pesanan" style="rounded=1;whiteSpace=wrap;html=1;fontSize=11;strokeColor=#000000;" parent="EXWoMr9KiN9DjRHXih8C-4" vertex="1">
          <mxGeometry x="77.81" y="940" width="120" height="40" as="geometry" />
        </mxCell>
        <mxCell id="VkwbQJK3LwRZWHqQB9YU-14" style="edgeStyle=orthogonalEdgeStyle;rounded=0;orthogonalLoop=1;jettySize=auto;html=1;entryX=0.5;entryY=0;entryDx=0;entryDy=0;strokeColor=#000000;" parent="EXWoMr9KiN9DjRHXih8C-4" source="VkwbQJK3LwRZWHqQB9YU-5" target="VkwbQJK3LwRZWHqQB9YU-13" edge="1">
          <mxGeometry relative="1" as="geometry" />
        </mxCell>
        <mxCell id="VkwbQJK3LwRZWHqQB9YU-5" value="Belum Bayar" style="rhombus;whiteSpace=wrap;html=1;strokeColor=#000000;" parent="EXWoMr9KiN9DjRHXih8C-4" vertex="1">
          <mxGeometry x="17.81" y="995" width="60" height="60" as="geometry" />
        </mxCell>
        <mxCell id="VkwbQJK3LwRZWHqQB9YU-10" value="Menampilkan Struk Pembayaran &quot;Belum Bayar&quot;" style="rounded=1;whiteSpace=wrap;html=1;strokeColor=#000000;" parent="EXWoMr9KiN9DjRHXih8C-4" vertex="1">
          <mxGeometry x="77.81" y="1055" width="120" height="40" as="geometry" />
        </mxCell>
        <mxCell id="VkwbQJK3LwRZWHqQB9YU-13" value="Lunas" style="rhombus;whiteSpace=wrap;html=1;strokeColor=#000000;" parent="EXWoMr9KiN9DjRHXih8C-4" vertex="1">
          <mxGeometry x="21.819999999999993" y="1110" width="52" height="50" as="geometry" />
        </mxCell>
        <mxCell id="DpLpxtnuu0xsqpH4edA9-1" style="edgeStyle=orthogonalEdgeStyle;rounded=0;orthogonalLoop=1;jettySize=auto;html=1;entryX=0.75;entryY=0.5;entryDx=0;entryDy=0;entryPerimeter=0;strokeColor=#000000;" parent="EXWoMr9KiN9DjRHXih8C-4" source="VkwbQJK3LwRZWHqQB9YU-15" target="VkwbQJK3LwRZWHqQB9YU-2" edge="1">
          <mxGeometry relative="1" as="geometry" />
        </mxCell>
        <mxCell id="VkwbQJK3LwRZWHqQB9YU-15" value="Menampilkan Struk Pembayaran &quot;Lunas&quot;" style="rounded=1;whiteSpace=wrap;html=1;strokeColor=#000000;" parent="EXWoMr9KiN9DjRHXih8C-4" vertex="1">
          <mxGeometry x="77.81" y="1165" width="115" height="40" as="geometry" />
        </mxCell>
        <mxCell id="VkwbQJK3LwRZWHqQB9YU-0" value="" style="ellipse;html=1;shape=endState;fillColor=#000000;strokeColor=#000000;" parent="EXWoMr9KiN9DjRHXih8C-4" vertex="1">
          <mxGeometry x="87.5" y="1280" width="30" height="30" as="geometry" />
        </mxCell>
        <mxCell id="DpLpxtnuu0xsqpH4edA9-0" style="edgeStyle=orthogonalEdgeStyle;rounded=0;orthogonalLoop=1;jettySize=auto;html=1;entryX=0.5;entryY=0;entryDx=0;entryDy=0;strokeColor=#000000;" parent="EXWoMr9KiN9DjRHXih8C-4" source="VkwbQJK3LwRZWHqQB9YU-2" target="VkwbQJK3LwRZWHqQB9YU-0" edge="1">
          <mxGeometry relative="1" as="geometry" />
        </mxCell>
        <mxCell id="VkwbQJK3LwRZWHqQB9YU-2" value="" style="shape=line;html=1;strokeWidth=6;strokeColor=#000000;" parent="EXWoMr9KiN9DjRHXih8C-4" vertex="1">
          <mxGeometry x="37.5" y="1240" width="130" height="10" as="geometry" />
        </mxCell>
        <mxCell id="EXWoMr9KiN9DjRHXih8C-5" value="Database" style="swimlane;startSize=20;fontSize=11;strokeColor=#000000;" parent="EXWoMr9KiN9DjRHXih8C-2" vertex="1">
          <mxGeometry x="380" y="20" width="160" height="1360" as="geometry">
            <mxRectangle x="380" y="20" width="30" height="690" as="alternateBounds" />
          </mxGeometry>
        </mxCell>
        <mxCell id="u4R8OtxpRk-b3mTKbMX5-0" value="" style="rhombus;whiteSpace=wrap;html=1;strokeColor=#000000;" parent="EXWoMr9KiN9DjRHXih8C-5" vertex="1">
          <mxGeometry x="55" y="150" width="50" height="42" as="geometry" />
        </mxCell>
        <mxCell id="u4R8OtxpRk-b3mTKbMX5-2" value="&lt;span style=&quot;font-size: 11px&quot;&gt;Validasi&lt;/span&gt;" style="text;html=1;strokeColor=none;fillColor=none;align=center;verticalAlign=middle;whiteSpace=wrap;rounded=0;" parent="EXWoMr9KiN9DjRHXih8C-5" vertex="1">
          <mxGeometry x="90" y="170" width="60" height="30" as="geometry" />
        </mxCell>
        <mxCell id="MJ-t_UudhF-pEOWF6ePs-0" value="Mengecek Data" style="rhombus;whiteSpace=wrap;html=1;fontSize=11;strokeColor=#000000;" parent="EXWoMr9KiN9DjRHXih8C-5" vertex="1">
          <mxGeometry x="60" y="290" width="70" height="70" as="geometry" />
        </mxCell>
        <mxCell id="tKDd-3-gbRGNy4EzDF-O-14" value="Mengubah Status Transaksi Menjadi &quot;Belum Bayar&quot;" style="rounded=1;whiteSpace=wrap;html=1;fontSize=11;strokeColor=#000000;" parent="EXWoMr9KiN9DjRHXih8C-5" vertex="1">
          <mxGeometry x="25" y="765" width="110" height="40" as="geometry" />
        </mxCell>
        <mxCell id="tKDd-3-gbRGNy4EzDF-O-33" value="Mengubah Status Transaksi Menjadi Lunas" style="rounded=1;whiteSpace=wrap;html=1;fontSize=11;strokeColor=#000000;" parent="EXWoMr9KiN9DjRHXih8C-5" vertex="1">
          <mxGeometry x="27.5" y="940" width="105" height="40" as="geometry" />
        </mxCell>
        <mxCell id="P4KKkxH5-u9M_dibEl00-7" style="edgeStyle=orthogonalEdgeStyle;rounded=0;orthogonalLoop=1;jettySize=auto;html=1;entryX=0;entryY=0.5;entryDx=0;entryDy=0;strokeColor=#000000;" parent="EXWoMr9KiN9DjRHXih8C-2" source="P4KKkxH5-u9M_dibEl00-3" target="P4KKkxH5-u9M_dibEl00-6" edge="1">
          <mxGeometry relative="1" as="geometry" />
        </mxCell>
        <mxCell id="u4R8OtxpRk-b3mTKbMX5-1" style="edgeStyle=orthogonalEdgeStyle;rounded=0;orthogonalLoop=1;jettySize=auto;html=1;entryX=0.5;entryY=0;entryDx=0;entryDy=0;strokeColor=#000000;" parent="EXWoMr9KiN9DjRHXih8C-2" source="P4KKkxH5-u9M_dibEl00-6" target="u4R8OtxpRk-b3mTKbMX5-0" edge="1">
          <mxGeometry relative="1" as="geometry" />
        </mxCell>
        <mxCell id="u4R8OtxpRk-b3mTKbMX5-4" style="edgeStyle=orthogonalEdgeStyle;rounded=0;orthogonalLoop=1;jettySize=auto;html=1;entryX=0.5;entryY=1;entryDx=0;entryDy=0;fontSize=11;strokeColor=#000000;" parent="EXWoMr9KiN9DjRHXih8C-2" source="u4R8OtxpRk-b3mTKbMX5-0" target="P4KKkxH5-u9M_dibEl00-3" edge="1">
          <mxGeometry relative="1" as="geometry" />
        </mxCell>
        <mxCell id="u4R8OtxpRk-b3mTKbMX5-5" value="Tidak" style="edgeLabel;html=1;align=center;verticalAlign=middle;resizable=0;points=[];fontSize=11;" parent="u4R8OtxpRk-b3mTKbMX5-4" vertex="1" connectable="0">
          <mxGeometry x="-0.1159" y="-3" relative="1" as="geometry">
            <mxPoint as="offset" />
          </mxGeometry>
        </mxCell>
        <mxCell id="V059hV4esSTGOayh33QH-0" style="edgeStyle=orthogonalEdgeStyle;rounded=0;orthogonalLoop=1;jettySize=auto;html=1;entryX=1;entryY=0.5;entryDx=0;entryDy=0;fontSize=11;strokeColor=#000000;" parent="EXWoMr9KiN9DjRHXih8C-2" source="u4R8OtxpRk-b3mTKbMX5-0" target="u4R8OtxpRk-b3mTKbMX5-6" edge="1">
          <mxGeometry relative="1" as="geometry">
            <Array as="points">
              <mxPoint x="460" y="235" />
            </Array>
          </mxGeometry>
        </mxCell>
        <mxCell id="V059hV4esSTGOayh33QH-1" value="Ya" style="edgeLabel;html=1;align=center;verticalAlign=middle;resizable=0;points=[];fontSize=11;" parent="V059hV4esSTGOayh33QH-0" vertex="1" connectable="0">
          <mxGeometry x="-0.0354" relative="1" as="geometry">
            <mxPoint as="offset" />
          </mxGeometry>
        </mxCell>
        <mxCell id="FXZAJ75Ykx2xiYGQCE90-1" style="edgeStyle=orthogonalEdgeStyle;rounded=0;orthogonalLoop=1;jettySize=auto;html=1;entryX=1;entryY=0.5;entryDx=0;entryDy=0;fontSize=11;strokeColor=#000000;" parent="EXWoMr9KiN9DjRHXih8C-2" source="u4R8OtxpRk-b3mTKbMX5-6" target="FXZAJ75Ykx2xiYGQCE90-0" edge="1">
          <mxGeometry relative="1" as="geometry" />
        </mxCell>
        <mxCell id="4gtpsVfiRaaqT8WpFaCq-0" style="edgeStyle=orthogonalEdgeStyle;rounded=0;orthogonalLoop=1;jettySize=auto;html=1;entryX=0;entryY=0.5;entryDx=0;entryDy=0;fontSize=11;strokeColor=#000000;" parent="EXWoMr9KiN9DjRHXih8C-2" source="FXZAJ75Ykx2xiYGQCE90-0" target="0Eu8dxGTT5jKANFuTydh-0" edge="1">
          <mxGeometry relative="1" as="geometry">
            <Array as="points">
              <mxPoint x="85" y="290" />
            </Array>
          </mxGeometry>
        </mxCell>
        <mxCell id="MJ-t_UudhF-pEOWF6ePs-1" style="edgeStyle=orthogonalEdgeStyle;rounded=0;orthogonalLoop=1;jettySize=auto;html=1;entryX=0.5;entryY=0;entryDx=0;entryDy=0;fontSize=11;strokeColor=#000000;" parent="EXWoMr9KiN9DjRHXih8C-2" source="0Eu8dxGTT5jKANFuTydh-0" target="MJ-t_UudhF-pEOWF6ePs-0" edge="1">
          <mxGeometry relative="1" as="geometry" />
        </mxCell>
        <mxCell id="pnuy8ImQWD0uZxnPEW-i-0" style="edgeStyle=orthogonalEdgeStyle;rounded=0;orthogonalLoop=1;jettySize=auto;html=1;entryX=1;entryY=0.5;entryDx=0;entryDy=0;fontSize=11;strokeColor=#000000;" parent="EXWoMr9KiN9DjRHXih8C-2" source="MJ-t_UudhF-pEOWF6ePs-0" target="MJ-t_UudhF-pEOWF6ePs-2" edge="1">
          <mxGeometry relative="1" as="geometry" />
        </mxCell>
        <mxCell id="pnuy8ImQWD0uZxnPEW-i-2" value="Tidak" style="edgeLabel;html=1;align=center;verticalAlign=middle;resizable=0;points=[];fontSize=11;" parent="pnuy8ImQWD0uZxnPEW-i-0" vertex="1" connectable="0">
          <mxGeometry x="-0.1651" y="-1" relative="1" as="geometry">
            <mxPoint as="offset" />
          </mxGeometry>
        </mxCell>
        <mxCell id="pnuy8ImQWD0uZxnPEW-i-3" style="edgeStyle=orthogonalEdgeStyle;rounded=0;orthogonalLoop=1;jettySize=auto;html=1;entryX=1;entryY=0.5;entryDx=0;entryDy=0;fontSize=11;strokeColor=#000000;" parent="EXWoMr9KiN9DjRHXih8C-2" source="MJ-t_UudhF-pEOWF6ePs-0" target="pnuy8ImQWD0uZxnPEW-i-1" edge="1">
          <mxGeometry relative="1" as="geometry">
            <Array as="points">
              <mxPoint x="475" y="395" />
            </Array>
          </mxGeometry>
        </mxCell>
        <mxCell id="pnuy8ImQWD0uZxnPEW-i-5" style="edgeStyle=orthogonalEdgeStyle;rounded=0;orthogonalLoop=1;jettySize=auto;html=1;entryX=1;entryY=0.5;entryDx=0;entryDy=0;fontSize=11;strokeColor=#000000;" parent="EXWoMr9KiN9DjRHXih8C-2" source="pnuy8ImQWD0uZxnPEW-i-1" target="pnuy8ImQWD0uZxnPEW-i-4" edge="1">
          <mxGeometry relative="1" as="geometry" />
        </mxCell>
        <mxCell id="pnuy8ImQWD0uZxnPEW-i-8" style="edgeStyle=orthogonalEdgeStyle;rounded=0;orthogonalLoop=1;jettySize=auto;html=1;entryX=0;entryY=0.5;entryDx=0;entryDy=0;fontSize=11;strokeColor=#000000;" parent="EXWoMr9KiN9DjRHXih8C-2" source="pnuy8ImQWD0uZxnPEW-i-4" target="pnuy8ImQWD0uZxnPEW-i-6" edge="1">
          <mxGeometry relative="1" as="geometry">
            <Array as="points">
              <mxPoint x="85" y="450" />
            </Array>
          </mxGeometry>
        </mxCell>
        <mxCell id="5G7QdfXK9Cna7A7m_lo9-15" style="edgeStyle=orthogonalEdgeStyle;rounded=0;orthogonalLoop=1;jettySize=auto;html=1;fontSize=11;strokeColor=#000000;" parent="EXWoMr9KiN9DjRHXih8C-2" source="pnuy8ImQWD0uZxnPEW-i-7" target="5G7QdfXK9Cna7A7m_lo9-14" edge="1">
          <mxGeometry relative="1" as="geometry" />
        </mxCell>
        <mxCell id="tKDd-3-gbRGNy4EzDF-O-2" style="edgeStyle=orthogonalEdgeStyle;rounded=0;orthogonalLoop=1;jettySize=auto;html=1;entryX=0;entryY=0.5;entryDx=0;entryDy=0;fontSize=11;strokeColor=#000000;" parent="EXWoMr9KiN9DjRHXih8C-2" source="5G7QdfXK9Cna7A7m_lo9-14" target="5G7QdfXK9Cna7A7m_lo9-0" edge="1">
          <mxGeometry relative="1" as="geometry">
            <Array as="points">
              <mxPoint x="84" y="600" />
            </Array>
          </mxGeometry>
        </mxCell>
        <mxCell id="tKDd-3-gbRGNy4EzDF-O-6" style="edgeStyle=orthogonalEdgeStyle;rounded=0;orthogonalLoop=1;jettySize=auto;html=1;entryX=1;entryY=0.5;entryDx=0;entryDy=0;fontSize=11;strokeColor=#000000;" parent="EXWoMr9KiN9DjRHXih8C-2" source="tKDd-3-gbRGNy4EzDF-O-3" target="tKDd-3-gbRGNy4EzDF-O-5" edge="1">
          <mxGeometry relative="1" as="geometry" />
        </mxCell>
        <mxCell id="tKDd-3-gbRGNy4EzDF-O-9" style="edgeStyle=orthogonalEdgeStyle;rounded=0;orthogonalLoop=1;jettySize=auto;html=1;entryX=0;entryY=0.5;entryDx=0;entryDy=0;fontSize=11;strokeColor=#000000;" parent="EXWoMr9KiN9DjRHXih8C-2" source="tKDd-3-gbRGNy4EzDF-O-5" target="tKDd-3-gbRGNy4EzDF-O-7" edge="1">
          <mxGeometry relative="1" as="geometry">
            <Array as="points">
              <mxPoint x="84" y="725" />
            </Array>
          </mxGeometry>
        </mxCell>
        <mxCell id="tKDd-3-gbRGNy4EzDF-O-10" style="edgeStyle=orthogonalEdgeStyle;rounded=0;orthogonalLoop=1;jettySize=auto;html=1;entryX=0.5;entryY=0;entryDx=0;entryDy=0;fontSize=11;strokeColor=#000000;" parent="EXWoMr9KiN9DjRHXih8C-2" source="tKDd-3-gbRGNy4EzDF-O-7" target="tKDd-3-gbRGNy4EzDF-O-8" edge="1">
          <mxGeometry relative="1" as="geometry">
            <Array as="points">
              <mxPoint x="275" y="750" />
            </Array>
          </mxGeometry>
        </mxCell>
        <mxCell id="tKDd-3-gbRGNy4EzDF-O-17" style="edgeStyle=orthogonalEdgeStyle;rounded=0;orthogonalLoop=1;jettySize=auto;html=1;entryX=0;entryY=0.5;entryDx=0;entryDy=0;fontSize=11;strokeColor=#000000;" parent="EXWoMr9KiN9DjRHXih8C-2" source="tKDd-3-gbRGNy4EzDF-O-8" target="tKDd-3-gbRGNy4EzDF-O-11" edge="1">
          <mxGeometry relative="1" as="geometry" />
        </mxCell>
        <mxCell id="tKDd-3-gbRGNy4EzDF-O-18" style="edgeStyle=orthogonalEdgeStyle;rounded=0;orthogonalLoop=1;jettySize=auto;html=1;entryX=0;entryY=0.5;entryDx=0;entryDy=0;fontSize=11;strokeColor=#000000;" parent="EXWoMr9KiN9DjRHXih8C-2" source="tKDd-3-gbRGNy4EzDF-O-11" target="tKDd-3-gbRGNy4EzDF-O-14" edge="1">
          <mxGeometry relative="1" as="geometry" />
        </mxCell>
        <mxCell id="tKDd-3-gbRGNy4EzDF-O-19" value="Whatsapp" style="swimlane;startSize=20;fontSize=11;strokeColor=#000000;" parent="EXWoMr9KiN9DjRHXih8C-2" vertex="1">
          <mxGeometry x="540" y="20" width="210" height="1360" as="geometry">
            <mxRectangle x="380" y="20" width="30" height="690" as="alternateBounds" />
          </mxGeometry>
        </mxCell>
        <mxCell id="tKDd-3-gbRGNy4EzDF-O-24" value="Menghubungi Admin/Kasir" style="rounded=1;whiteSpace=wrap;html=1;fontSize=11;strokeColor=#000000;" parent="tKDd-3-gbRGNy4EzDF-O-19" vertex="1">
          <mxGeometry x="20" y="555" width="120" height="50" as="geometry" />
        </mxCell>
        <mxCell id="tKDd-3-gbRGNy4EzDF-O-25" style="edgeStyle=orthogonalEdgeStyle;rounded=0;orthogonalLoop=1;jettySize=auto;html=1;fontSize=11;strokeColor=#000000;" parent="EXWoMr9KiN9DjRHXih8C-2" source="5G7QdfXK9Cna7A7m_lo9-0" target="tKDd-3-gbRGNy4EzDF-O-24" edge="1">
          <mxGeometry relative="1" as="geometry" />
        </mxCell>
        <mxCell id="tKDd-3-gbRGNy4EzDF-O-28" style="edgeStyle=orthogonalEdgeStyle;rounded=0;orthogonalLoop=1;jettySize=auto;html=1;entryX=0;entryY=0.5;entryDx=0;entryDy=0;fontSize=11;strokeColor=#000000;" parent="EXWoMr9KiN9DjRHXih8C-2" source="tKDd-3-gbRGNy4EzDF-O-16" target="tKDd-3-gbRGNy4EzDF-O-27" edge="1">
          <mxGeometry relative="1" as="geometry" />
        </mxCell>
        <mxCell id="tKDd-3-gbRGNy4EzDF-O-35" style="edgeStyle=orthogonalEdgeStyle;rounded=0;orthogonalLoop=1;jettySize=auto;html=1;entryX=0.5;entryY=0;entryDx=0;entryDy=0;fontSize=11;strokeColor=#000000;" parent="EXWoMr9KiN9DjRHXih8C-2" source="tKDd-3-gbRGNy4EzDF-O-27" target="tKDd-3-gbRGNy4EzDF-O-30" edge="1">
          <mxGeometry relative="1" as="geometry">
            <Array as="points">
              <mxPoint x="280" y="930" />
              <mxPoint x="84" y="930" />
            </Array>
          </mxGeometry>
        </mxCell>
        <mxCell id="tKDd-3-gbRGNy4EzDF-O-36" style="edgeStyle=orthogonalEdgeStyle;rounded=0;orthogonalLoop=1;jettySize=auto;html=1;entryX=0;entryY=0.5;entryDx=0;entryDy=0;fontSize=11;strokeColor=#000000;" parent="EXWoMr9KiN9DjRHXih8C-2" source="tKDd-3-gbRGNy4EzDF-O-30" target="tKDd-3-gbRGNy4EzDF-O-32" edge="1">
          <mxGeometry relative="1" as="geometry" />
        </mxCell>
        <mxCell id="tKDd-3-gbRGNy4EzDF-O-37" style="edgeStyle=orthogonalEdgeStyle;rounded=0;orthogonalLoop=1;jettySize=auto;html=1;entryX=0;entryY=0.5;entryDx=0;entryDy=0;fontSize=11;strokeColor=#000000;" parent="EXWoMr9KiN9DjRHXih8C-2" source="tKDd-3-gbRGNy4EzDF-O-32" target="tKDd-3-gbRGNy4EzDF-O-33" edge="1">
          <mxGeometry relative="1" as="geometry" />
        </mxCell>
        <mxCell id="VkwbQJK3LwRZWHqQB9YU-16" style="edgeStyle=orthogonalEdgeStyle;rounded=0;orthogonalLoop=1;jettySize=auto;html=1;entryX=0.5;entryY=0;entryDx=0;entryDy=0;strokeColor=#000000;" parent="EXWoMr9KiN9DjRHXih8C-2" source="VkwbQJK3LwRZWHqQB9YU-5" target="VkwbQJK3LwRZWHqQB9YU-8" edge="1">
          <mxGeometry relative="1" as="geometry" />
        </mxCell>
        <mxCell id="VkwbQJK3LwRZWHqQB9YU-17" style="edgeStyle=orthogonalEdgeStyle;rounded=0;orthogonalLoop=1;jettySize=auto;html=1;entryX=0;entryY=0.5;entryDx=0;entryDy=0;strokeColor=#000000;" parent="EXWoMr9KiN9DjRHXih8C-2" source="VkwbQJK3LwRZWHqQB9YU-8" target="VkwbQJK3LwRZWHqQB9YU-10" edge="1">
          <mxGeometry relative="1" as="geometry" />
        </mxCell>
        <mxCell id="VkwbQJK3LwRZWHqQB9YU-20" style="edgeStyle=orthogonalEdgeStyle;rounded=0;orthogonalLoop=1;jettySize=auto;html=1;entryX=0.5;entryY=0;entryDx=0;entryDy=0;strokeColor=#000000;" parent="EXWoMr9KiN9DjRHXih8C-2" source="VkwbQJK3LwRZWHqQB9YU-13" target="VkwbQJK3LwRZWHqQB9YU-19" edge="1">
          <mxGeometry relative="1" as="geometry" />
        </mxCell>
        <mxCell id="VkwbQJK3LwRZWHqQB9YU-21" style="edgeStyle=orthogonalEdgeStyle;rounded=0;orthogonalLoop=1;jettySize=auto;html=1;entryX=0;entryY=0.5;entryDx=0;entryDy=0;strokeColor=#000000;" parent="EXWoMr9KiN9DjRHXih8C-2" source="VkwbQJK3LwRZWHqQB9YU-19" target="VkwbQJK3LwRZWHqQB9YU-15" edge="1">
          <mxGeometry relative="1" as="geometry" />
        </mxCell>
        <mxCell id="VkwbQJK3LwRZWHqQB9YU-23" style="edgeStyle=orthogonalEdgeStyle;rounded=0;orthogonalLoop=1;jettySize=auto;html=1;entryX=1;entryY=0.5;entryDx=0;entryDy=0;entryPerimeter=0;strokeColor=#000000;" parent="EXWoMr9KiN9DjRHXih8C-2" source="tKDd-3-gbRGNy4EzDF-O-33" target="VkwbQJK3LwRZWHqQB9YU-2" edge="1">
          <mxGeometry relative="1" as="geometry">
            <Array as="points">
              <mxPoint x="460" y="1265" />
            </Array>
          </mxGeometry>
        </mxCell>
      </root>
    </mxGraphModel>
  </diagram>
  <diagram id="iptWy2UTGXpd1_2LmTiM" name="Mengelola Data Admin dan Kasir">
    <mxGraphModel dx="868" dy="464" grid="1" gridSize="10" guides="1" tooltips="1" connect="1" arrows="1" fold="1" page="1" pageScale="1" pageWidth="850" pageHeight="1100" math="0" shadow="0">
      <root>
        <mxCell id="mQmmFYdoZKdc9D-ff9Vp-0" />
        <mxCell id="mQmmFYdoZKdc9D-ff9Vp-1" parent="mQmmFYdoZKdc9D-ff9Vp-0" />
        <mxCell id="mQmmFYdoZKdc9D-ff9Vp-2" value="Mengelola Data Admin dan Kasir" style="swimlane;childLayout=stackLayout;resizeParent=1;resizeParentMax=0;startSize=20;fontSize=11;strokeColor=#000000;" parent="mQmmFYdoZKdc9D-ff9Vp-1" vertex="1">
          <mxGeometry x="280" y="40" width="660" height="1160" as="geometry" />
        </mxCell>
        <mxCell id="mQmmFYdoZKdc9D-ff9Vp-3" value="Admin" style="swimlane;startSize=20;fontSize=11;strokeColor=#000000;" parent="mQmmFYdoZKdc9D-ff9Vp-2" vertex="1">
          <mxGeometry y="20" width="235" height="1140" as="geometry" />
        </mxCell>
        <mxCell id="P1CUR89Kg3pRW28VDL5H-3" style="edgeStyle=orthogonalEdgeStyle;rounded=0;orthogonalLoop=1;jettySize=auto;html=1;entryX=0.5;entryY=0;entryDx=0;entryDy=0;fontSize=11;strokeColor=#000000;" parent="mQmmFYdoZKdc9D-ff9Vp-3" source="P1CUR89Kg3pRW28VDL5H-0" target="P1CUR89Kg3pRW28VDL5H-2" edge="1">
          <mxGeometry relative="1" as="geometry" />
        </mxCell>
        <mxCell id="P1CUR89Kg3pRW28VDL5H-0" value="" style="ellipse;html=1;shape=startState;fillColor=#000000;strokeColor=#000000;fontSize=11;" parent="mQmmFYdoZKdc9D-ff9Vp-3" vertex="1">
          <mxGeometry x="65" y="40" width="30" height="30" as="geometry" />
        </mxCell>
        <mxCell id="P1CUR89Kg3pRW28VDL5H-2" value="Masukan Username dan Password" style="rounded=1;whiteSpace=wrap;html=1;fontSize=11;strokeColor=#000000;" parent="mQmmFYdoZKdc9D-ff9Vp-3" vertex="1">
          <mxGeometry x="35" y="100" width="90" height="50" as="geometry" />
        </mxCell>
        <mxCell id="VQLB6GfwAH5LhAOpc4Qx-0" value="Masuk ke Halaman Data Kasir" style="rounded=1;whiteSpace=wrap;html=1;fontSize=11;strokeColor=#000000;" parent="mQmmFYdoZKdc9D-ff9Vp-3" vertex="1">
          <mxGeometry x="30" y="205" width="100" height="50" as="geometry" />
        </mxCell>
        <mxCell id="0ExI7t5zUDaYTISisU2D-9" value="Mengisi Data&amp;nbsp;" style="rounded=1;whiteSpace=wrap;html=1;strokeColor=#000000;" parent="mQmmFYdoZKdc9D-ff9Vp-3" vertex="1">
          <mxGeometry x="110" y="430" width="80" height="50" as="geometry" />
        </mxCell>
        <mxCell id="pMdaFxTydQ8j_dU6FZVj-13" style="edgeStyle=orthogonalEdgeStyle;rounded=0;orthogonalLoop=1;jettySize=auto;html=1;entryX=0.5;entryY=0;entryDx=0;entryDy=0;" edge="1" parent="mQmmFYdoZKdc9D-ff9Vp-3" source="pMdaFxTydQ8j_dU6FZVj-4" target="pMdaFxTydQ8j_dU6FZVj-9">
          <mxGeometry relative="1" as="geometry" />
        </mxCell>
        <mxCell id="pMdaFxTydQ8j_dU6FZVj-4" value="Menambahkan Data Kasir" style="rhombus;whiteSpace=wrap;html=1;" vertex="1" parent="mQmmFYdoZKdc9D-ff9Vp-3">
          <mxGeometry x="25" y="340" width="110" height="80" as="geometry" />
        </mxCell>
        <mxCell id="pMdaFxTydQ8j_dU6FZVj-38" style="edgeStyle=orthogonalEdgeStyle;rounded=0;orthogonalLoop=1;jettySize=auto;html=1;entryX=0.5;entryY=0;entryDx=0;entryDy=0;" edge="1" parent="mQmmFYdoZKdc9D-ff9Vp-3" source="pMdaFxTydQ8j_dU6FZVj-9" target="pMdaFxTydQ8j_dU6FZVj-37">
          <mxGeometry relative="1" as="geometry" />
        </mxCell>
        <mxCell id="pMdaFxTydQ8j_dU6FZVj-9" value="Mengubah Data Kasir" style="rhombus;whiteSpace=wrap;html=1;" vertex="1" parent="mQmmFYdoZKdc9D-ff9Vp-3">
          <mxGeometry x="25" y="570" width="110" height="80" as="geometry" />
        </mxCell>
        <mxCell id="pMdaFxTydQ8j_dU6FZVj-25" value="Mengubah Data" style="rounded=1;whiteSpace=wrap;html=1;strokeColor=#000000;" vertex="1" parent="mQmmFYdoZKdc9D-ff9Vp-3">
          <mxGeometry x="105" y="670" width="90" height="50" as="geometry" />
        </mxCell>
        <mxCell id="pMdaFxTydQ8j_dU6FZVj-37" value="Menghapus Data Kasir" style="rhombus;whiteSpace=wrap;html=1;" vertex="1" parent="mQmmFYdoZKdc9D-ff9Vp-3">
          <mxGeometry x="40" y="815" width="80" height="80" as="geometry" />
        </mxCell>
        <mxCell id="pMdaFxTydQ8j_dU6FZVj-41" value="Menghapus Data?" style="rhombus;whiteSpace=wrap;html=1;" vertex="1" parent="mQmmFYdoZKdc9D-ff9Vp-3">
          <mxGeometry x="110" y="910" width="90" height="80" as="geometry" />
        </mxCell>
        <mxCell id="mQmmFYdoZKdc9D-ff9Vp-4" value="Sistem" style="swimlane;startSize=20;fontSize=11;strokeColor=#000000;" parent="mQmmFYdoZKdc9D-ff9Vp-2" vertex="1">
          <mxGeometry x="235" y="20" width="180" height="1140" as="geometry" />
        </mxCell>
        <mxCell id="P1CUR89Kg3pRW28VDL5H-4" value="Memperoses Username dan Password" style="rounded=1;whiteSpace=wrap;html=1;fontSize=11;strokeColor=#000000;" parent="mQmmFYdoZKdc9D-ff9Vp-4" vertex="1">
          <mxGeometry x="25" y="105" width="130" height="40" as="geometry" />
        </mxCell>
        <mxCell id="P1CUR89Kg3pRW28VDL5H-12" value="Beranda" style="rounded=1;whiteSpace=wrap;html=1;fontSize=11;strokeColor=#000000;" parent="mQmmFYdoZKdc9D-ff9Vp-4" vertex="1">
          <mxGeometry x="25" y="215" width="130" height="30" as="geometry" />
        </mxCell>
        <mxCell id="0ExI7t5zUDaYTISisU2D-3" value="Menampilkan Data Kasir" style="rounded=1;whiteSpace=wrap;html=1;strokeColor=#000000;" parent="mQmmFYdoZKdc9D-ff9Vp-4" vertex="1">
          <mxGeometry x="30" y="280" width="120" height="30" as="geometry" />
        </mxCell>
        <mxCell id="0ExI7t5zUDaYTISisU2D-7" value="Menampilkan Form Data&amp;nbsp;" style="rounded=1;whiteSpace=wrap;html=1;strokeColor=#000000;" parent="mQmmFYdoZKdc9D-ff9Vp-4" vertex="1">
          <mxGeometry x="25" y="365" width="120" height="30" as="geometry" />
        </mxCell>
        <mxCell id="pMdaFxTydQ8j_dU6FZVj-18" value="Tidak" style="edgeStyle=orthogonalEdgeStyle;rounded=0;orthogonalLoop=1;jettySize=auto;html=1;" edge="1" parent="mQmmFYdoZKdc9D-ff9Vp-4" source="0ExI7t5zUDaYTISisU2D-13" target="pMdaFxTydQ8j_dU6FZVj-3">
          <mxGeometry relative="1" as="geometry" />
        </mxCell>
        <mxCell id="0ExI7t5zUDaYTISisU2D-13" value="Apakah Data Valid" style="rhombus;whiteSpace=wrap;html=1;strokeColor=#000000;" parent="mQmmFYdoZKdc9D-ff9Vp-4" vertex="1">
          <mxGeometry x="30" y="420" width="100" height="70" as="geometry" />
        </mxCell>
        <mxCell id="pMdaFxTydQ8j_dU6FZVj-3" value="Menampilkan Pesan Galat" style="rounded=1;whiteSpace=wrap;html=1;strokeColor=#000000;" vertex="1" parent="mQmmFYdoZKdc9D-ff9Vp-4">
          <mxGeometry x="20" y="530" width="120" height="30" as="geometry" />
        </mxCell>
        <mxCell id="pMdaFxTydQ8j_dU6FZVj-23" value="Menampilkan Data Berdasarkan ID" style="rounded=1;whiteSpace=wrap;html=1;strokeColor=#000000;" vertex="1" parent="mQmmFYdoZKdc9D-ff9Vp-4">
          <mxGeometry x="21.25" y="595" width="127.5" height="30" as="geometry" />
        </mxCell>
        <mxCell id="pMdaFxTydQ8j_dU6FZVj-33" value="Tidak" style="edgeStyle=orthogonalEdgeStyle;rounded=0;orthogonalLoop=1;jettySize=auto;html=1;entryX=0.5;entryY=0;entryDx=0;entryDy=0;" edge="1" parent="mQmmFYdoZKdc9D-ff9Vp-4" source="pMdaFxTydQ8j_dU6FZVj-29" target="pMdaFxTydQ8j_dU6FZVj-32">
          <mxGeometry relative="1" as="geometry" />
        </mxCell>
        <mxCell id="pMdaFxTydQ8j_dU6FZVj-29" value="Apakah Data Valid" style="rhombus;whiteSpace=wrap;html=1;" vertex="1" parent="mQmmFYdoZKdc9D-ff9Vp-4">
          <mxGeometry x="43.75" y="655" width="92.5" height="80" as="geometry" />
        </mxCell>
        <mxCell id="pMdaFxTydQ8j_dU6FZVj-32" value="Menampilkan Pesan Galat" style="rounded=1;whiteSpace=wrap;html=1;strokeColor=#000000;" vertex="1" parent="mQmmFYdoZKdc9D-ff9Vp-4">
          <mxGeometry x="30" y="780" width="120" height="30" as="geometry" />
        </mxCell>
        <mxCell id="pMdaFxTydQ8j_dU6FZVj-39" value="Menampilkan Dialog Pesan Hapus Data Berdasarkan ID" style="rounded=1;whiteSpace=wrap;html=1;strokeColor=#000000;" vertex="1" parent="mQmmFYdoZKdc9D-ff9Vp-4">
          <mxGeometry x="21.25" y="830" width="140" height="50" as="geometry" />
        </mxCell>
        <mxCell id="pMdaFxTydQ8j_dU6FZVj-45" value="Memperoses Hapus Data" style="rounded=1;whiteSpace=wrap;html=1;strokeColor=#000000;" vertex="1" parent="mQmmFYdoZKdc9D-ff9Vp-4">
          <mxGeometry x="25" y="935" width="120" height="30" as="geometry" />
        </mxCell>
        <mxCell id="pMdaFxTydQ8j_dU6FZVj-49" value="" style="ellipse;html=1;shape=endState;fillColor=#000000;strokeColor=#000000;" vertex="1" parent="mQmmFYdoZKdc9D-ff9Vp-4">
          <mxGeometry x="71.25" y="1080" width="30" height="30" as="geometry" />
        </mxCell>
        <mxCell id="pMdaFxTydQ8j_dU6FZVj-63" style="edgeStyle=orthogonalEdgeStyle;rounded=0;orthogonalLoop=1;jettySize=auto;html=1;entryX=0.5;entryY=0;entryDx=0;entryDy=0;strokeColor=#000000;" edge="1" parent="mQmmFYdoZKdc9D-ff9Vp-4" source="pMdaFxTydQ8j_dU6FZVj-52" target="pMdaFxTydQ8j_dU6FZVj-49">
          <mxGeometry relative="1" as="geometry" />
        </mxCell>
        <mxCell id="pMdaFxTydQ8j_dU6FZVj-52" value="" style="shape=line;html=1;strokeWidth=6;strokeColor=#000000;" vertex="1" parent="mQmmFYdoZKdc9D-ff9Vp-4">
          <mxGeometry x="23.75" y="1030" width="125" height="10" as="geometry" />
        </mxCell>
        <mxCell id="mQmmFYdoZKdc9D-ff9Vp-5" value="Database" style="swimlane;startSize=20;fontSize=11;strokeColor=#000000;" parent="mQmmFYdoZKdc9D-ff9Vp-2" vertex="1">
          <mxGeometry x="415" y="20" width="245" height="1140" as="geometry" />
        </mxCell>
        <mxCell id="P1CUR89Kg3pRW28VDL5H-6" value="" style="rhombus;whiteSpace=wrap;html=1;fontSize=11;strokeColor=#000000;" parent="mQmmFYdoZKdc9D-ff9Vp-5" vertex="1">
          <mxGeometry x="45" y="150" width="50" height="50" as="geometry" />
        </mxCell>
        <mxCell id="P1CUR89Kg3pRW28VDL5H-8" value="Validasi" style="text;html=1;strokeColor=none;fillColor=none;align=center;verticalAlign=middle;whiteSpace=wrap;rounded=0;fontSize=11;" parent="mQmmFYdoZKdc9D-ff9Vp-5" vertex="1">
          <mxGeometry x="80" y="180" width="60" height="30" as="geometry" />
        </mxCell>
        <mxCell id="pMdaFxTydQ8j_dU6FZVj-20" value="Menyimpan Data" style="rounded=1;whiteSpace=wrap;html=1;strokeColor=#000000;" vertex="1" parent="mQmmFYdoZKdc9D-ff9Vp-5">
          <mxGeometry x="80" y="435" width="85" height="40" as="geometry" />
        </mxCell>
        <mxCell id="pMdaFxTydQ8j_dU6FZVj-34" value="Berhasil Mengubah Data" style="rounded=1;whiteSpace=wrap;html=1;strokeColor=#000000;" vertex="1" parent="mQmmFYdoZKdc9D-ff9Vp-5">
          <mxGeometry x="15" y="675" width="90" height="40" as="geometry" />
        </mxCell>
        <mxCell id="pMdaFxTydQ8j_dU6FZVj-47" value="Berhasil Dihapus" style="rounded=1;whiteSpace=wrap;html=1;" vertex="1" parent="mQmmFYdoZKdc9D-ff9Vp-5">
          <mxGeometry x="145" y="932.5" width="85" height="35" as="geometry" />
        </mxCell>
        <mxCell id="P1CUR89Kg3pRW28VDL5H-5" style="edgeStyle=orthogonalEdgeStyle;rounded=0;orthogonalLoop=1;jettySize=auto;html=1;entryX=0;entryY=0.5;entryDx=0;entryDy=0;fontSize=11;strokeColor=#000000;" parent="mQmmFYdoZKdc9D-ff9Vp-2" source="P1CUR89Kg3pRW28VDL5H-2" target="P1CUR89Kg3pRW28VDL5H-4" edge="1">
          <mxGeometry relative="1" as="geometry" />
        </mxCell>
        <mxCell id="P1CUR89Kg3pRW28VDL5H-7" style="edgeStyle=orthogonalEdgeStyle;rounded=0;orthogonalLoop=1;jettySize=auto;html=1;entryX=0.5;entryY=0;entryDx=0;entryDy=0;fontSize=11;strokeColor=#000000;" parent="mQmmFYdoZKdc9D-ff9Vp-2" source="P1CUR89Kg3pRW28VDL5H-4" target="P1CUR89Kg3pRW28VDL5H-6" edge="1">
          <mxGeometry relative="1" as="geometry" />
        </mxCell>
        <mxCell id="P1CUR89Kg3pRW28VDL5H-9" style="edgeStyle=orthogonalEdgeStyle;rounded=0;orthogonalLoop=1;jettySize=auto;html=1;entryX=0.5;entryY=1;entryDx=0;entryDy=0;fontSize=11;strokeColor=#000000;" parent="mQmmFYdoZKdc9D-ff9Vp-2" source="P1CUR89Kg3pRW28VDL5H-6" target="P1CUR89Kg3pRW28VDL5H-2" edge="1">
          <mxGeometry relative="1" as="geometry" />
        </mxCell>
        <mxCell id="P1CUR89Kg3pRW28VDL5H-10" value="Tidak" style="edgeLabel;html=1;align=center;verticalAlign=middle;resizable=0;points=[];fontSize=11;" parent="P1CUR89Kg3pRW28VDL5H-9" vertex="1" connectable="0">
          <mxGeometry x="-0.1818" y="1" relative="1" as="geometry">
            <mxPoint as="offset" />
          </mxGeometry>
        </mxCell>
        <mxCell id="P1CUR89Kg3pRW28VDL5H-13" style="edgeStyle=orthogonalEdgeStyle;rounded=0;orthogonalLoop=1;jettySize=auto;html=1;entryX=1;entryY=0.5;entryDx=0;entryDy=0;fontSize=11;strokeColor=#000000;" parent="mQmmFYdoZKdc9D-ff9Vp-2" source="P1CUR89Kg3pRW28VDL5H-6" target="P1CUR89Kg3pRW28VDL5H-12" edge="1">
          <mxGeometry relative="1" as="geometry">
            <Array as="points">
              <mxPoint x="485" y="250" />
            </Array>
          </mxGeometry>
        </mxCell>
        <mxCell id="P1CUR89Kg3pRW28VDL5H-14" value="Ya" style="edgeLabel;html=1;align=center;verticalAlign=middle;resizable=0;points=[];fontSize=11;" parent="P1CUR89Kg3pRW28VDL5H-13" vertex="1" connectable="0">
          <mxGeometry x="-0.072" relative="1" as="geometry">
            <mxPoint as="offset" />
          </mxGeometry>
        </mxCell>
        <mxCell id="0ExI7t5zUDaYTISisU2D-0" style="edgeStyle=orthogonalEdgeStyle;rounded=0;orthogonalLoop=1;jettySize=auto;html=1;entryX=1;entryY=0.5;entryDx=0;entryDy=0;strokeColor=#000000;" parent="mQmmFYdoZKdc9D-ff9Vp-2" source="P1CUR89Kg3pRW28VDL5H-12" target="VQLB6GfwAH5LhAOpc4Qx-0" edge="1">
          <mxGeometry relative="1" as="geometry" />
        </mxCell>
        <mxCell id="0ExI7t5zUDaYTISisU2D-4" style="edgeStyle=orthogonalEdgeStyle;rounded=0;orthogonalLoop=1;jettySize=auto;html=1;entryX=0;entryY=0.5;entryDx=0;entryDy=0;strokeColor=#000000;" parent="mQmmFYdoZKdc9D-ff9Vp-2" source="VQLB6GfwAH5LhAOpc4Qx-0" target="0ExI7t5zUDaYTISisU2D-3" edge="1">
          <mxGeometry relative="1" as="geometry">
            <Array as="points">
              <mxPoint x="80" y="315" />
            </Array>
          </mxGeometry>
        </mxCell>
        <mxCell id="pMdaFxTydQ8j_dU6FZVj-7" style="edgeStyle=orthogonalEdgeStyle;rounded=0;orthogonalLoop=1;jettySize=auto;html=1;entryX=0;entryY=0.5;entryDx=0;entryDy=0;" edge="1" parent="mQmmFYdoZKdc9D-ff9Vp-2" source="pMdaFxTydQ8j_dU6FZVj-4" target="0ExI7t5zUDaYTISisU2D-7">
          <mxGeometry relative="1" as="geometry" />
        </mxCell>
        <mxCell id="pMdaFxTydQ8j_dU6FZVj-12" style="edgeStyle=orthogonalEdgeStyle;rounded=0;orthogonalLoop=1;jettySize=auto;html=1;entryX=0.5;entryY=0;entryDx=0;entryDy=0;" edge="1" parent="mQmmFYdoZKdc9D-ff9Vp-2" source="0ExI7t5zUDaYTISisU2D-7" target="0ExI7t5zUDaYTISisU2D-9">
          <mxGeometry relative="1" as="geometry">
            <Array as="points">
              <mxPoint x="320" y="430" />
              <mxPoint x="150" y="430" />
            </Array>
          </mxGeometry>
        </mxCell>
        <mxCell id="pMdaFxTydQ8j_dU6FZVj-22" value="Ya" style="edgeStyle=orthogonalEdgeStyle;rounded=0;orthogonalLoop=1;jettySize=auto;html=1;" edge="1" parent="mQmmFYdoZKdc9D-ff9Vp-2" source="0ExI7t5zUDaYTISisU2D-13" target="pMdaFxTydQ8j_dU6FZVj-20">
          <mxGeometry relative="1" as="geometry" />
        </mxCell>
        <mxCell id="pMdaFxTydQ8j_dU6FZVj-24" style="edgeStyle=orthogonalEdgeStyle;rounded=0;orthogonalLoop=1;jettySize=auto;html=1;entryX=0;entryY=0.5;entryDx=0;entryDy=0;" edge="1" parent="mQmmFYdoZKdc9D-ff9Vp-2" source="pMdaFxTydQ8j_dU6FZVj-9" target="pMdaFxTydQ8j_dU6FZVj-23">
          <mxGeometry relative="1" as="geometry" />
        </mxCell>
        <mxCell id="pMdaFxTydQ8j_dU6FZVj-27" style="edgeStyle=orthogonalEdgeStyle;rounded=0;orthogonalLoop=1;jettySize=auto;html=1;entryX=0.5;entryY=0;entryDx=0;entryDy=0;" edge="1" parent="mQmmFYdoZKdc9D-ff9Vp-2" source="pMdaFxTydQ8j_dU6FZVj-23" target="pMdaFxTydQ8j_dU6FZVj-25">
          <mxGeometry relative="1" as="geometry">
            <Array as="points">
              <mxPoint x="320" y="660" />
              <mxPoint x="150" y="660" />
            </Array>
          </mxGeometry>
        </mxCell>
        <mxCell id="pMdaFxTydQ8j_dU6FZVj-30" style="edgeStyle=orthogonalEdgeStyle;rounded=0;orthogonalLoop=1;jettySize=auto;html=1;entryX=0;entryY=0.5;entryDx=0;entryDy=0;" edge="1" parent="mQmmFYdoZKdc9D-ff9Vp-2" source="0ExI7t5zUDaYTISisU2D-9" target="0ExI7t5zUDaYTISisU2D-13">
          <mxGeometry relative="1" as="geometry" />
        </mxCell>
        <mxCell id="pMdaFxTydQ8j_dU6FZVj-31" style="edgeStyle=orthogonalEdgeStyle;rounded=0;orthogonalLoop=1;jettySize=auto;html=1;" edge="1" parent="mQmmFYdoZKdc9D-ff9Vp-2" source="pMdaFxTydQ8j_dU6FZVj-25" target="pMdaFxTydQ8j_dU6FZVj-29">
          <mxGeometry relative="1" as="geometry" />
        </mxCell>
        <mxCell id="pMdaFxTydQ8j_dU6FZVj-35" value="Ya" style="edgeStyle=orthogonalEdgeStyle;rounded=0;orthogonalLoop=1;jettySize=auto;html=1;entryX=0;entryY=0.5;entryDx=0;entryDy=0;" edge="1" parent="mQmmFYdoZKdc9D-ff9Vp-2" source="pMdaFxTydQ8j_dU6FZVj-29" target="pMdaFxTydQ8j_dU6FZVj-34">
          <mxGeometry relative="1" as="geometry" />
        </mxCell>
        <mxCell id="pMdaFxTydQ8j_dU6FZVj-36" style="edgeStyle=orthogonalEdgeStyle;rounded=0;orthogonalLoop=1;jettySize=auto;html=1;entryX=0.5;entryY=0;entryDx=0;entryDy=0;" edge="1" parent="mQmmFYdoZKdc9D-ff9Vp-2" source="0ExI7t5zUDaYTISisU2D-3" target="pMdaFxTydQ8j_dU6FZVj-4">
          <mxGeometry relative="1" as="geometry">
            <Array as="points">
              <mxPoint x="325" y="340" />
              <mxPoint x="80" y="340" />
            </Array>
          </mxGeometry>
        </mxCell>
        <mxCell id="pMdaFxTydQ8j_dU6FZVj-40" style="edgeStyle=orthogonalEdgeStyle;rounded=0;orthogonalLoop=1;jettySize=auto;html=1;entryX=0;entryY=0.5;entryDx=0;entryDy=0;" edge="1" parent="mQmmFYdoZKdc9D-ff9Vp-2" source="pMdaFxTydQ8j_dU6FZVj-37" target="pMdaFxTydQ8j_dU6FZVj-39">
          <mxGeometry relative="1" as="geometry" />
        </mxCell>
        <mxCell id="pMdaFxTydQ8j_dU6FZVj-60" value="Ya" style="edgeLabel;html=1;align=center;verticalAlign=middle;resizable=0;points=[];" vertex="1" connectable="0" parent="pMdaFxTydQ8j_dU6FZVj-40">
          <mxGeometry x="-0.3394" relative="1" as="geometry">
            <mxPoint as="offset" />
          </mxGeometry>
        </mxCell>
        <mxCell id="pMdaFxTydQ8j_dU6FZVj-44" style="edgeStyle=orthogonalEdgeStyle;rounded=0;orthogonalLoop=1;jettySize=auto;html=1;entryX=0.5;entryY=0;entryDx=0;entryDy=0;" edge="1" parent="mQmmFYdoZKdc9D-ff9Vp-2" source="pMdaFxTydQ8j_dU6FZVj-39" target="pMdaFxTydQ8j_dU6FZVj-41">
          <mxGeometry relative="1" as="geometry">
            <Array as="points">
              <mxPoint x="320" y="910" />
              <mxPoint x="155" y="910" />
            </Array>
          </mxGeometry>
        </mxCell>
        <mxCell id="pMdaFxTydQ8j_dU6FZVj-46" value="Ya" style="edgeStyle=orthogonalEdgeStyle;rounded=0;orthogonalLoop=1;jettySize=auto;html=1;entryX=0;entryY=0.5;entryDx=0;entryDy=0;" edge="1" parent="mQmmFYdoZKdc9D-ff9Vp-2" source="pMdaFxTydQ8j_dU6FZVj-41" target="pMdaFxTydQ8j_dU6FZVj-45">
          <mxGeometry relative="1" as="geometry" />
        </mxCell>
        <mxCell id="pMdaFxTydQ8j_dU6FZVj-48" style="edgeStyle=orthogonalEdgeStyle;rounded=0;orthogonalLoop=1;jettySize=auto;html=1;entryX=0;entryY=0.5;entryDx=0;entryDy=0;" edge="1" parent="mQmmFYdoZKdc9D-ff9Vp-2" source="pMdaFxTydQ8j_dU6FZVj-45" target="pMdaFxTydQ8j_dU6FZVj-47">
          <mxGeometry relative="1" as="geometry" />
        </mxCell>
        <mxCell id="pMdaFxTydQ8j_dU6FZVj-54" style="edgeStyle=orthogonalEdgeStyle;rounded=0;orthogonalLoop=1;jettySize=auto;html=1;entryX=1;entryY=0.5;entryDx=0;entryDy=0;entryPerimeter=0;strokeColor=#000000;" edge="1" parent="mQmmFYdoZKdc9D-ff9Vp-2" source="pMdaFxTydQ8j_dU6FZVj-47" target="pMdaFxTydQ8j_dU6FZVj-52">
          <mxGeometry relative="1" as="geometry">
            <Array as="points">
              <mxPoint x="600" y="1055" />
            </Array>
          </mxGeometry>
        </mxCell>
        <mxCell id="pMdaFxTydQ8j_dU6FZVj-55" style="edgeStyle=orthogonalEdgeStyle;rounded=0;orthogonalLoop=1;jettySize=auto;html=1;entryX=0;entryY=0.5;entryDx=0;entryDy=0;entryPerimeter=0;strokeColor=#000000;" edge="1" parent="mQmmFYdoZKdc9D-ff9Vp-2" source="pMdaFxTydQ8j_dU6FZVj-41" target="pMdaFxTydQ8j_dU6FZVj-52">
          <mxGeometry relative="1" as="geometry">
            <Array as="points">
              <mxPoint x="155" y="1055" />
            </Array>
          </mxGeometry>
        </mxCell>
        <mxCell id="pMdaFxTydQ8j_dU6FZVj-61" value="Tidak" style="edgeLabel;html=1;align=center;verticalAlign=middle;resizable=0;points=[];" vertex="1" connectable="0" parent="pMdaFxTydQ8j_dU6FZVj-55">
          <mxGeometry x="0.1563" y="2" relative="1" as="geometry">
            <mxPoint as="offset" />
          </mxGeometry>
        </mxCell>
        <mxCell id="pMdaFxTydQ8j_dU6FZVj-56" style="edgeStyle=orthogonalEdgeStyle;rounded=0;orthogonalLoop=1;jettySize=auto;html=1;entryX=0.25;entryY=0.5;entryDx=0;entryDy=0;entryPerimeter=0;strokeColor=#000000;" edge="1" parent="mQmmFYdoZKdc9D-ff9Vp-2" source="pMdaFxTydQ8j_dU6FZVj-37" target="pMdaFxTydQ8j_dU6FZVj-52">
          <mxGeometry relative="1" as="geometry">
            <Array as="points">
              <mxPoint x="80" y="1035" />
              <mxPoint x="290" y="1035" />
            </Array>
          </mxGeometry>
        </mxCell>
        <mxCell id="pMdaFxTydQ8j_dU6FZVj-59" value="Tidak" style="edgeLabel;html=1;align=center;verticalAlign=middle;resizable=0;points=[];" vertex="1" connectable="0" parent="pMdaFxTydQ8j_dU6FZVj-56">
          <mxGeometry x="0.0286" relative="1" as="geometry">
            <mxPoint as="offset" />
          </mxGeometry>
        </mxCell>
        <mxCell id="pMdaFxTydQ8j_dU6FZVj-58" style="edgeStyle=orthogonalEdgeStyle;rounded=0;orthogonalLoop=1;jettySize=auto;html=1;entryX=0.75;entryY=0.5;entryDx=0;entryDy=0;entryPerimeter=0;strokeColor=#000000;" edge="1" parent="mQmmFYdoZKdc9D-ff9Vp-2" source="pMdaFxTydQ8j_dU6FZVj-34" target="pMdaFxTydQ8j_dU6FZVj-52">
          <mxGeometry relative="1" as="geometry">
            <Array as="points">
              <mxPoint x="475" y="1030" />
              <mxPoint x="353" y="1030" />
            </Array>
          </mxGeometry>
        </mxCell>
        <mxCell id="pMdaFxTydQ8j_dU6FZVj-62" style="edgeStyle=orthogonalEdgeStyle;rounded=0;orthogonalLoop=1;jettySize=auto;html=1;entryX=0.75;entryY=0.5;entryDx=0;entryDy=0;entryPerimeter=0;strokeColor=#000000;" edge="1" parent="mQmmFYdoZKdc9D-ff9Vp-2" source="pMdaFxTydQ8j_dU6FZVj-20" target="pMdaFxTydQ8j_dU6FZVj-52">
          <mxGeometry relative="1" as="geometry">
            <Array as="points">
              <mxPoint x="538" y="1070" />
              <mxPoint x="353" y="1070" />
            </Array>
          </mxGeometry>
        </mxCell>
      </root>
    </mxGraphModel>
  </diagram>
  <diagram id="8RQpHaoCD48h8cCvTz2C" name="Mengelola Data Produk">
    <mxGraphModel dx="868" dy="464" grid="1" gridSize="10" guides="1" tooltips="1" connect="1" arrows="1" fold="1" page="1" pageScale="1" pageWidth="850" pageHeight="1100" math="0" shadow="0">
      <root>
        <mxCell id="W7N-gJGAzjaCDYcNXTkK-0" />
        <mxCell id="W7N-gJGAzjaCDYcNXTkK-1" parent="W7N-gJGAzjaCDYcNXTkK-0" />
        <mxCell id="l0UOf2TaoHyTz2CEGPpo-0" value="Mengelola Data Produk" style="swimlane;childLayout=stackLayout;resizeParent=1;resizeParentMax=0;startSize=20;fontSize=11;strokeColor=#000000;" parent="W7N-gJGAzjaCDYcNXTkK-1" vertex="1">
          <mxGeometry x="240" y="30" width="480" height="570" as="geometry" />
        </mxCell>
        <mxCell id="l0UOf2TaoHyTz2CEGPpo-1" value="Admin" style="swimlane;startSize=20;fontSize=11;strokeColor=#000000;" parent="l0UOf2TaoHyTz2CEGPpo-0" vertex="1">
          <mxGeometry y="20" width="160" height="550" as="geometry" />
        </mxCell>
        <mxCell id="l0UOf2TaoHyTz2CEGPpo-2" style="edgeStyle=orthogonalEdgeStyle;rounded=0;orthogonalLoop=1;jettySize=auto;html=1;entryX=0.5;entryY=0;entryDx=0;entryDy=0;fontSize=11;strokeColor=#000000;" parent="l0UOf2TaoHyTz2CEGPpo-1" source="l0UOf2TaoHyTz2CEGPpo-3" target="l0UOf2TaoHyTz2CEGPpo-4" edge="1">
          <mxGeometry relative="1" as="geometry" />
        </mxCell>
        <mxCell id="l0UOf2TaoHyTz2CEGPpo-3" value="" style="ellipse;html=1;shape=startState;fillColor=#000000;strokeColor=#000000;fontSize=11;" parent="l0UOf2TaoHyTz2CEGPpo-1" vertex="1">
          <mxGeometry x="65" y="40" width="30" height="30" as="geometry" />
        </mxCell>
        <mxCell id="l0UOf2TaoHyTz2CEGPpo-4" value="Masukan Username dan Password" style="rounded=1;whiteSpace=wrap;html=1;fontSize=11;strokeColor=#000000;" parent="l0UOf2TaoHyTz2CEGPpo-1" vertex="1">
          <mxGeometry x="35" y="100" width="90" height="50" as="geometry" />
        </mxCell>
        <mxCell id="l0UOf2TaoHyTz2CEGPpo-5" value="Masuk ke Halaman Data Produk" style="rounded=1;whiteSpace=wrap;html=1;fontSize=11;strokeColor=#000000;" parent="l0UOf2TaoHyTz2CEGPpo-1" vertex="1">
          <mxGeometry x="30" y="205" width="100" height="50" as="geometry" />
        </mxCell>
        <mxCell id="anKyBKNN8bCKPvE4AWDU-0" value="" style="rounded=1;whiteSpace=wrap;html=1;fontSize=11;strokeColor=#000000;" vertex="1" parent="l0UOf2TaoHyTz2CEGPpo-1">
          <mxGeometry x="30" y="340" width="100" height="50" as="geometry" />
        </mxCell>
        <mxCell id="l0UOf2TaoHyTz2CEGPpo-6" value="Sistem" style="swimlane;startSize=20;fontSize=11;strokeColor=#000000;" parent="l0UOf2TaoHyTz2CEGPpo-0" vertex="1">
          <mxGeometry x="160" y="20" width="180" height="550" as="geometry" />
        </mxCell>
        <mxCell id="l0UOf2TaoHyTz2CEGPpo-7" value="Memperoses Username dan Password" style="rounded=1;whiteSpace=wrap;html=1;fontSize=11;strokeColor=#000000;" parent="l0UOf2TaoHyTz2CEGPpo-6" vertex="1">
          <mxGeometry x="25" y="105" width="130" height="40" as="geometry" />
        </mxCell>
        <mxCell id="l0UOf2TaoHyTz2CEGPpo-8" value="Beranda" style="rounded=1;whiteSpace=wrap;html=1;fontSize=11;strokeColor=#000000;" parent="l0UOf2TaoHyTz2CEGPpo-6" vertex="1">
          <mxGeometry x="25" y="215" width="130" height="30" as="geometry" />
        </mxCell>
        <mxCell id="PSHUTd-SceVvbaI_ADwB-0" value="Menampilkan Data Produk" style="rounded=1;whiteSpace=wrap;html=1;fontSize=11;strokeColor=#000000;" vertex="1" parent="l0UOf2TaoHyTz2CEGPpo-6">
          <mxGeometry x="25" y="280" width="130" height="30" as="geometry" />
        </mxCell>
        <mxCell id="l0UOf2TaoHyTz2CEGPpo-9" value="Database" style="swimlane;startSize=20;fontSize=11;strokeColor=#000000;" parent="l0UOf2TaoHyTz2CEGPpo-0" vertex="1">
          <mxGeometry x="340" y="20" width="140" height="550" as="geometry" />
        </mxCell>
        <mxCell id="l0UOf2TaoHyTz2CEGPpo-10" value="" style="rhombus;whiteSpace=wrap;html=1;fontSize=11;strokeColor=#000000;" parent="l0UOf2TaoHyTz2CEGPpo-9" vertex="1">
          <mxGeometry x="45" y="150" width="50" height="50" as="geometry" />
        </mxCell>
        <mxCell id="l0UOf2TaoHyTz2CEGPpo-11" value="Validasi" style="text;html=1;strokeColor=none;fillColor=none;align=center;verticalAlign=middle;whiteSpace=wrap;rounded=0;fontSize=11;" parent="l0UOf2TaoHyTz2CEGPpo-9" vertex="1">
          <mxGeometry x="80" y="180" width="60" height="30" as="geometry" />
        </mxCell>
        <mxCell id="l0UOf2TaoHyTz2CEGPpo-12" style="edgeStyle=orthogonalEdgeStyle;rounded=0;orthogonalLoop=1;jettySize=auto;html=1;entryX=0;entryY=0.5;entryDx=0;entryDy=0;fontSize=11;strokeColor=#000000;" parent="l0UOf2TaoHyTz2CEGPpo-0" source="l0UOf2TaoHyTz2CEGPpo-4" target="l0UOf2TaoHyTz2CEGPpo-7" edge="1">
          <mxGeometry relative="1" as="geometry" />
        </mxCell>
        <mxCell id="l0UOf2TaoHyTz2CEGPpo-13" style="edgeStyle=orthogonalEdgeStyle;rounded=0;orthogonalLoop=1;jettySize=auto;html=1;entryX=0.5;entryY=0;entryDx=0;entryDy=0;fontSize=11;strokeColor=#000000;" parent="l0UOf2TaoHyTz2CEGPpo-0" source="l0UOf2TaoHyTz2CEGPpo-7" target="l0UOf2TaoHyTz2CEGPpo-10" edge="1">
          <mxGeometry relative="1" as="geometry" />
        </mxCell>
        <mxCell id="l0UOf2TaoHyTz2CEGPpo-14" style="edgeStyle=orthogonalEdgeStyle;rounded=0;orthogonalLoop=1;jettySize=auto;html=1;entryX=0.5;entryY=1;entryDx=0;entryDy=0;fontSize=11;strokeColor=#000000;" parent="l0UOf2TaoHyTz2CEGPpo-0" source="l0UOf2TaoHyTz2CEGPpo-10" target="l0UOf2TaoHyTz2CEGPpo-4" edge="1">
          <mxGeometry relative="1" as="geometry" />
        </mxCell>
        <mxCell id="l0UOf2TaoHyTz2CEGPpo-15" value="Tidak" style="edgeLabel;html=1;align=center;verticalAlign=middle;resizable=0;points=[];fontSize=11;" parent="l0UOf2TaoHyTz2CEGPpo-14" vertex="1" connectable="0">
          <mxGeometry x="-0.1818" y="1" relative="1" as="geometry">
            <mxPoint as="offset" />
          </mxGeometry>
        </mxCell>
        <mxCell id="l0UOf2TaoHyTz2CEGPpo-16" style="edgeStyle=orthogonalEdgeStyle;rounded=0;orthogonalLoop=1;jettySize=auto;html=1;entryX=1;entryY=0.5;entryDx=0;entryDy=0;fontSize=11;strokeColor=#000000;" parent="l0UOf2TaoHyTz2CEGPpo-0" source="l0UOf2TaoHyTz2CEGPpo-10" target="l0UOf2TaoHyTz2CEGPpo-8" edge="1">
          <mxGeometry relative="1" as="geometry">
            <Array as="points">
              <mxPoint x="410" y="250" />
            </Array>
          </mxGeometry>
        </mxCell>
        <mxCell id="l0UOf2TaoHyTz2CEGPpo-17" value="Ya" style="edgeLabel;html=1;align=center;verticalAlign=middle;resizable=0;points=[];fontSize=11;" parent="l0UOf2TaoHyTz2CEGPpo-16" vertex="1" connectable="0">
          <mxGeometry x="-0.072" relative="1" as="geometry">
            <mxPoint as="offset" />
          </mxGeometry>
        </mxCell>
        <mxCell id="SNFk35M_d9-vFcyKCK88-0" style="edgeStyle=orthogonalEdgeStyle;rounded=0;orthogonalLoop=1;jettySize=auto;html=1;entryX=1;entryY=0.5;entryDx=0;entryDy=0;" edge="1" parent="l0UOf2TaoHyTz2CEGPpo-0" source="l0UOf2TaoHyTz2CEGPpo-8" target="l0UOf2TaoHyTz2CEGPpo-5">
          <mxGeometry relative="1" as="geometry" />
        </mxCell>
        <mxCell id="mtAxQW07T_guHsklQlPa-0" style="edgeStyle=orthogonalEdgeStyle;rounded=0;orthogonalLoop=1;jettySize=auto;html=1;entryX=0;entryY=0.5;entryDx=0;entryDy=0;" edge="1" parent="l0UOf2TaoHyTz2CEGPpo-0" source="l0UOf2TaoHyTz2CEGPpo-5" target="PSHUTd-SceVvbaI_ADwB-0">
          <mxGeometry relative="1" as="geometry">
            <Array as="points">
              <mxPoint x="80" y="315" />
            </Array>
          </mxGeometry>
        </mxCell>
        <mxCell id="rmwxBkVt1LOMQMWbmAAv-0" style="edgeStyle=orthogonalEdgeStyle;rounded=0;orthogonalLoop=1;jettySize=auto;html=1;entryX=1;entryY=0.5;entryDx=0;entryDy=0;" edge="1" parent="l0UOf2TaoHyTz2CEGPpo-0" source="PSHUTd-SceVvbaI_ADwB-0" target="anKyBKNN8bCKPvE4AWDU-0">
          <mxGeometry relative="1" as="geometry">
            <Array as="points">
              <mxPoint x="250" y="385" />
            </Array>
          </mxGeometry>
        </mxCell>
      </root>
    </mxGraphModel>
  </diagram>
  <diagram id="75gpP3iTpiLxE2skKulQ" name="Mengelola Data Blog">
    <mxGraphModel dx="868" dy="464" grid="1" gridSize="10" guides="1" tooltips="1" connect="1" arrows="1" fold="1" page="1" pageScale="1" pageWidth="850" pageHeight="1100" math="0" shadow="0">
      <root>
        <mxCell id="uptQeswEA4a4IYr6A7uR-0" />
        <mxCell id="uptQeswEA4a4IYr6A7uR-1" parent="uptQeswEA4a4IYr6A7uR-0" />
        <mxCell id="uptQeswEA4a4IYr6A7uR-2" value="Mengelola Data Blog" style="swimlane;childLayout=stackLayout;resizeParent=1;resizeParentMax=0;startSize=20;fontSize=11;strokeColor=#000000;" parent="uptQeswEA4a4IYr6A7uR-1" vertex="1">
          <mxGeometry x="160" y="40" width="480" height="480" as="geometry" />
        </mxCell>
        <mxCell id="uptQeswEA4a4IYr6A7uR-3" value="Admin" style="swimlane;startSize=20;fontSize=11;strokeColor=#000000;" parent="uptQeswEA4a4IYr6A7uR-2" vertex="1">
          <mxGeometry y="20" width="160" height="460" as="geometry" />
        </mxCell>
        <mxCell id="uptQeswEA4a4IYr6A7uR-4" style="edgeStyle=orthogonalEdgeStyle;rounded=0;orthogonalLoop=1;jettySize=auto;html=1;entryX=0.5;entryY=0;entryDx=0;entryDy=0;fontSize=11;strokeColor=#000000;" parent="uptQeswEA4a4IYr6A7uR-3" source="uptQeswEA4a4IYr6A7uR-5" target="uptQeswEA4a4IYr6A7uR-6" edge="1">
          <mxGeometry relative="1" as="geometry" />
        </mxCell>
        <mxCell id="uptQeswEA4a4IYr6A7uR-5" value="" style="ellipse;html=1;shape=startState;fillColor=#000000;strokeColor=#000000;fontSize=11;" parent="uptQeswEA4a4IYr6A7uR-3" vertex="1">
          <mxGeometry x="65" y="40" width="30" height="30" as="geometry" />
        </mxCell>
        <mxCell id="uptQeswEA4a4IYr6A7uR-6" value="Masukan Username dan Password" style="rounded=1;whiteSpace=wrap;html=1;fontSize=11;strokeColor=#000000;" parent="uptQeswEA4a4IYr6A7uR-3" vertex="1">
          <mxGeometry x="35" y="100" width="90" height="50" as="geometry" />
        </mxCell>
        <mxCell id="uptQeswEA4a4IYr6A7uR-7" value="Masuk ke Blog" style="rounded=1;whiteSpace=wrap;html=1;fontSize=11;strokeColor=#000000;" parent="uptQeswEA4a4IYr6A7uR-3" vertex="1">
          <mxGeometry x="30" y="205" width="100" height="50" as="geometry" />
        </mxCell>
        <mxCell id="uptQeswEA4a4IYr6A7uR-8" value="Sistem" style="swimlane;startSize=20;fontSize=11;strokeColor=#000000;" parent="uptQeswEA4a4IYr6A7uR-2" vertex="1">
          <mxGeometry x="160" y="20" width="180" height="460" as="geometry" />
        </mxCell>
        <mxCell id="uptQeswEA4a4IYr6A7uR-9" value="Memperoses Username dan Password" style="rounded=1;whiteSpace=wrap;html=1;fontSize=11;strokeColor=#000000;" parent="uptQeswEA4a4IYr6A7uR-8" vertex="1">
          <mxGeometry x="25" y="105" width="130" height="40" as="geometry" />
        </mxCell>
        <mxCell id="uptQeswEA4a4IYr6A7uR-10" value="Beranda" style="rounded=1;whiteSpace=wrap;html=1;fontSize=11;strokeColor=#000000;" parent="uptQeswEA4a4IYr6A7uR-8" vertex="1">
          <mxGeometry x="25" y="215" width="130" height="30" as="geometry" />
        </mxCell>
        <mxCell id="649-fnWJLHP_HeRDDqfn-0" value="Menampilkan Blog" style="rounded=1;whiteSpace=wrap;html=1;fontSize=11;strokeColor=#000000;" vertex="1" parent="uptQeswEA4a4IYr6A7uR-8">
          <mxGeometry x="25" y="300" width="130" height="30" as="geometry" />
        </mxCell>
        <mxCell id="uptQeswEA4a4IYr6A7uR-11" value="Database" style="swimlane;startSize=20;fontSize=11;strokeColor=#000000;" parent="uptQeswEA4a4IYr6A7uR-2" vertex="1">
          <mxGeometry x="340" y="20" width="140" height="460" as="geometry" />
        </mxCell>
        <mxCell id="uptQeswEA4a4IYr6A7uR-12" value="" style="rhombus;whiteSpace=wrap;html=1;fontSize=11;strokeColor=#000000;" parent="uptQeswEA4a4IYr6A7uR-11" vertex="1">
          <mxGeometry x="45" y="150" width="50" height="50" as="geometry" />
        </mxCell>
        <mxCell id="uptQeswEA4a4IYr6A7uR-13" value="Validasi" style="text;html=1;strokeColor=none;fillColor=none;align=center;verticalAlign=middle;whiteSpace=wrap;rounded=0;fontSize=11;" parent="uptQeswEA4a4IYr6A7uR-11" vertex="1">
          <mxGeometry x="80" y="180" width="60" height="30" as="geometry" />
        </mxCell>
        <mxCell id="uptQeswEA4a4IYr6A7uR-14" style="edgeStyle=orthogonalEdgeStyle;rounded=0;orthogonalLoop=1;jettySize=auto;html=1;entryX=0;entryY=0.5;entryDx=0;entryDy=0;fontSize=11;strokeColor=#000000;" parent="uptQeswEA4a4IYr6A7uR-2" source="uptQeswEA4a4IYr6A7uR-6" target="uptQeswEA4a4IYr6A7uR-9" edge="1">
          <mxGeometry relative="1" as="geometry" />
        </mxCell>
        <mxCell id="uptQeswEA4a4IYr6A7uR-15" style="edgeStyle=orthogonalEdgeStyle;rounded=0;orthogonalLoop=1;jettySize=auto;html=1;entryX=0.5;entryY=0;entryDx=0;entryDy=0;fontSize=11;strokeColor=#000000;" parent="uptQeswEA4a4IYr6A7uR-2" source="uptQeswEA4a4IYr6A7uR-9" target="uptQeswEA4a4IYr6A7uR-12" edge="1">
          <mxGeometry relative="1" as="geometry" />
        </mxCell>
        <mxCell id="uptQeswEA4a4IYr6A7uR-16" style="edgeStyle=orthogonalEdgeStyle;rounded=0;orthogonalLoop=1;jettySize=auto;html=1;entryX=0.5;entryY=1;entryDx=0;entryDy=0;fontSize=11;strokeColor=#000000;" parent="uptQeswEA4a4IYr6A7uR-2" source="uptQeswEA4a4IYr6A7uR-12" target="uptQeswEA4a4IYr6A7uR-6" edge="1">
          <mxGeometry relative="1" as="geometry" />
        </mxCell>
        <mxCell id="uptQeswEA4a4IYr6A7uR-17" value="Tidak" style="edgeLabel;html=1;align=center;verticalAlign=middle;resizable=0;points=[];fontSize=11;" parent="uptQeswEA4a4IYr6A7uR-16" vertex="1" connectable="0">
          <mxGeometry x="-0.1818" y="1" relative="1" as="geometry">
            <mxPoint as="offset" />
          </mxGeometry>
        </mxCell>
        <mxCell id="uptQeswEA4a4IYr6A7uR-18" style="edgeStyle=orthogonalEdgeStyle;rounded=0;orthogonalLoop=1;jettySize=auto;html=1;entryX=1;entryY=0.5;entryDx=0;entryDy=0;fontSize=11;strokeColor=#000000;" parent="uptQeswEA4a4IYr6A7uR-2" source="uptQeswEA4a4IYr6A7uR-12" target="uptQeswEA4a4IYr6A7uR-10" edge="1">
          <mxGeometry relative="1" as="geometry">
            <Array as="points">
              <mxPoint x="410" y="250" />
            </Array>
          </mxGeometry>
        </mxCell>
        <mxCell id="uptQeswEA4a4IYr6A7uR-19" value="Ya" style="edgeLabel;html=1;align=center;verticalAlign=middle;resizable=0;points=[];fontSize=11;" parent="uptQeswEA4a4IYr6A7uR-18" vertex="1" connectable="0">
          <mxGeometry x="-0.072" relative="1" as="geometry">
            <mxPoint as="offset" />
          </mxGeometry>
        </mxCell>
        <mxCell id="5cNOhBXpmezQmOXGq4vi-0" style="edgeStyle=orthogonalEdgeStyle;rounded=0;orthogonalLoop=1;jettySize=auto;html=1;entryX=1;entryY=0.5;entryDx=0;entryDy=0;" edge="1" parent="uptQeswEA4a4IYr6A7uR-2" source="uptQeswEA4a4IYr6A7uR-10" target="uptQeswEA4a4IYr6A7uR-7">
          <mxGeometry relative="1" as="geometry" />
        </mxCell>
        <mxCell id="649-fnWJLHP_HeRDDqfn-1" style="edgeStyle=orthogonalEdgeStyle;rounded=0;orthogonalLoop=1;jettySize=auto;html=1;entryX=0;entryY=0.5;entryDx=0;entryDy=0;" edge="1" parent="uptQeswEA4a4IYr6A7uR-2" source="uptQeswEA4a4IYr6A7uR-7" target="649-fnWJLHP_HeRDDqfn-0">
          <mxGeometry relative="1" as="geometry">
            <Array as="points">
              <mxPoint x="80" y="335" />
            </Array>
          </mxGeometry>
        </mxCell>
      </root>
    </mxGraphModel>
  </diagram>
</mxfile>
